<svg xmlns="http://www.w3.org/2000/svg" xmlns:xlink="http://www.w3.org/1999/xlink" x="0px" y="0px" viewBox="0 0 355 220">
<style type="text/css">
	.st0{fill:#151F42;}
	.st1{fill:#162147;}
	.st2{fill:#0E1633;}
	.st3{fill:#141D3F;}
	.st4{fill:#1B284C;}
</style>
<g>
	<g fill="#151F42">
		<path class="st0" d="M39.4,75.3h-11c-1.4,0-2.5,1.1-2.5,2.5v0c0,1.4,1.1,2.5,2.5,2.5h11c1.4,0,2.5-1.1,2.5-2.5v0
			C41.9,76.4,40.8,75.3,39.4,75.3z"/>
		<path class="st0" d="M107.4,207.1h-20c-1.4,0-2.5,1.1-2.5,2.5v0c0,1.4,1.1,2.5,2.5,2.5h20c1.4,0,2.5-1.1,2.5-2.5v0
			C109.9,208.2,108.8,207.1,107.4,207.1z"/>
		<path class="st0" d="M352.5,60.5h-16c-1.4,0-2.5,1.1-2.5,2.5v0c0,1.4,1.1,2.5,2.5,2.5h16c1.4,0,2.5-1.1,2.5-2.5v0
			C355,61.6,353.9,60.5,352.5,60.5z"/>
		<path class="st0" d="M257.5,18.5h-16c-1.4,0-2.5,1.1-2.5,2.5v0c0,1.4,1.1,2.5,2.5,2.5h16c1.4,0,2.5-1.1,2.5-2.5v0
			C260,19.6,258.8,18.5,257.5,18.5z"/>
		<path class="st0" d="M307.5,209.1h-9c-1.4,0-2.5,1.1-2.5,2.5v0c0,1.4,1.1,2.5,2.5,2.5h9c1.4,0,2.5-1.1,2.5-2.5v0
			C310,210.2,308.9,209.1,307.5,209.1z"/>
		<path class="st0" d="M146.4,0l-9,0c-1.4,0-2.5,1.1-2.5,2.5v0c0,1.4,1.1,2.5,2.5,2.5h9c1.4,0,2.5-1.1,2.5-2.5v0
			C148.9,1.1,147.8,0,146.4,0z"/>
		<path class="st0" d="M97.3,120.3h-18c-1.4,0-2.5,1.1-2.5,2.5v0c0,1.4,1.1,2.5,2.5,2.5h18c1.4,0,2.5-1.1,2.5-2.5v0
			C99.8,121.4,98.6,120.3,97.3,120.3z"/>
		<path class="st0" d="M36.4,13h-34c-1.4,0-2.5,1.1-2.5,2.5v0c0,1.4,1.1,2.5,2.5,2.5h34c1.4,0,2.5-1.1,2.5-2.5v0
			C38.9,14.1,37.8,13,36.4,13z"/>
	</g>
</g>
<g fill="#162147">
	<path class="st1" d="M136.5,81.2l74.3-43c1.5-0.8,3.3,0.2,3.3,1.9v88.5l-77.7,45c-0.9,0.5-2-0.1-2-1.1L134.3,85
		C134.3,83.4,135.1,82,136.5,81.2z"/>
	<path class="st1" d="M134.5,170.8L213,216c1,0.5,2.1,0.5,3.1,0l76.4-44.1c0.9-0.5,0.9-1.8,0-2.3l-78.4-45L134.5,170.8z"/>
	<g id="dark" fill="#0E1633">
		<path class="st2" d="M134.3,85c0,0-0.1-2.4,2.2-3.8l-2.3-1.3c0,0-2,1.5-2,3.9L134.3,85z"/>
		<path class="st2" d="M208.5,36.9c0,0,3.7-1.7,5.2,2l-3.6,0.1L208.5,36.9z"/>
		<path class="st2" d="M213,216c0,0,1.4,0.9,3.1,0c0,0,0.5,3.2,0,3.5c-0.6,0.4-2.4,0.4-3.1,0C212,218.9,213,216,213,216z"/>
		<polygon class="st2" points="139.1,85.4 208.4,45.1 208.4,125.7 139,165.9 		"/>
		<path class="st2" d="M292.5,175.4v-3.5c0,0,0.5-1.1,0.2-2.1c0,0,0.4,0.3,0.5,1.1C293.7,175,292.9,175.1,292.5,175.4z"/>
		<polygon class="st2" points="155.4,171.8 196.3,195 257.2,159.6 216.2,136.4 		"/>
		<polygon class="st2" points="226.1,187.1 239.8,194.9 258.1,184.3 244.3,176.5 		"/>
		<polygon class="st2" points="134.5,170.8 134.5,174.2 213,219.5 213,216 		"/>
		<polygon class="st2" points="216.1,219.5 216.1,216 292.5,171.9 292.5,175.4 		"/>
		<polygon class="st2" points="134.3,85 132.1,83.7 132.1,171.1 134.5,172.4 		"/>
		<polygon class="st2" points="136.5,81.2 210.8,38.2 208.5,36.9 134.2,79.8 		"/>
		<path class="st2" d="M132.1,171.1l2.3,1.3c0,0,0.4,2.2,2.4,0.9c0,0-0.8,0.5-1.3,0.7C135.3,174.2,132.1,174.2,132.1,171.1z"/>
	</g>
	<path class="st1" d="M142.2,85.5l15.1-8.7c0.9-0.5,2,0.1,2,1.1v73.8c0,0.6-0.3,1.2-0.9,1.5l-15.4,8.9c-0.9,0.5-2-0.1-2-1.1
		l-0.1-73.2C140.9,86.8,141.4,86,142.2,85.5z"/>
	<polygon class="st1" points="164,81 164,82.1 186.6,69.1 186.6,68 	"/>
	<polygon class="st1" points="164,98.5 164,99.6 186.6,86.7 186.6,85.6 	"/>
	<polygon class="st1" points="175.3,78.9 175.3,80 186.6,73.5 186.6,72.4 	"/>
	<polygon class="st1" points="175.3,83.3 175.3,84.4 186.6,77.9 186.6,76.8 	"/>
	<polygon class="st1" points="175.3,87.7 175.3,88.8 186.6,82.3 186.6,81.2 	"/>
	<polygon class="st1" points="175.3,96.5 175.3,97.6 186.6,91.1 186.6,90 	"/>
	<polygon class="st1" points="175.3,100.8 175.3,101.9 186.6,95.5 186.6,94.4 	"/>
	<g fill="#0E1633">
		<polygon class="st2" points="143.1,92.9 143.1,95 157.1,86.9 157.1,84.7 		"/>
		<polygon class="st2" points="143.1,98.4 143.1,100.6 157.1,92.5 157.1,90.3 		"/>
		<polygon class="st2" points="143.1,104.3 143.1,106.4 157.1,98.3 157.1,96.2 		"/>
		<polygon class="st2" points="143.1,110.3 143.1,112.4 157.1,104.3 157.1,102.2 		"/>
	</g>
</g>
<g fill="#141D3F">
	<path d="M317.5,165.3h-99c-1.6,0-3-1.3-3-3v-79c0-1.6,1.4-3,3-3h99c1.6,0,3,1.4,3,3v79
		C320.5,163.9,319.1,165.3,317.5,165.3z"/>
	<g fill="#0E1633">
		<g id="gears">
			<g>
				<path class="st2" d="M261,118.9h-2.7c-1,0-1.8,0.8-1.8,1.8v1.2c0,1,0.8,1.8,1.8,1.8h2.7c1,0,1.8-0.8,1.8-1.8v-1.2
					C262.8,119.7,262,118.9,261,118.9z"/>
				<path class="st2" d="M248.9,124.3l-1.3,2.3c-0.5,0.9-0.2,2,0.7,2.4l1.1,0.6c0.9,0.5,2,0.2,2.4-0.7l1.3-2.3
					c0.5-0.9,0.2-2-0.7-2.4l-1.1-0.6C250.5,123.2,249.4,123.5,248.9,124.3z"/>
				<path class="st2" d="M247.5,137.6l1.3,2.3c0.5,0.9,1.6,1.1,2.4,0.7l1.1-0.6c0.9-0.5,1.1-1.6,0.7-2.4l-1.3-2.3
					c-0.5-0.9-1.6-1.1-2.4-0.7l-1.1,0.6C247.3,135.6,247,136.7,247.5,137.6z"/>
				<path class="st2" d="M258.3,145.4h2.7c1,0,1.8-0.8,1.8-1.8v-1.2c0-1-0.8-1.8-1.8-1.8h-2.7c-1,0-1.8,0.8-1.8,1.8v1.2
					C256.6,144.6,257.4,145.4,258.3,145.4z"/>
				<path class="st2" d="M270.5,139.9l1.3-2.3c0.5-0.9,0.2-2-0.7-2.4l-1.1-0.6c-0.9-0.5-2-0.2-2.4,0.7l-1.3,2.3
					c-0.5,0.9-0.2,2,0.7,2.4l1.1,0.6C268.9,141.1,270,140.8,270.5,139.9z"/>
				<path class="st2" d="M271.8,126.7l-1.3-2.3c-0.5-0.9-1.6-1.1-2.4-0.7l-1.1,0.6c-0.9,0.5-1.1,1.6-0.7,2.4l1.3,2.3
					c0.5,0.9,1.6,1.1,2.4,0.7l1.1-0.6C272,128.6,272.3,127.5,271.8,126.7z"/>
				<path class="st2" d="M259.7,121.3c-6,0-10.8,4.9-10.8,10.8c0,6,4.9,10.8,10.8,10.8s10.8-4.9,10.8-10.8
					C270.5,126.1,265.7,121.3,259.7,121.3z M259.7,136.9c-2.7,0-4.8-2.2-4.8-4.8c0-2.7,2.2-4.8,4.8-4.8s4.8,2.2,4.8,4.8
					C264.5,134.8,262.3,136.9,259.7,136.9z"/>
			</g>
			<g>
				<path class="st2" d="M277.7,100.2H275c-1,0-1.8,0.8-1.8,1.8v1.2c0,1,0.8,1.8,1.8,1.8h2.7c1,0,1.8-0.8,1.8-1.8V102
					C279.4,101,278.6,100.2,277.7,100.2z"/>
				<path class="st2" d="M265.5,105.6l-1.3,2.3c-0.5,0.9-0.2,2,0.7,2.4l1.1,0.6c0.9,0.5,2,0.2,2.4-0.7l1.3-2.3
					c0.5-0.9,0.2-2-0.7-2.4L268,105C267.1,104.5,266,104.8,265.5,105.6z"/>
				<path class="st2" d="M264.2,118.9l1.3,2.3c0.5,0.9,1.6,1.1,2.4,0.7l1.1-0.6c0.9-0.5,1.1-1.6,0.7-2.4l-1.3-2.3
					c-0.5-0.9-1.6-1.1-2.4-0.7l-1.1,0.6C264,116.9,263.7,118.1,264.2,118.9z"/>
				<path class="st2" d="M275,126.7h2.7c1,0,1.8-0.8,1.8-1.8v-1.2c0-1-0.8-1.8-1.8-1.8H275c-1,0-1.8,0.8-1.8,1.8v1.2
					C273.2,125.9,274,126.7,275,126.7z"/>
				<path class="st2" d="M287.1,121.2l1.3-2.3c0.5-0.9,0.2-2-0.7-2.4l-1.1-0.6c-0.9-0.5-2-0.2-2.4,0.7l-1.3,2.3
					c-0.5,0.9-0.2,2,0.7,2.4l1.1,0.6C285.5,122.4,286.6,122.1,287.1,121.2z"/>
				<path class="st2" d="M288.5,108l-1.3-2.3c-0.5-0.9-1.6-1.1-2.4-0.7l-1.1,0.6c-0.9,0.5-1.1,1.6-0.7,2.4l1.3,2.3
					c0.5,0.9,1.6,1.1,2.4,0.7l1.1-0.6C288.7,109.9,289,108.8,288.5,108z"/>
				<path class="st2" d="M276.3,102.6c-6,0-10.8,4.9-10.8,10.8c0,6,4.9,10.8,10.8,10.8s10.8-4.9,10.8-10.8
					C287.2,107.4,282.3,102.6,276.3,102.6z M276.3,118.3c-2.7,0-4.8-2.2-4.8-4.8c0-2.7,2.2-4.8,4.8-4.8s4.8,2.2,4.8,4.8
					C281.1,116.1,279,118.3,276.3,118.3z"/>
			</g>
			<path class="st2" d="M317.5,80.3h-99c-1.7,0-3,1.3-3,3v1.9h105v-1.9C320.5,81.6,319.2,80.3,317.5,80.3z"/>
		</g>
		<g>
			<circle class="st4" cx="310.1" cy="82.7" r="1"/>
			<circle class="st4" cx="313.2" cy="82.7" r="1"/>
			<circle class="st4" cx="316.4" cy="82.7" r="1"/>
		</g>
	</g>
</g>
</svg>
