<svg xmlns="http://www.w3.org/2000/svg" xmlns:xlink="http://www.w3.org/1999/xlink" viewBox="0 0 355 220">
<g>
	<g fill="#151F42">
		<circle cx="249.6" cy="6" r="6"/>
		<circle cx="139.6" cy="11.9" r="6"/>
		<circle cx="54.8" cy="61.6" r="3.8"/>
		<circle cx="235.5" cy="100.5" r="14.1"/>
		<circle cx="349" cy="86.4" r="6"/>
		<circle cx="297.6" cy="191.9" r="6"/>
		<circle cx="121" cy="209.9" r="3.6"/>
		<circle cx="6" cy="198.3" r="6"/>
	</g>
	<g id="desktop" fill="#162147">
		<path d="M155.7,119.7c0,0,4.2,34.3-8.5,38.6l29,16.7c8.8-12.7-5.7-47-5.7-47L155.7,119.7z"/>
		<path d="M206.5,178.6V92.2c0-1.6-0.8-3-2.2-3.8l-84.5-48.6c-1.1-0.6-2.5,0.2-2.5,1.4l0,88.6c0,0.8,0.4,1.5,1.1,1.9
			l84.8,48.7C204.7,181.4,206.5,180.3,206.5,178.6z"/>
		<path d="M147.2,158.2l-12.6,4c-0.5,0.1-0.6,0.8-0.1,1l32.9,19.2c1,0.6,2.2,0.5,3.1-0.2l5.7-7.2L147.2,158.2z"/>
		<g id="dark" fill="#0E1633">
			<path d="M203.2,180.5c0,0,1.2,0.8,3.3,0c0,0,3.1-1.2,3.1-3.7l-3.1,1.8C206.5,178.6,206,181.6,203.2,180.5z"/>
			<path d="M117.4,41.3c0.1-0.6,0.8-2.2,2.5-1.4c1.9,0.9,3.2-1.8,3.2-1.8s-0.7-0.4-2.3-0.1
				C117.4,38.6,117.4,41.3,117.4,41.3z"/>
			<polygon points="201.8,163.1 201.8,92.3 122.1,46.5 122.1,117.3 			"/>
			<polygon points="204.3,88.4 207.4,86.7 123,38 119.8,39.9 			"/>
			<polygon points="206.5,92.2 209.6,90.4 209.6,176.8 206.5,178.6 			"/>
			<path d="M204.3,88.4c0,0,2.2,1.3,2.2,3.8l3.1-1.8c0,0,0-2.5-2.2-3.8L204.3,88.4z"/>
		</g>
		<polygon points="196.8,106 196.8,101.7 127.1,61.7 127.1,66 			"/>
		<polygon points="196.8,139.2 196.8,137.6 157.3,115 157.3,116.6 				"/>
		<polygon points="196.8,143.3 196.8,141.7 157.3,119.1 157.3,120.7 				"/>
		<polygon points="196.8,147.4 196.8,145.8 157.3,123.2 157.3,124.8 				"/>
		<polygon points="196.8,151.6 196.8,149.9 157.3,127.3 157.3,128.9 				"/>
		<path d="M142.8,95.2V83.1c0-0.4-0.2-0.8-0.6-0.9l-14-8.1c-0.4-0.2-0.8,0.1-0.8,0.5l0,12.1c0,0.4,0.2,0.8,0.6,0.9
			l14,8.1C142.4,95.8,142.8,95.6,142.8,95.2z"/>
		<path d="M160.7,105.2V93.1c0-0.4-0.2-0.8-0.6-0.9l-14-8.1c-0.4-0.2-0.8,0.1-0.8,0.5l0,12.1c0,0.4,0.2,0.8,0.6,0.9
			l14,8.1C160.3,105.8,160.7,105.6,160.7,105.2z"/>
		<path d="M178.6,115.6v-12.1c0-0.4-0.2-0.8-0.6-0.9l-14-8.1c-0.4-0.2-0.8,0.1-0.8,0.5l0,12.1c0,0.4,0.2,0.8,0.6,0.9
			l14,8.1C178.1,116.2,178.6,116,178.6,115.6z"/>
		<path d="M196.5,126.1V114c0-0.4-0.2-0.8-0.6-0.9l-14-8.1c-0.4-0.2-0.8,0.1-0.8,0.5l0,12.1c0,0.4,0.2,0.8,0.6,0.9
			l14,8.1C196,126.8,196.5,126.5,196.5,126.1z"/>
		<path d="M151.7,129.3v-19.1c0-0.6-0.3-1.2-0.9-1.5L128.7,96c-0.6-0.3-1.3,0.1-1.3,0.7l0,19.1c0,0.6,0.3,1.2,0.9,1.5
			l22.1,12.7C151,130.4,151.7,130,151.7,129.3z"/>
	</g>
	<g id="tablet" fill="#162147">
		<path d="M204.1,132.6v75.3c0,0.5-0.5,0.8-1,0.5l-39-22.5c-0.3-0.2-0.5-0.5-0.5-0.8V110c0-0.5,0.5-0.8,1-0.5l39.2,22.6
		C204,132.2,204.1,132.4,204.1,132.6z"/>
		<g id="dark_1_" fill="#0E1633">
			<path d="M164.6,109.5l1.5-0.7c0,0-0.3-0.2-0.9-0.1c-0.5,0.1-1.5,0.7-1.5,1.3C163.6,110.9,164.6,109.5,164.6,109.5z"
				/>
			<path d="M205.2,207.2l-1.2,0.8l-1,0.5c0,0,0.2,0.1,0.4,0.1c0.9,0,1.7-0.4,1.7-1C205.2,207.3,205.2,207.2,205.2,207.2
				z"/>
			<polygon points="200.9,135.2 200.9,202.4 166.8,182.8 166.8,115.6 			"/>
			<polygon points="204.1,207.9 205.2,207.2 205.6,132.5 204.1,133.2 			"/>
			<polygon points="204.8,131.1 203.3,131.8 164.6,109.5 166.1,108.8 			"/>
			<path d="M205.6,132.5c0,0,0-0.9-0.8-1.4l-1.5,0.7c0,0,0.8,0.4,0.8,1.4L205.6,132.5z"/>
		</g>
		<polygon points="198.4,140.9 198.4,143.4 169.3,127.2 169.3,124.7 			"/>
		<polygon points="197.6,184.7 197.6,185.9 170,170.8 170,169.6 			"/>
		<polygon points="197.6,188 197.6,189.2 170,174.1 170,172.9 			"/>
		<polygon points="197.6,191.1 197.6,192.3 170,177.2 170,176 			"/>
		<polygon points="197.6,194.1 197.6,195.3 170,180.2 170,179 			"/>
		<path d="M198.1,149v8.6c0,0.5-0.5,0.8-0.9,0.6l-7.3-4.1c-0.3-0.2-0.5-0.5-0.5-0.8v-8.7c0-0.5,0.5-0.8,0.9-0.6l7.1,4
		C197.9,148.1,198.1,148.5,198.1,149z"/>
		<path d="M188.1,143.4v8.6c0,0.5-0.5,0.8-0.9,0.6l-7.3-4.1c-0.3-0.2-0.5-0.5-0.5-0.8v-8.7c0-0.5,0.5-0.8,0.9-0.6
		l7.1,4C187.8,142.5,188.1,142.9,188.1,143.4z"/>
		<path d="M177.8,137.8v8.6c0,0.5-0.5,0.8-0.9,0.6l-7.3-4.1c-0.3-0.2-0.5-0.5-0.5-0.8v-8.7c0-0.5,0.5-0.8,0.9-0.6
		l7.1,4C177.5,136.9,177.8,137.3,177.8,137.8z"/>
		<path d="M191.3,160.7v14.8c0,0.8-0.9,1.4-1.6,1l-12.6-7.1c-0.5-0.3-0.8-0.8-0.8-1.4v-15.1c0-0.8,0.9-1.4,1.6-1
		l12.3,7C190.8,159.1,191.3,159.9,191.3,160.7z"/>
	</g>
	<g id="browser">
		<path fill="#141D3F" d="M136.7,168.9h-99c-1.6,0-3-1.3-3-3V87.1c0-1.6,1.4-3,3-3h99c1.7,0,3,1.4,3,3v78.8
			C139.7,167.6,138.4,168.9,136.7,168.9z"/>
		<path fill="#0E1633" d="M136.7,84.1h-99c-1.6,0-3,1.3-3,3V89h105v-1.9C139.7,85.4,138.4,84.1,136.7,84.1z"/>
		<g fill="#141D3F">
			<circle class="st4" cx="129.3" cy="86.5" r="1"/>
			<circle class="st4" cx="132.4" cy="86.5" r="1"/>
			<circle class="st4" cx="135.6" cy="86.5" r="1"/>
		</g>
		<g id="brush" fill="#0E1633">
			<path d="M80.6,119L80.6,119c0.8-0.8,2.2-0.8,3,0l23.5,23.4c0.8,0.8,0.8,2.2,0,3v0c-0.8,0.8-2.2,0.8-3,0L80.6,122
				C79.8,121.2,79.8,119.9,80.6,119z"/>
			<ellipse cx="75.4" cy="113.9" rx="6" ry="6"/>
			<path d="M77.9,108.5c-2.3-1.5-9.1,0.8-10.7-1.3c-1.6-2,1.1,8.9,4.3,11.3C73,119.6,80,109.8,77.9,108.5z"/>
		</g>
	</g>
	<g id="phone" fill="#162147">
		<path d="M223.4,175.6v44c0,0.3-0.4,0.5-0.6,0.4l-15.9-9.2c-0.2-0.1-0.3-0.3-0.3-0.6v-43.9c0-0.3,0.4-0.5,0.6-0.4
			l16,9.2C223.3,175.3,223.4,175.4,223.4,175.6z"/>
		<g fill="#0E1633">
			<path d="M207.2,166l1.6-0.9c0,0-0.3-0.1-0.6-0.1c-0.4,0.1-1.1,0.8-1.4,1c-0.2,0.1-0.2,0.3-0.2,0.3L207.2,166z"/>
			<path d="M225,218.7l-1.6,0.9l-0.6,0.4c0,0,0.2,0.1,0.5,0c0.3-0.2,1.7-0.8,1.7-1C225,218.8,225,218.7,225,218.7z"/>
			<polygon points="221.3,179.8 221.3,213.4 208.7,206.1 208.7,172.6 			"/>
			<polygon points="223.4,219.6 225,218.7 225,175 223.4,175.9 			"/>
			<polygon points="224.4,174.1 222.9,175 207.2,166 208.7,165.1 			"/>
			<path d="M225,175c0,0,0-0.6-0.5-0.9l-1.6,0.9c0,0,0.5,0.3,0.5,0.9L225,175z"/>
		</g>
		<polygon points="219.7,183 219.7,184.9 210.2,179.5 210.2,177.5 		"/>
		<polygon points="219.7,186.7 219.7,196.9 210.2,191.5 210.2,181.2 		"/>
		<polygon points="219.7,199.1 219.7,209.3 210.2,203.9 210.2,193.6 		"/>
	</g>
</g>
</svg>
