<?xml version="1.0" standalone="no"?>
<!DOCTYPE svg PUBLIC "-//W3C//DTD SVG 1.1//EN" "http://www.w3.org/Graphics/SVG/1.1/DTD/svg11.dtd" >
<svg xmlns="http://www.w3.org/2000/svg" xmlns:xlink="http://www.w3.org/1999/xlink" version="1.1">
<metadata>
Created by FontForge 20161003 at Thu Oct  5 17:39:49 2017
 By www-data
Created by Sergey Slyusarev with FontForge 2.0 (http://fontforge.sf.net)
</metadata>
<defs>
<font id="Certege" horiz-adv-x="806" >
  <font-face 
    font-family="Certege"
    font-weight="400"
    font-style="italic"
    font-stretch="normal"
    units-per-em="2048"
    panose-1="2 0 5 3 0 0 0 0 0 0"
    ascent="1631"
    descent="-417"
    x-height="1011"
    cap-height="1352"
    bbox="-166 -566 1695 1631"
    underline-thickness="50"
    underline-position="-200"
    slope="-20.3"
    unicode-range="U+0020-2642"
  />
<missing-glyph horiz-adv-x="748" 
d="M68 0v1365h544v-1365h-544zM136 68h408v1229h-408v-1229z" />
    <glyph glyph-name=".notdef" horiz-adv-x="748" 
d="M68 0v1365h544v-1365h-544zM136 68h408v1229h-408v-1229z" />
    <glyph glyph-name=".null" horiz-adv-x="0" 
 />
    <glyph glyph-name="nonmarkingreturn" horiz-adv-x="682" 
 />
    <glyph glyph-name="space" unicode=" " horiz-adv-x="796" 
 />
    <glyph glyph-name="exclam" unicode="!" horiz-adv-x="442" 
d="M200 172h3q26 0 45.5 -9t29 -24.5t13.5 -31t4 -31.5v-11q-4 -54 -31.5 -79t-85.5 -25q-50 0 -72 29t-22 69q0 56 32 83.5t84 29.5zM703 1216l-86 -227q-23 -64 -142 -360.5t-135 -314.5q-16 -20 -27.5 -25.5t-41.5 -5.5q-31 0 -31 42q0 44 32 123l129 345
q130 345 150 406q4 17 5.5 33t4 27t11.5 31q12 26 40 44t56 18q29 0 46 -22q9 -12 9 -31q0 -12 -3.5 -25.5t-9 -31t-7.5 -26.5z" />
    <glyph glyph-name="quotedbl" unicode="&#x22;" horiz-adv-x="728" 
d="M614 1216l-23 -67v1q-11 -33 -34.5 -73t-42.5 -62q-16 -20 -27.5 -25.5t-40.5 -5.5q-33 0 -33 42t31 119l18 54q4 17 5.5 33t4.5 27t12 31q11 26 39 44t56 18q30 0 46 -22q10 -12 10 -31q0 -15 -10 -46.5t-11 -36.5zM912 1216l-23 -67v1q-11 -33 -34.5 -73t-42.5 -62
q-16 -20 -27.5 -25.5t-40.5 -5.5q-32 0 -32 42q0 44 30 119l18 54q4 17 5.5 33t4.5 27t12 31q11 26 39 44t56 18q30 0 46 -22q10 -12 10 -31q0 -15 -10 -46.5t-11 -36.5zM591 1150l1 3zM889 1150l1 3z" />
    <glyph glyph-name="numbersign" unicode="#" horiz-adv-x="1263" 
d="M766 792l-180 -260h198l183 260h-201zM690 920q255 361 254 363q25 33 51.5 54t45.5 21q71 0 71 -31q0 -11 -5 -26q-8 -25 -11 -31.5t-31 -46.5l-209 -302h203q253 357 253 361q25 32 51.5 53.5t44.5 21.5q41 0 56.5 -8t15.5 -24q0 -10 -5 -26q-9 -25 -12 -31t-31 -46
l-208 -301l96 1q67 0 67 -59q0 -25 -12 -55q-10 -27 -45 -27q-15 0 -39.5 5.5t-30.5 5.5h-126l-179 -260h127q67 0 67 -58q0 -25 -12 -55q-10 -28 -20 -28q-4 0 -14 5.5t-18 6.5l-220 -1l-228 -327q-2 -4 -15 -22.5t-18.5 -23.5t-19 -16t-29 -14.5t-37.5 -3.5h-4
q-43 1 -43 46q0 16 6 35q11 31 217 326h-198l-225 -326q-4 -5 -16.5 -22t-18.5 -23t-19 -16.5t-28.5 -14.5t-36.5 -4h-5q-43 2 -43 46q0 19 5 35q14 34 216 325h-96q-37 0 -60 14.5t-23 57.5v7q2 34 21.5 47t53.5 13q20 0 60.5 -5t56.5 -5h8h70l183 261h-106q-37 0 -60 14.5
t-23 57.5v7q1 34 21 47t54 13q20 0 60.5 -5.5t56.5 -5.5h8h80z" />
    <glyph glyph-name="dollar" unicode="$" horiz-adv-x="889" 
d="M639 561l-153 -415q39 9 72 30.5t58 53.5t42.5 66t33.5 77q11 29 11 54q0 63 -64 134zM580 786l98 268q-31 0 -50.5 -4t-39.5 -15.5t-35.5 -35.5t-29.5 -63q-6 -18 -6 -37q0 -55 63 -113zM117 264q8 35 25 59t43 24q73 0 73 -51q0 -2 -0.5 -6t-0.5 -5q-1 -14 -1 -19
q0 -42 24.5 -70t65.5 -43l186 504q-69 53 -113 121t-44 126q0 23 8 44q24 65 54 111t56.5 70t60.5 37t58 16t57 3q5 0 16 -0.5t16 -0.5q4 0 12.5 0.5t11.5 0.5l7 20q4 17 6 33t4.5 27.5t11.5 31.5q11 26 39.5 43.5t56.5 17.5q29 0 46 -21q8 -12 8 -32q0 -11 -3 -25t-9 -31.5
t-8 -25.5l-23 -63q34 -18 62.5 -49.5t43.5 -58.5t23 -47l8 -20q1 0 1 -18q0 -36 -12 -52q-17 -25 -57 -25q-44 7 -66 65q-13 33 -53 69l-123 -331q34 -31 57.5 -55.5t48 -58t37.5 -70t13 -75.5q0 -43 -15 -87q-15 -42 -28 -73t-32 -66t-40 -60t-50 -50t-63.5 -41.5t-80 -28
t-99.5 -15.5l-8 -22q-8 -22 -15.5 -56t-16.5 -59q-6 -15 -25.5 -22t-36 -8t-44.5 -1q-36 0 -36 39q0 30 25 91l17 47q-78 24 -130.5 81.5t-52.5 125.5q0 15 4 35z" />
    <glyph glyph-name="percent" unicode="%" horiz-adv-x="1514" 
d="M344 1106q10 134 73.5 190t203.5 56q122 0 176 -49.5t54 -153.5q0 -29 -4 -56q-12 -120 -85 -166t-216 -46q-59 0 -100.5 14.5t-63 41.5t-30.5 59.5t-9 75.5q0 22 1 34zM479 1112v-12q0 -43 26.5 -69.5t75.5 -26.5q43 0 71 7.5t41 23.5t18 30.5t7 37.5q0 2 0.5 7t0.5 7
q0 28 -12 51t-29.5 35t-35.5 18.5t-33 6.5q-16 0 -35.5 -6t-40.5 -18.5t-36 -36.5t-18 -55zM786 226q9 134 76.5 193t207.5 59q123 0 179 -52.5t56 -160.5q0 -24 -2 -52q-13 -120 -89.5 -169.5t-219.5 -49.5q-209 0 -209 201q0 20 1 31zM921 232v-11q0 -43 29.5 -71
t79.5 -28q42 0 71.5 8t43.5 23.5t20 31t8 37.5q1 5 1 13q0 38 -22 66.5t-47.5 39.5t-46.5 11q-16 0 -36.5 -7t-42.5 -20t-38.5 -37.5t-19.5 -55.5zM1290 1222l-807 -1151q-4 -6 -16 -22.5t-18.5 -23t-19 -16.5t-28.5 -14t-37 -4h-4q-44 1 -44 46q0 17 6 35q12 33 224 333.5
t417.5 587t205.5 289.5q24 32 51 53.5t45 21.5q40 0 56 -8t16 -24q0 -10 -5 -26q-8 -24 -11.5 -31.5t-30.5 -45.5z" />
    <glyph glyph-name="ampersand" unicode="&#x26;" horiz-adv-x="1194" 
d="M680 862q30 21 58.5 40.5t55.5 39t51 37.5t44.5 35.5t36 33t26.5 31t16 28.5q7 21 7 38q0 36 -28 59.5t-81 23.5q-27 0 -52.5 -6t-52.5 -19.5t-49.5 -41t-36.5 -65.5q-12 -36 -12 -80q0 -21 2.5 -46t7.5 -58t7 -50zM800 152q-91 -74 -187 -113t-210 -39q-115 0 -190 65.5
t-75 180.5q0 66 29 146q16 46 53 94.5t91 97.5t107 91t123 91q-28 133 -28 203q0 66 20 120q32 82 65 132.5t78 80t98 40t133 10.5q103 0 155.5 -46t52.5 -127q0 -44 -14 -90q-10 -34 -38 -72t-61 -70.5t-88.5 -76t-96 -72.5t-108.5 -76q39 -142 136 -350l140 130
q27 28 54 51.5t43 23.5q41 0 56.5 -8t15.5 -23q0 -11 -5 -26q-11 -28 -19 -45t-24 -33l-199 -197l76 -153q1 0 1 -18q0 -36 -12 -53q-18 -25 -57 -25q-13 3 -23.5 9t-17 14.5t-13 19.5t-12.5 23zM579 630q-116 -83 -187.5 -150t-93.5 -127q-15 -39 -15 -77
q0 -65 42.5 -105.5t100.5 -40.5q129 0 309 146q-108 213 -156 354z" />
    <glyph glyph-name="quotesingle" unicode="'" horiz-adv-x="352" 
d="M576 1216l-23 -67l1 1q-12 -33 -35.5 -73t-42.5 -62q-16 -20 -27.5 -25.5t-40.5 -5.5q-32 0 -32 42t30 119l18 54q4 17 5.5 33t4.5 27t12 31q11 26 39 44t56 18q30 0 46 -22q10 -12 10 -31q0 -15 -9.5 -46.5t-11.5 -36.5zM554 1150v3v-3z" />
    <glyph glyph-name="parenleft" unicode="(" horiz-adv-x="717" 
d="M801 1129q-110 -59 -217.5 -180t-166.5 -272q-106 -269 -106 -449q0 -165 83 -271q20 -26 27.5 -36t14 -23.5t6.5 -24.5q0 -10 -3 -19q-12 -27 -34.5 -43.5t-43.5 -16.5q-20 0 -32 13q-83 100 -122.5 194t-39.5 207q0 190 128 534q43 115 108 214t142 171.5t161.5 123.5
t174.5 79q10 4 21 4q23 0 35 -17t12 -41q0 -19 -6 -32q-8 -21 -47.5 -53t-94.5 -62z" />
    <glyph glyph-name="parenright" unicode=")" horiz-adv-x="676" 
d="M504 1124q-43 88 -43 136q0 27 14 44q12 14 31.5 22.5t38.5 8.5q22 0 31 -12q135 -221 135 -481q0 -185 -70 -375q-46 -123 -86.5 -212t-85 -159.5t-88.5 -117.5t-101 -82.5t-118 -58t-143 -41.5q-13 -2 -17 -2q-20 0 -30 12t-10 30q0 46 32.5 74t75.5 40q51 14 98 43
t83.5 62.5t71.5 80.5t59.5 88t50 95t40.5 92t34 88q55 151 55 324q0 182 -58 301z" />
    <glyph glyph-name="asterisk" unicode="*" horiz-adv-x="698" 
d="M729 911l59 -104q15 -25 15 -45q0 -23 -16 -36.5t-38 -15.5h-3q-17 0 -38.5 17t-41.5 45.5t-30 44.5t-20 33l-7 12l-87 -106q-27 -32 -56 -32q-15 0 -28.5 10t-20.5 26q-4 6 -4 17q0 43 67 131l-59 -1q-37 0 -60 14.5t-23 57.5q0 5 1 6q1 62 103 62q23 0 67 -3l-50 89
q-17 29 -17 52q0 35 45 58q11 7 24 7q9 0 17.5 -3.5t16 -9t15 -13.5t14 -18t13 -21t12 -23l11 -24t10.5 -24l10 -24l80 96q32 37 60 37q25 0 53 -24q11 -11 11 -26q0 -40 -77 -133h51q37 0 54.5 -15.5t17.5 -38.5q0 -13 -7 -29q-21 -46 -118 -46h-8h-18z" />
    <glyph glyph-name="plus" unicode="+" horiz-adv-x="1054" 
d="M580 719q57 156 73 204q4 17 5.5 32.5t4.5 27t11 31.5q12 26 40 43.5t56 17.5q31 0 46 -21q10 -13 10 -32q0 -11 -3.5 -24.5t-9.5 -31t-8 -25.5l-81 -222l242 1q68 0 68 -58q0 -25 -12 -56q-11 -27 -46 -27q-15 0 -40 5.5t-30 6.5l-230 -1l-75 -203q-8 -22 -15.5 -56
t-16.5 -60q-6 -14 -26 -21t-36 -8t-44 -1q-36 0 -36 38q0 28 24 92l81 219h-216q-38 0 -60.5 14.5t-22.5 57.5q0 4 1 7q0 34 19.5 47t54.5 13q20 0 61 -5.5t57 -5.5h7z" />
    <glyph glyph-name="comma" unicode="," horiz-adv-x="394" 
d="M117 -44q-25 28 -32 47.5t-7 55.5q0 56 35 87.5t84 31.5h4q47 -1 77 -40.5t32 -76.5v-9q0 -36 -16 -90t-42 -104q-22 -43 -53 -69.5t-55 -34t-46 -7.5q-7 0 -14 2q-8 0 -14.5 7t-6.5 16q0 13 19 24q17 10 36 43.5t19 65.5q0 30 -20 51z" />
    <glyph glyph-name="hyphen" unicode="-" horiz-adv-x="803" 
d="M594 428l-338 -1q-37 0 -59.5 14.5t-22.5 57.5v7q1 34 20.5 47t54.5 13q20 0 60.5 -5.5t56.5 -5.5h8l280 2q35 0 51.5 -15.5t16.5 -42.5q0 -23 -13 -56q-11 -27 -45 -27q-15 0 -40.5 5.5t-29.5 6.5z" />
    <glyph glyph-name="period" unicode="." horiz-adv-x="394" 
d="M200 178h3q27 0 47.5 -10.5t31 -27t15 -33.5t4.5 -34v-8q-9 -111 -123 -111q-51 0 -76 32.5t-25 72.5q0 56 35.5 87t87.5 32z" />
    <glyph glyph-name="slash" unicode="/" horiz-adv-x="698" 
d="M1046 1299l-1012 -1429q-3 -4 -15.5 -21.5t-18 -23t-18.5 -16.5t-29 -14.5t-38 -3.5h-4q-43 1 -43 46q0 16 6 34q12 33 275.5 403.5t520 726t256.5 358.5q25 33 51.5 54.5t44.5 21.5q41 0 56.5 -8.5t15.5 -24.5q0 -9 -5 -25q-8 -24 -11.5 -31.5t-31.5 -46.5z" />
    <glyph glyph-name="zero" unicode="0" horiz-adv-x="750" 
d="M383 651q-72 -193 -103.5 -299t-31.5 -157q0 -35 13.5 -50t41.5 -15q32 0 52.5 5t45.5 24t45.5 51.5t50 93t62 142.5t78.5 205q83 223 117.5 334t34.5 164q0 41 -19.5 57t-61.5 16q-38 0 -66.5 -16.5t-55.5 -56t-54.5 -105t-64.5 -163t-84 -230.5zM238 654
q51 137 88.5 242t72.5 182.5t67.5 130t73.5 84.5t91 45.5t121 13.5q98 0 142 -35.5t44 -115.5q0 -78 -38.5 -208t-122.5 -357q-126 -344 -179 -446q-62 -119 -133 -157q-68 -33 -200 -33q-86 0 -126 32t-40 111q0 72 33.5 194t105.5 317z" />
    <glyph glyph-name="one" unicode="1" horiz-adv-x="484" 
d="M698 1267l-412 -1121q-8 -22 -15.5 -56t-17.5 -60q-5 -14 -25.5 -21t-36.5 -8t-45 -1q-36 0 -36 38q0 26 26 92l359 982q7 14 7 23q0 16 -20 16q-14 0 -33 -6h-29h-32q-38 0 -46 3q-26 8 -26 32q0 14 9.5 25t26.5 14q19 4 55.5 19t75 33.5t78.5 38t67 33.5q16 9 35 9
t31.5 -11t12.5 -33q0 -19 -9 -41z" />
    <glyph glyph-name="two" unicode="2" horiz-adv-x="744" 
d="M724 1222h-4q-128 0 -182 -154q-20 -51 -38.5 -65t-54.5 -14h-18q-43 1 -43 42q0 15 7 38q12 30 21.5 57.5t20 51.5t21.5 45t25 39t31 32t39 25t49.5 18.5t61.5 11t76 3.5q119 0 170.5 -35.5t51.5 -110.5q0 -81 -65 -258q-26 -70 -75.5 -144t-108.5 -138t-125 -127
t-129.5 -119.5t-117.5 -107t-93.5 -98t-53.5 -84.5h401q35 -1 51.5 -16.5t16.5 -42.5q0 -22 -13 -54q-10 -28 -45 -28q-14 0 -39 5.5t-30 5.5h-488q-33 0 -33 28q0 9 4 20l29 82q22 60 67.5 123.5t102 120t121 115t129 117.5t121 116.5t102.5 123t69 127.5q52 141 52 185
q0 33 -19.5 48t-64.5 16z" />
    <glyph glyph-name="three" unicode="3" horiz-adv-x="773" 
d="M243 255q-16 -34 -16 -58q0 -67 109 -67q27 0 52 11t45 27t40 43t34.5 51.5t30.5 61t26 61.5t24 63q30 81 30 134q0 28 -8 49t-23 34t-29 20t-34 13q-53 19 -53 49q0 3 1 10q8 22 38 47t70 50.5t81.5 55t78.5 72.5t55 92q19 54 19 86q0 62 -74 62q-42 0 -78.5 -15.5
t-60 -39t-37.5 -44t-20 -37.5q-19 -52 -37.5 -65.5t-54.5 -13.5h-19q-43 1 -43 42q0 15 8 38q0 1 7.5 21.5t11 29.5t14.5 32.5t20.5 36.5t27 35t35 35t44 29t54.5 25t65.5 15t78.5 6q59 0 100.5 -13t63.5 -36.5t32 -50.5t10 -60q0 -60 -28 -130q-34 -93 -96 -164t-156 -140
q43 -30 65.5 -63.5t22.5 -86.5q0 -59 -30 -141q-86 -226 -136 -306q-67 -109 -166 -142q-58 -19 -140 -19q-221 0 -221 160q0 55 28 134q10 28 28 42t49 16q1 0 2.5 0.5t2.5 0.5q26 0 46.5 -16.5t20.5 -42.5q0 -19 -11 -39z" />
    <glyph glyph-name="four" unicode="4" horiz-adv-x="891" 
d="M680 720q9 24 17 43.5t17 35.5t19.5 27.5t25.5 17.5t35 6q78 0 78 -39q0 -13 -5 -24q-14 -45 -32 -72.5t-23 -38.5l-78 -209h113q88 0 88 -46q0 -9 -5 -23q-8 -22 -39 -37t-57 -19t-45 -4h-2h-100l-76 -208q-4 -9 -13.5 -31t-13.5 -33q-16 -44 -40.5 -55t-86.5 -11h-12
q-22 0 -29 9t-2 24q8 19 22.5 42.5t27.5 54.5q20 51 76 208l-388 -1q-37 0 -37 27q0 7 4 19l31 84q8 21 98 150.5t227 326.5t223 330q20 30 49 52.5t48 22.5q41 0 56 -8t15 -24q0 -9 -4 -26q-12 -29 -13 -30.5t-30 -46.5q-61 -97 -188.5 -270.5t-224.5 -307t-110 -169.5h292
z" />
    <glyph glyph-name="five" unicode="5" horiz-adv-x="745" 
d="M243 255q-18 -37 -18 -72q0 -53 46 -53h17h15q30 0 49.5 4t46 21t49.5 50.5t52.5 94.5t62.5 150q84 226 84 305q0 37 -15 48t-46 11h-2q-24 0 -46 -7.5t-47.5 -21.5t-65.5 -35q-54 -30 -79 -30h-39q-29 0 -29 29q0 12 6 28l195 528q11 30 27 38.5t58 8.5h382q67 0 67 -58
q0 -25 -13 -56q-19 -29 -54 -29q-15 0 -39 6.5t-29 7.5l-285 -1l-121 -332q46 33 81.5 43.5t84.5 10.5h8q91 -1 130 -26t39 -89q0 -52 -25.5 -140t-80.5 -240q-68 -183 -120 -263q-106 -162 -286 -183q-29 -3 -60 -3q-84 0 -123 46t-39 121q0 61 24 127q10 28 28 42t49 16
q1 0 2.5 0.5t2.5 0.5q26 0 46.5 -16.5t20.5 -42.5q0 -19 -11 -39z" />
    <glyph glyph-name="six" unicode="6" horiz-adv-x="763" 
d="M740 1352q57 0 100 -16t67 -42t35.5 -56t11.5 -62q0 -31 -9 -55q-19 -55 -34 -67t-59 -12h-18q-39 0 -39 49q0 6 4 31q5 13 5 27q0 30 -25 51.5t-65 21.5q-16 0 -29.5 -1.5t-25.5 -5.5t-21 -7.5t-18.5 -13t-16 -15.5t-15 -21.5t-13 -25t-13.5 -31.5t-14 -35t-16 -42
q-1 -5 -2 -8l-46 -125q12 5 22 12.5t16 11.5t26.5 7.5t57.5 3.5h38q83 -3 121 -41t38 -114q0 -102 -72 -304q-24 -67 -46 -121t-43.5 -98t-40.5 -77.5t-41 -59.5t-40.5 -44t-42.5 -30.5t-44 -19.5t-49 -11t-53 -5t-60 -1q-84 0 -125 36t-41 116q0 107 73 309l212 571
q13 33 24 63.5t22.5 57.5t24 50.5t27 44t32 37t39.5 29t48.5 21t60 13t72.5 4.5zM331 470q-8 -25 -27 -73t-29.5 -76.5t-19.5 -64t-9 -59.5q0 -67 70 -67q22 0 38 1.5t32 6.5t27.5 10t24.5 17.5t22 23.5t21.5 33t21 40.5t22.5 52t25 61.5t29 75q18 49 36 94.5t31 95t13 82.5
q0 72 -65 72q-33 0 -56 -4.5t-45.5 -18.5t-39.5 -34.5t-37 -59.5t-39 -86.5t-46 -121.5z" />
    <glyph glyph-name="seven" unicode="7" horiz-adv-x="767" 
d="M1005 1352q17 0 25 -15t8 -36q0 -23 -8 -37q-53 -82 -146 -220.5t-153 -230.5t-135.5 -214t-140 -243t-120.5 -246q-8 -23 -16.5 -35t-17.5 -36q-9 -23 -30 -31t-69 -8q-42 0 -42 51q0 22 9 45t22 37q46 103 101 209t100 184.5t114 187t107.5 166t119 176t112.5 166.5
h-291q-12 -25 -17 -32.5t-26 -25.5q-23 -21 -67 -21h-4q-14 0 -25.5 13t-4.5 32l39 108q8 23 29.5 39.5t47.5 16.5h479z" />
    <glyph glyph-name="eight" unicode="8" horiz-adv-x="748" 
d="M571 1100q-20 -55 -20 -99q0 -82 70 -82q90 0 144 153q14 37 14 71q0 36 -17 57.5t-50 21.5q-30 0 -54 -10t-40.5 -29t-26.5 -38t-20 -45zM301 130q47 0 79.5 12.5t61 47.5t52 84.5t55.5 136.5q81 220 81 303q0 39 -16.5 57t-50.5 18q-49 0 -86 -28.5t-80 -107.5
t-97 -226q-22 -61 -32 -89t-21 -70.5t-11 -69.5q0 -68 65 -68zM259 0q-88 0 -128 39t-40 114q0 101 75 305q34 92 67 161.5t58 109.5t52 68t43.5 38.5t37.5 20.5q-26 39 -26 104q0 70 31 150q30 72 68.5 121.5t84 75t89 35.5t95.5 10q61 0 111 -48t50 -133q0 -51 -22 -115
q-64 -178 -165 -222q30 -28 30 -102q0 -114 -75 -321q-32 -85 -56 -140.5t-53.5 -105.5t-59 -78.5t-69.5 -49.5t-87 -29t-111 -8z" />
    <glyph glyph-name="nine" unicode="9" horiz-adv-x="773" 
d="M237 206q0 -31 19 -53.5t57 -22.5q26 0 40 1t32.5 7t29.5 14.5t27 28.5t28 44t30.5 66t37 89.5t44.5 118.5q-17 -4 -25 -10t-12 -10.5t-28.5 -8t-74.5 -3.5q-93 0 -139 31t-46 112q0 92 66 271q39 107 69.5 178t63 126.5t60.5 85.5t67.5 49.5t79.5 25.5t99 6
q104 0 150.5 -29t46.5 -102q0 -92 -86 -326l-193 -522q-73 -198 -104 -253q-44 -75 -109 -99q-57 -21 -189 -21q-85 0 -144 48.5t-59 126.5q0 36 14 74q10 28 28 42.5t49 16.5h6q30 0 48 -21.5t18 -67.5q0 -4 -0.5 -7t-0.5 -6zM472 895q-35 -91 -60 -158.5t-25 -96.5
q0 -27 19 -38.5t62 -11.5q32 0 52 2.5t42.5 12.5t39 29t37 51.5t40.5 79.5t45 116q17 47 31 85.5t25 70t18.5 56.5t11.5 44.5t4 33.5q0 29 -19 40t-63 11h-8q-92 -2 -152 -97q-35 -56 -100 -230z" />
    <glyph glyph-name="colon" unicode=":" horiz-adv-x="394" 
d="M477 943h3q27 0 47 -10.5t30.5 -27t15.5 -33.5t5 -34v-8q-9 -110 -123 -110q-51 0 -76 32.5t-25 71.5q0 57 35.5 87.5t87.5 31.5zM200 178h3q27 0 47.5 -10.5t31 -27t15 -33.5t4.5 -34v-8q-9 -111 -123 -111q-51 0 -76 32.5t-25 72.5q0 56 35.5 87t87.5 32z" />
    <glyph glyph-name="semicolon" unicode=";" horiz-adv-x="394" 
d="M481 943h4q27 0 47.5 -10.5t31 -27t15.5 -33.5t5 -34v-8q-10 -110 -124 -110q-51 0 -76 32.5t-25 71.5q0 57 35.5 87.5t86.5 31.5zM117 -44q-25 28 -32 47.5t-7 55.5q0 56 35 87.5t84 31.5h4q47 -1 77 -40.5t32 -76.5v-9q0 -36 -16 -90t-42 -104q-22 -43 -53 -69.5
t-55 -34t-46 -7.5q-7 0 -14 2q-8 0 -14.5 7t-6.5 16q0 13 19 24q17 10 36 43.5t19 65.5q0 30 -20 51z" />
    <glyph glyph-name="less" unicode="&#x3c;" horiz-adv-x="833" 
d="M271 609l600 342q10 5 18 5q21 0 38 -22t17 -48q0 -32 -28 -46l-497 -292l301 -296q12 -15 12 -33q0 -26 -22 -46.5t-50 -20.5q-25 0 -43 19l-364 363q-23 22 -23 37q0 18 41 38z" />
    <glyph glyph-name="equal" unicode="=" horiz-adv-x="1054" 
d="M926 632l-590 -1q-37 0 -60 15t-23 57q0 5 1 7q0 34 20 47t54 13q20 0 61 -5t57 -5q4 0 7 1l533 1q35 0 51.5 -16t16.5 -43q0 -24 -12 -54q-10 -28 -46 -28q-14 0 -38.5 5.5t-31.5 5.5zM834 391l-592 -1q-37 0 -59.5 15t-22.5 58v7q2 34 21.5 47t53.5 13q20 0 60.5 -5.5
t57.5 -5.5h8l533 2q67 0 67 -58q0 -26 -13 -56q-10 -27 -45 -27q-15 0 -40 5.5t-29 5.5z" />
    <glyph glyph-name="greater" unicode="&#x3e;" horiz-adv-x="870" 
d="M806 526l-649 -368q-7 -4 -16 -4q-20 0 -34 20.5t-14 45.5q0 39 30 54l544 317l-311 275q-11 15 -11 33q0 26 22.5 47t49.5 21q24 0 43 -20l364 -346q22 -22 22 -37q0 -19 -40 -38z" />
    <glyph glyph-name="question" unicode="?" horiz-adv-x="866" 
d="M364 172h3q27 0 46 -9t29 -24.5t14 -31t4 -31.5q0 -3 -0.5 -6.5t-0.5 -4.5q-4 -54 -31.5 -79t-84.5 -25q-51 0 -73 29t-22 69q0 56 32 83.5t84 29.5zM598 531q-15 -41 -52.5 -119.5t-53.5 -97.5q-16 -20 -27.5 -25.5t-40.5 -5.5q-33 0 -33 42q0 44 33 123l22 56
q23 56 43 117q23 56 67.5 111.5t94 100t97.5 86t85.5 83.5t49.5 78q6 14 6 32q0 43 -27 76.5t-78 34.5h-4q-72 0 -113.5 -11t-57 -27.5t-21.5 -43.5q-9 -41 -31.5 -58.5t-75.5 -20.5q-2 -1 -6 -1q-42 0 -42 36q0 14 9 45q38 102 124 156t240 54q58 -1 102.5 -20.5t68.5 -52
t35.5 -67.5t11.5 -73t-11 -70q-24 -59 -67.5 -114.5t-91.5 -101t-96 -91.5t-92 -105.5t-68 -125.5z" />
    <glyph glyph-name="at" unicode="@" horiz-adv-x="1220" 
d="M791 604q59 156 59 262q0 82 -37 82h-1q-47 -1 -90.5 -64.5t-97.5 -210.5q-70 -189 -70 -275q0 -56 31 -56h5q23 0 43 6t35 15.5t28.5 26t22.5 32t19.5 40.5t17 43.5t17 48.5t18.5 50zM635 70q27 0 45 -21t18 -52q0 -20 -9 -40q-10 -28 -38 -28q-11 0 -37 5.5t-39 5.5
q-92 1 -164 22.5t-126 65.5t-82.5 116t-28.5 169q0 165 87 402q49 134 97.5 233.5t101 170t105 116t117 71.5t130 36t150.5 10q176 0 261.5 -79.5t85.5 -217.5q0 -152 -90 -394q-45 -120 -78.5 -199.5t-66 -140t-63.5 -93t-64 -48t-73 -15.5h-7q-19 0 -34.5 5.5t-24.5 11.5
t-17.5 19.5t-12 20.5t-10 24.5t-8.5 22.5q-41 -17 -68 -29t-63 -19t-86 -9h-5q-59 0 -88.5 43.5t-29.5 123.5q0 122 64 308q70 201 163.5 299t189.5 98h1q33 0 56 -8t32.5 -22t12.5 -24.5t3 -21.5l-1 -11q24 63 81 63q75 0 75 -38q0 -10 -5 -24q-11 -36 -16 -49t-12 -24.5
t-13 -25.5l-170 -471q-12 -32 -12 -61q0 -37 23 -37q31 0 62.5 49.5t60 126.5t65.5 171q92 239 92 351q0 94 -57.5 144t-190.5 50h-1q-183 0 -301 -116.5t-215 -387.5q-87 -243 -87 -384q0 -131 75 -197.5t240 -66.5z" />
    <glyph glyph-name="A" unicode="A" horiz-adv-x="1035" 
d="M461 467l-250 -389q-3 -6 -10.5 -16.5t-22 -26t-38 -26t-49.5 -10.5h-3q-47 0 -47 45q0 4 4 26l793 1240q14 23 29 32.5t36 9.5h74q34 0 34 -38v-11l-105 -1205q-1 -16 1 -30.5t1 -26.5q-3 -20 -21 -30.5t-39 -10.5q-84 0 -84 85q0 7 1 10l30 373zM857 1097l-326 -519
l271 1z" />
    <glyph glyph-name="B" unicode="B" horiz-adv-x="830" 
d="M502 907q14 0 35 -0.5t50 -0.5q82 0 129 41.5t76 118.5q14 37 14 69q0 87 -114 87q-71 0 -71 1h-2zM294 337q-50 -139 -50 -172q0 -22 13.5 -29t44.5 -7q9 0 31.5 0.5t36.5 0.5q32 0 55.5 5t55.5 23.5t59.5 52t60.5 94.5t65 147q40 111 40 184q0 36 -10 62.5t-25.5 41.5
t-37.5 23.5t-41.5 11t-42.5 2.5h-95zM150 0q-44 0 -70 16.5t-26 49.5q0 18 8 42l437 1185q22 59 114 59h123q100 0 156.5 -62t56.5 -149q0 -37 -12 -75q-74 -217 -197 -237q18 -8 38 -22.5t36.5 -30.5t27 -46.5t10.5 -71.5q0 -91 -55 -244q-26 -72 -50 -127.5t-49 -98.5
t-47.5 -73.5t-50.5 -51.5t-53 -33t-60 -19t-66 -9t-76 -2h-195z" />
    <glyph glyph-name="C" unicode="C" horiz-adv-x="834" 
d="M882 1119q8 22 8 37q0 66 -100 66h-30q-22 0 -36.5 -2.5t-35 -13.5t-38 -31t-41.5 -56t-49 -89t-56.5 -130t-68.5 -177q-85 -229 -120.5 -344t-35.5 -174q0 -39 16.5 -57t51.5 -18h18h18q32 0 53.5 3t47.5 13t45.5 33.5t32.5 60.5q24 62 24.5 62t-3 -11t-2.5 -11t1 2
q7 15 7.5 28t2.5 21q13 34 28.5 45t49.5 13h4q27 0 46 -16t19 -44q0 -16 -8 -37l-2 -6l1 7l1 6q-3 0 -27 -68q-15 -42 -32 -72t-46.5 -62t-68 -52t-97.5 -32.5t-135 -12.5q-97 0 -142 40.5t-45 128.5q0 83 37.5 216.5t115.5 343.5q32 87 54.5 145.5t48 120.5t44 100.5t42 79
t43 63.5t44.5 45.5t49 33.5t56 20.5t65 12t75 2.5q126 0 179.5 -41t53.5 -108q0 -38 -16 -85q-16 -43 -38 -61.5t-73 -18.5q-39 0 -39 49q0 19 3 32z" />
    <glyph glyph-name="D" unicode="D" horiz-adv-x="834" 
d="M487 1259q9 38 36.5 65.5t54.5 27.5h189q127 0 184 -43.5t57 -142.5q0 -77 -32 -195t-98 -302q-52 -146 -95 -250t-83.5 -179.5t-75.5 -121t-76 -72.5t-80.5 -36t-91.5 -9q-50 0 -151 -0.5t-141 -0.5q-19 0 -31.5 14.5t-12.5 29.5q0 4 1 9zM218 137q-1 -2 32 -4.5
t73 -2.5q36 0 53 1h1q40 0 76 22.5t68.5 62.5t68 109.5t68.5 149.5t76 197q115 315 115 434q0 60 -25 88t-77 28h-5q-6 0 -18 -1q-33 -1 -46 -1.5t-31.5 -5.5t-24.5 -11t-17.5 -23.5t-18 -35.5t-18.5 -55z" />
    <glyph glyph-name="E" unicode="E" horiz-adv-x="820" 
d="M215 130q0 2 428 2q30 0 46 -17.5t16 -43.5q0 -28 -18.5 -49.5t-49.5 -21.5h-1h-538q-57 0 -57 40q0 14 7 30l458 1242q15 40 68 40h459q68 0 68 -58q0 -25 -12 -56q-11 -27 -46 -27q-15 0 -40 5.5t-30 6.5l-355 -1l-163 -444h281h1q30 0 46 -17.5t16 -42.5
q0 -27 -18.5 -49t-49.5 -22h-2h-324z" />
    <glyph glyph-name="F" unicode="F" horiz-adv-x="820" 
d="M218 146q-11 -32 -17.5 -49.5t-16 -37t-18 -28.5t-21 -17.5t-28.5 -11t-38 -2.5q-36 0 -36 38q0 29 25 92l438 1182q15 40 68 40h459q71 0 71 -43q0 -19 -11 -45q-15 -42 -92 -42q-21 0 -28 1l-355 -1l-163 -444h281h1q30 0 46 -17.5t16 -42.5q0 -27 -18.5 -49t-49.5 -22
h-2h-324z" />
    <glyph glyph-name="G" unicode="G" horiz-adv-x="859" 
d="M739 596q9 -4 25 -6t27 -7t18 -17q20 -30 20 -58q0 -15 -6.5 -38.5t-13 -41.5t-25.5 -67q-32 -83 -57 -137t-55.5 -96.5t-58.5 -65.5t-71 -38t-88.5 -19.5t-115.5 -4.5q-100 0 -146.5 43t-46.5 136q0 84 36 216.5t110 333.5q39 106 67.5 178t59.5 140.5t55.5 110.5
t55 79.5t59 57t66.5 34t78 19t93 4.5q130 0 186.5 -43.5t56.5 -113.5q0 -39 -15 -77q-14 -43 -36.5 -61.5t-73.5 -18.5q-40 0 -40 49q0 16 5 32q5 15 5 30q0 32 -26.5 52.5t-83.5 20.5h-31q-22 0 -37.5 -2.5t-37 -13.5t-40 -31t-43.5 -56.5t-51 -89t-58.5 -129.5t-69.5 -177
q-77 -207 -112.5 -326.5t-35.5 -182.5q0 -44 18 -64t56 -20q7 0 23 -0.5t24 -0.5q25 0 44 3.5t44.5 18t48.5 39.5t50 70.5t54 109.5q12 30 12 53q0 22 -11 33t-29 11q-2 0 -16 -2t-24 -2q-48 0 -48 53q2 49 28 65t75 16q12 0 36.5 -1t37.5 -1q19 0 29 1z" />
    <glyph glyph-name="H" unicode="H" horiz-adv-x="887" 
d="M1108 1240l-406 -1111q-25 -58 -28 -65q-7 -19 -16 -31.5t-17.5 -19.5t-27 -10t-32 -3.5t-45.5 -0.5q-42 0 -30 33q8 20 22.5 43t26.5 54q20 49 104.5 283t84.5 235h-338l-209 -568q-22 -56 -36 -67.5t-60 -11.5h-15q-49 0 -49 31q0 7 2 15t6 20t5 14l206 552
q205 551 225 612q27 73 45 91.5t69 18.5q46 0 46 -45q0 -23 -14 -65l-174 -466h339q21 57 54.5 151t59 162.5t57.5 148.5q12 30 20.5 54.5t28 40t51.5 15.5q59 0 59 -47q0 -27 -14 -63z" />
    <glyph glyph-name="I" unicode="I" horiz-adv-x="442" 
d="M617 1214l-397 -1069q-8 -23 -15 -57t-16 -59q-6 -14 -26 -21t-36 -8t-45 -1q-36 0 -36 38q0 31 25 92l187 503q187 503 207 564q3 17 5 32.5t4.5 27t12.5 31.5q11 26 39 44t56 18q31 0 46 -22q9 -13 9 -31q0 -15 -9.5 -47t-10.5 -35z" />
    <glyph glyph-name="J" unicode="J" horiz-adv-x="861" 
d="M1019 1222l-355 -963q-10 -27 -16.5 -43t-18 -41t-21.5 -40.5t-26.5 -36t-34 -33t-41.5 -26.5t-51.5 -21.5t-63 -12.5t-75.5 -5h-1q-59 0 -104 17t-69 45t-36 58t-12 60q0 24 6 40q4 13 9.5 25t11.5 22t16.5 16t25.5 6h2q21 -1 35.5 -14.5t14.5 -37.5q0 -36 6 -57
t22.5 -32t38 -14.5t59.5 -3.5q76 0 116.5 35t69.5 113l340 926q4 17 5.5 32.5t4.5 27t12 31.5q11 26 39 44t57 18q30 0 45 -22q9 -13 9 -30q0 -16 -9.5 -48.5t-10.5 -34.5z" />
    <glyph glyph-name="K" unicode="K" horiz-adv-x="803" 
d="M605 367q-8 71 -19 133.5t-18.5 98t-28.5 130.5l-124 -56l-197 -527q-8 -22 -15.5 -56t-17.5 -60q-5 -14 -25 -21t-36 -8t-45 -1q-36 0 -36 38q0 29 25 92l412 1112q28 73 46 91.5t68 18.5q46 0 46 -45q0 -27 -14 -65l-152 -411q131 65 244 172t196 239q18 28 26.5 40.5
t25 32.5t31.5 28.5t32 8.5q60 0 60 -47q0 -24 -15 -63q-6 -15 -22 -39l-16 -24q-51 -77 -169 -203t-197 -181l14 -69q14 -69 32 -175t25 -182q8 -79 11 -120.5t3.5 -73.5t1.5 -84q1 0 1 -18q0 -36 -11 -52q-18 -25 -58 -25q-47 7 -65 65l-4 106q-5 107 -15 200z" />
    <glyph glyph-name="L" unicode="L" horiz-adv-x="820" 
d="M615 1214l-400 -1084h428q30 0 46 -17t16 -42q0 -28 -18 -49.5t-50 -21.5h-1h-538q-57 0 -57 40q0 14 7 30l415 1126q5 20 6 42.5t11 48.5q9 26 38 44.5t59 18.5q33 0 49 -23q10 -13 10 -31q0 -15 -10 -47t-11 -35z" />
    <glyph glyph-name="M" unicode="M" horiz-adv-x="1136" 
d="M569 1089l-350 -943q-8 -22 -15.5 -56t-16.5 -60q-5 -14 -25 -21t-36 -8t-45 -1q-36 0 -36 38q0 31 26 92l421 1145q16 43 43.5 63.5t56.5 20.5q19 0 33.5 -8t18.5 -21l101 -538l503 535q43 33 89 33q42 0 42 -33q0 -13 -4 -25l-425 -1156q-7 -22 -14.5 -56t-17.5 -60
q-5 -14 -25 -21t-36.5 -8t-44.5 -1q-36 0 -36 38q0 31 25 92l328 894l-396 -415q-17 -11 -39 -11q-35 0 -42 20z" />
    <glyph glyph-name="N" unicode="N" horiz-adv-x="864" 
d="M1067 1179l-419 -1133q-19 -26 -30.5 -35.5t-26.5 -9.5h-59q-18 0 -25 10.5t-8 36.5l27 925l-307 -827q-8 -22 -15.5 -56t-16.5 -60q-5 -14 -25 -21t-36 -8t-45 -1q-36 0 -36 38q0 31 26 92l421 1145q16 43 43.5 63.5t56.5 20.5q19 0 33.5 -8t18.5 -21l-12 -961l303 853
q10 23 18 43t17 36t19.5 27.5t26 17.5t35.5 6q40 0 58.5 -9.5t18.5 -30.5q0 -8 -4 -22q-11 -35 -20 -52.5t-19 -30.5t-18 -28z" />
    <glyph glyph-name="O" unicode="O" horiz-adv-x="840" 
d="M778 1222q-61 0 -113.5 -50t-108.5 -161.5t-129 -308.5q-69 -186 -102 -302t-33 -181q0 -89 68 -89q38 0 73 17.5t68.5 55.5t63 84.5t63 118.5t62.5 143t66 171q106 281 106 397q0 105 -84 105zM279 698q121 328 174 431q69 134 150 181q74 42 210 42q51 0 86.5 -7.5
t64 -26t42.5 -53t14 -86.5q0 -145 -120 -471q-34 -92 -58.5 -155.5t-52 -131t-49 -112t-47 -90.5t-48 -74t-50 -55.5t-54.5 -42t-60.5 -26.5t-69 -16.5t-79.5 -4.5q-102 0 -149 38t-47 128q0 78 35 205.5t108 326.5z" />
    <glyph glyph-name="P" unicode="P" horiz-adv-x="834" 
d="M304 369l-86 -223q-8 -22 -15.5 -56t-17.5 -60q-5 -14 -25 -21t-36 -8t-45 -1q-36 0 -36 38q0 29 25 92l428 1155q16 67 82 67h240q110 0 161 -34t51 -124q0 -115 -93 -366q-27 -72 -49.5 -129t-44.5 -104t-40 -82t-38.5 -62.5t-37 -46t-39 -31.5t-40 -20t-44.5 -10.5
t-48.5 -4.5t-56.5 -1q-111 0 -140 4.5t-55 27.5zM468 815q-46 -125 -65 -185t-19 -95q0 -39 26.5 -53.5t88.5 -14.5q70 0 99 15q56 28 115 154q34 73 79 195q85 231 85 311q0 15 -2 26.5t-8 19.5t-10.5 13.5t-16 9.5t-19 6t-24 3t-25.5 1t-30 1h-23q-58 0 -82 -19
q-32 -26 -77 -140q-11 -28 -92 -248z" />
    <glyph glyph-name="Q" unicode="Q" horiz-adv-x="840" 
d="M279 698q121 328 174 431q69 134 150 181q74 42 210 42q51 0 86.5 -7.5t64 -26t42.5 -53t14 -86.5q0 -145 -120 -471q-87 -237 -143.5 -364.5t-113.5 -202.5q63 -74 75 -91q7 -14 7 -25q0 -20 -18 -45t-57 -25q-47 7 -66 64q-6 12 -29 37q-83 -56 -223 -56
q-102 0 -149 38t-47 128q0 78 35 205.5t108 326.5zM778 1222q-61 0 -113.5 -50t-108.5 -161.5t-129 -308.5q-69 -186 -102 -302t-33 -181q0 -89 68 -89q50 0 97 33q-71 79 -73 102q-2 12 -2 22q0 61 70 61q32 0 49.5 -12.5t26.5 -49.5q2 -6 17 -29q48 72 97.5 182.5
t113.5 280.5q106 280 106 397q0 105 -84 105z" />
    <glyph glyph-name="R" unicode="R" horiz-adv-x="834" 
d="M528 130q17 100 17 201q0 47 -1 77t-4.5 70.5t-12.5 62t-23 21.5q-79 5 -128 14l-158 -430q-9 -23 -16 -57t-17 -59q-5 -14 -25 -21t-36 -8t-45 -1q-36 0 -36 38q0 29 25 92l428 1155q9 35 37.5 51t61.5 16h223q110 0 160 -37.5t50 -124.5q0 -51 -13 -108.5t-45 -155.5
q-33 -98 -70.5 -169.5t-74.5 -110t-70.5 -56.5t-68.5 -20h-6q8 -38 8 -116v-44.5v-45.5v-27.5v-27.5q0 -100 -11 -163q-3 -14 -5 -29t-3 -21.5t-4.5 -19.5t-9.5 -30q-5 -16 -16.5 -26.5t-30 -14t-30.5 -4.5t-33 -1q-28 0 -28 41q0 31 11 89zM508 933l-85 -229l4.5 -0.5
t13 -1.5t19 -2t25 -2.5t29.5 -2.5t33 -1.5t35 -0.5h11q24 0 36.5 0.5t30.5 3.5t29 9.5t26 18t26 28.5t25 42t28.5 58t30.5 77q26 79 35 120.5t9 76.5q0 55 -29.5 75t-97.5 20h-45q-17 0 -27.5 -0.5t-22.5 -5t-18 -7t-16 -16t-14.5 -22t-15 -34.5t-17 -44t-21.5 -59
q-23 -63 -37 -101z" />
    <glyph glyph-name="S" unicode="S" horiz-adv-x="838" 
d="M104 219q30 82 76 82q31 0 55 -10t24 -34q0 -9 -3 -18q-5 -11 -5 -24q0 -28 26.5 -48t60 -28.5t67.5 -8.5q36 0 65 9t49 24.5t37 37t28.5 47.5t23.5 55t22 59q15 41 15 85q0 54 -23 116.5t-56.5 119.5t-67 113.5t-56.5 119t-23 116.5q0 44 15 84q23 64 49 108t50 69.5
t55.5 39t59 17t68.5 3.5q12 0 40 -0.5t43 -0.5q43 0 78 -14.5t55.5 -37t35 -48.5t20.5 -48t8 -37l3 -15q1 0 1 -18q0 -36 -12 -52q-17 -24 -57 -24q-45 6 -66 64q-12 30 -19 52.5t-29 35t-65 12.5h-14q-30 0 -45.5 -1.5t-35 -7t-31.5 -18.5t-25.5 -35t-25.5 -56
q-10 -27 -10 -53q0 -44 23 -100t55.5 -112.5t65 -116t55 -130t22.5 -135.5q0 -61 -20 -120q-47 -134 -76 -182q-63 -107 -188 -138q-66 -17 -155 -17q-99 0 -173.5 60.5t-74.5 128.5q0 15 5 30z" />
    <glyph glyph-name="T" unicode="T" horiz-adv-x="890" 
d="M1085 1223l-211 -1l-402 -1092q-4 -13 -13.5 -33.5t-13.5 -30.5q-7 -20 -14.5 -32t-15 -19.5t-23.5 -10.5t-29 -3.5t-44 -0.5q-21 0 -32 12t-11 29q0 11 7 20.5t19.5 27t22.5 41.5q14 35 75 199t170 461.5t158 431.5h-323q-36 0 -59 14.5t-23 57.5v7q2 34 21.5 47
t53.5 13q20 0 60.5 -5.5t57.5 -5.5h8l621 2q35 0 51.5 -15.5t16.5 -42.5q0 -25 -12 -56q-11 -27 -46 -27q-15 0 -40 5.5t-30 6.5z" />
    <glyph glyph-name="U" unicode="U" horiz-adv-x="840" 
d="M615 1214l-188 -512q-54 -146 -78.5 -216t-45 -147t-20.5 -120t20.5 -66t56.5 -23q38 0 73 17.5t68.5 55.5t63 84.5t63 118.5t62.5 143t66 171q59 157 86.5 233.5t48 138.5t44.5 130q10 23 18 43t17 36t19.5 27.5t26 17.5t35.5 6q40 0 58.5 -9.5t18.5 -30.5q0 -8 -4 -22
q-11 -34 -19.5 -51.5t-18 -30t-16.5 -25.5q5 0 -170 -475q-34 -92 -58.5 -155.5t-52 -131t-49 -112t-47 -90.5t-48 -74t-50 -55.5t-54.5 -42t-60.5 -26.5t-69 -16.5t-79.5 -4.5q-102 0 -149 38t-47 128q0 78 35 205.5t108 326.5l82 219q82 218 102 279q4 18 5.5 34t4 27.5
t12.5 29.5q13 26 41.5 44t55.5 18q29 0 44 -22q10 -13 10 -31q0 -15 -10 -47t-11 -35z" />
    <glyph glyph-name="V" unicode="V" horiz-adv-x="811" 
d="M341 0q-41 0 -41 38l-51 1232q0 48 18 65.5t51 17.5q35 0 55.5 -12.5t20.5 -50.5l34 -1048l592 1037q19 33 47.5 54t49.5 21q71 0 71 -32q0 -9 -4 -25q-6 -15 -9 -21t-5 -9t-10 -15.5t-19 -33.5l-673 -1173q-18 -25 -30 -34.5t-26 -9.5z" />
    <glyph glyph-name="W" unicode="W" horiz-adv-x="1323" 
d="M1527 1282q18 33 47 54t49 21q40 0 56 -8t16 -24q0 -10 -5 -26q-7 -15 -9.5 -20.5t-4.5 -8.5t-9.5 -15.5l-19.5 -32.5l-663 -1178q-18 -25 -30 -34.5t-27 -9.5h-65q-19 0 -26.5 10.5t-7.5 37.5l-13 710l-409 -717q-15 -26 -29 -33.5t-34 -7.5h-7h-51q-42 0 -42 38l6 1232
q1 49 16 66t47 17q34 0 53.5 -12.5t19.5 -50.5l-6 -1032l413 719q20 34 58 34h56q19 0 28.5 -12.5t9.5 -28.5l12 -709z" />
    <glyph glyph-name="X" unicode="X" horiz-adv-x="971" 
d="M971 1282q26 33 52.5 54t44.5 21q41 0 56.5 -8t15.5 -24q0 -10 -6 -26q-8 -25 -11 -31.5t-31 -45.5q-185 -263 -391 -524l56 -602q1 0 1 -18q0 -36 -11 -52q-18 -25 -58 -25q-27 4 -45.5 23t-19.5 42l-48 473l-364 -461q-7 -7 -17.5 -21.5t-18 -22.5t-19.5 -17.5
t-27.5 -13.5t-36.5 -4h-5q-43 0 -43 46q0 18 5 34l505 660l-53 530q0 2 -0.5 6.5t-0.5 7.5q0 69 68 69q35 0 54.5 -12.5t21.5 -49.5l36 -387z" />
    <glyph glyph-name="Y" unicode="Y" horiz-adv-x="777" 
d="M483 702l-107 565q-4 12 -4 26q0 30 22 43.5t50 13.5q30 0 46 -12.5t31 -50.5l76 -442l363 434q12 11 36 34t37 32t24 9q40 0 55.5 -8t15.5 -24q0 -9 -5 -25q-5 -12 -6.5 -21.5t-2.5 -13t-8 -13.5t-25 -30l-454 -524l-207 -549q-9 -23 -16 -57t-16 -59q-5 -14 -25.5 -21
t-36.5 -8t-45 -1q-36 0 -36 38q0 31 26 92l96 255q96 255 116 317z" />
    <glyph glyph-name="Z" unicode="Z" horiz-adv-x="841" 
d="M1105 1285q-9 -25 -122.5 -179.5t-226 -302.5t-296.5 -387.5t-218 -285.5h378q68 0 68 -58q0 -25 -13 -55q-10 -28 -45 -28q-15 0 -40 6t-30 6l-486 -1q-39 0 -39 27q0 9 4 19q8 21 80 122t174 237t221 293t222 291.5t177 232.5h-329q-37 0 -60 15t-23 58q0 4 1 7
q0 34 19.5 47t54.5 13q20 0 61 -5t57 -5h7h385q26 0 26 -32q0 -16 -7 -35z" />
    <glyph glyph-name="bracketleft" unicode="[" horiz-adv-x="590" 
d="M307 -69h1q19 0 31.5 -21.5t12.5 -48.5q0 -26 -13 -44t-39 -18h-290q-20 0 -32 14t-12 30q0 4 1 9l535 1449q9 37 37 65t55 28h228q67 0 67 -59q0 -24 -13 -54q-10 -29 -39 -29q-12 0 -37.5 6t-37.5 6q-39 2 -50 2q-20 0 -33.5 -1.5t-25.5 -9t-18.5 -14t-16.5 -26
t-15.5 -34.5t-18.5 -51l-378 -1024q-20 -51 -33 -88.5t-13 -53.5q0 -20 18.5 -27.5t67.5 -7.5q13 0 61 2z" />
    <glyph glyph-name="backslash" unicode="\" horiz-adv-x="1058" 
d="M504 1468v14q0 41 19.5 57t52.5 16q35 0 54 -13t20 -53l199 -1609q1 0 1 -19q0 -37 -12 -55q-19 -26 -60 -26q-29 5 -48 24.5t-22 44.5z" />
    <glyph glyph-name="bracketright" unicode="]" horiz-adv-x="659" 
d="M626 1260q-37 1 -60 16.5t-23 58.5q0 4 1 7q1 60 77 60q22 0 65 -5.5t57 -5.5l96 -1q26 -1 42 -15t16 -39q0 -10 -4 -26l-527 -1432q-20 -50 -35.5 -62.5t-52.5 -12.5h-29l-168 1q-3 0 -11 -0.5t-14 -0.5q-57 0 -57 53q0 46 30 62.5t84 16.5q13 0 37.5 -1t34.5 -1h14
q15 1 38 1l491 1326h-102z" />
    <glyph glyph-name="asciicircum" unicode="^" horiz-adv-x="815" 
d="M822 1231l76 -441q1 0 1 -18q0 -35 -12 -52q-10 -14 -23 -19.5t-34 -5.5q-42 7 -62 65l-60 333l-283 -322q-3 -7 -8.5 -17t-17.5 -26t-33 -26.5t-47 -10.5h-3q-43 1 -43 47q0 18 6 34l396 481q11 11 32.5 20t44.5 9q54 0 70 -51z" />
    <glyph glyph-name="underscore" unicode="_" horiz-adv-x="803" 
d="M461 0l-338 -1q-37 0 -59.5 15t-22.5 57v7q1 34 20.5 47t53.5 13q21 0 62 -5t57 -5q1 0 3.5 0.5t3.5 0.5l281 1q67 0 67 -59q0 -24 -13 -54q-10 -28 -44 -28q-15 0 -40 5.5t-31 5.5z" />
    <glyph glyph-name="grave" unicode="`" 
d="M689 1092q-7 -2 -9 -2q-20 0 -36 22t-20 44l-82 238q-1 5 -1 14q0 68 69 68q34 0 52 -12t20 -49l39 -229v-12q0 -72 -32 -82z" />
    <glyph glyph-name="a" unicode="a" 
d="M864 837l-230 -622q-6 -17 -6 -39q0 -35 18.5 -60t55.5 -25q10 0 15.5 -9.5t5.5 -23.5q0 -22 -14.5 -40t-41.5 -18q-64 0 -104 26t-59 82q-72 -106 -246 -108q-42 0 -70 5t-51 18.5t-34 40t-11 67.5q0 125 123 460q25 68 51 124t49.5 97t49.5 73t46.5 53t46.5 35.5
t43.5 21.5t42.5 11t38.5 4.5t37.5 0.5h4q42 0 71 -7.5t41 -19.5t16 -21.5t4 -19.5l-1 -8q10 28 34 52t58 24q78 0 78 -40q0 -9 -5 -23q-15 -46 -33.5 -74t-22.5 -37zM598 509q45 122 65 188t20 108q0 39 -20 57.5t-65 18.5q-27 0 -46.5 -5.5t-44 -23.5t-47 -50.5
t-49.5 -88.5t-56 -135q-107 -293 -107 -383q0 -35 13 -50t40 -15q39 0 76 22.5t66.5 57.5t59 87t51 101.5t44.5 110.5z" />
    <glyph glyph-name="b" unicode="b" horiz-adv-x="776" 
d="M465 1201q1 5 1 12q0 10 -6.5 18.5t-14.5 14.5t-15 18.5t-7 29.5q0 26 42 43.5t91 17.5q56 0 72 -22q9 -14 9 -32q0 -12 -3 -25.5t-9 -31t-8 -26.5l-92 -248q71 41 135 41q91 0 136.5 -33t45.5 -121q0 -117 -87 -355q-29 -77 -50 -132.5t-43 -106.5t-37.5 -84.5
t-35 -63.5t-33 -47t-34.5 -31.5t-36.5 -20.5t-42 -10.5t-47 -5t-55.5 -0.5q-32 0 -57.5 4t-41 10.5t-27.5 13.5t-17 13t-7.5 10.5l-2.5 4.5q-1 0 -2.5 -6t-8 -14t-18.5 -16.5t-36.5 -14t-59.5 -5.5q-37 0 -37 41q0 13 16 36t28 53q30 84 132.5 358.5t175.5 471.5t87 241z
M354 506q-83 -224 -83 -298q0 -44 24 -61t74 -17q58 0 95 39.5t66 120t75 203.5q32 88 45 124.5t28.5 94.5t15.5 92q0 77 -69 77q-43 0 -74.5 -13.5t-55.5 -41.5t-44.5 -72.5t-43.5 -106t-53 -141.5z" />
    <glyph glyph-name="c" unicode="c" horiz-adv-x="745" 
d="M615 196q-17 -47 -31.5 -74.5t-39 -54t-58.5 -39.5t-85.5 -20.5t-124.5 -7.5q-91 0 -135 33.5t-44 118.5q0 122 104 402q23 59 42.5 112t40 99.5t42.5 84.5t49 68t59.5 50.5t75 31.5t94.5 11q118 0 181 -42.5t63 -110.5q0 -30 -11 -59q-22 -56 -36.5 -67.5t-59.5 -11.5
h-16q-22 0 -32 13.5t-10 32.5q0 20 7 34q10 28 10 37q0 44 -96 44q-60 0 -98 -20t-62 -61t-47 -104.5t-54 -151.5q-40 -101 -72.5 -197t-32.5 -143q0 -37 17.5 -55.5t58.5 -18.5q67 0 105 15.5t47 41.5q7 15 7.5 28t3.5 20q13 35 28 45.5t49 13.5h5q26 0 44.5 -16t18.5 -44
q0 -19 -7 -38z" />
    <glyph glyph-name="d" unicode="d" horiz-adv-x="798" 
d="M990 1218l-364 -994q-13 -38 -13 -60q0 -34 29 -64q20 -21 20 -49q0 -22 -14.5 -36.5t-43.5 -14.5q-37 0 -59.5 16t-52.5 66q-45 -49 -96.5 -65t-150.5 -17q-82 0 -120 24.5t-38 97.5q0 123 128 469q25 68 51 124t48.5 97t47.5 73t44.5 52.5t44.5 35.5t41.5 22t40.5 11
t37.5 4.5t36.5 0.5h5q42 0 70.5 -7.5t40.5 -19.5t16 -21.5t4 -19.5l-1 -8q69 184 96 266q5 19 5 30q0 5 -4.5 27t-4.5 36q0 26 33.5 43t72.5 17q46 0 60 -22q10 -13 10 -32q0 -15 -9.5 -47t-10.5 -35zM585 509q31 85 46 128t27.5 91t12.5 77q0 39 -20.5 57.5t-65.5 18.5
q-26 0 -44.5 -6t-41 -23.5t-43.5 -50.5t-46 -88t-55 -135q-62 -168 -89 -258t-27 -134q0 -56 48 -56h1q39 0 76 22.5t66.5 57.5t59 87t51.5 101.5t44 110.5z" />
    <glyph glyph-name="e" unicode="e" horiz-adv-x="755" 
d="M367 609l109 -3h3q38 0 69.5 8t52 22t38 32.5t27.5 39l20 41t16 38.5q7 18 7 32q0 62 -115 62q-68 0 -122 -69t-105 -203zM799 656q-16 -43 -68.5 -95t-102.5 -68q-43 -13 -169 -13l-138 3q-22 -62 -33.5 -95.5t-24 -88t-12.5 -94.5q0 -75 51 -75q46 0 78.5 5t50.5 11
t30.5 19t16.5 22t11 28q13 34 41 54.5t60 20.5h1q19 0 35.5 -14.5t16.5 -32.5q0 -3 -1 -10q-9 -23 -16 -39.5t-22 -42t-32 -44.5t-45 -40.5t-60.5 -35t-78 -22.5t-99.5 -9q-180 0 -180 184q0 121 84 347q29 78 50 130.5t45 105t43.5 85t45 62.5t50 46.5t56.5 29t67.5 17
t81.5 4.5q59 0 101.5 -14.5t64.5 -41t31.5 -56.5t9.5 -66q0 -35 -13 -87.5t-27 -89.5z" />
    <glyph glyph-name="f" unicode="f" horiz-adv-x="659" 
d="M613 1285q30 28 86.5 49t109.5 21q50 0 87.5 -13.5t57.5 -30.5t34 -43.5t17.5 -42.5t7.5 -39q1 -6 1 -16q0 -30 -19.5 -40.5t-57.5 -10.5h-23q-41 2 -48 68q-9 26 -20 30.5t-59 6.5q-103 -3 -190 -231h121q35 1 51.5 -15t16.5 -44q0 -23 -13 -54q-10 -29 -45 -29
q-14 0 -39 6t-31 6h-109l-268 -717q-8 -22 -12.5 -56.5t-13.5 -59.5q-6 -14 -27.5 -21t-39 -8t-46.5 -1q-36 0 -36 38q0 31 25 92l274 732h-81q-37 0 -59.5 14.5t-22.5 57.5v7q1 34 19 47t49 13q18 0 56.5 -5t54.5 -5q6 0 8 1h24q26 83 68 165.5t92 127.5z" />
    <glyph glyph-name="g" unicode="g" horiz-adv-x="794" 
d="M500 -159q-10 -27 -16.5 -43t-18 -41t-21.5 -40t-26.5 -36t-33.5 -33.5t-41.5 -26t-52 -21t-63 -13t-75.5 -5.5h-1q-59 0 -103.5 17.5t-69 45t-36.5 57.5t-12 60q0 24 7 41q3 12 8.5 24t11.5 22t16.5 16t25.5 6h2q21 0 35.5 -13.5t14.5 -38.5q0 -36 6 -57t22.5 -32
t38 -14t59.5 -3q75 0 113.5 34.5t67.5 113.5l78 210l-17.5 -17.5t-18 -17.5t-20 -13.5t-29 -12t-38.5 -7t-55 -3.5q-74 0 -110 34t-36 111q0 134 115 446q26 68 51.5 124t48 97t48 73t45 53t44 35.5t41 21.5t40.5 11t37.5 4.5t37.5 0.5h4q42 0 71 -7.5t41 -19.5t16 -21.5
t4 -19.5l-1 -8q10 28 34 52t58 24q78 0 78 -40q0 -9 -5 -23q-15 -46 -33.5 -74t-22.5 -37zM598 509q45 121 65 187.5t20 108.5q0 39 -20 57.5t-65 18.5q-33 0 -56 -10t-51 -40.5t-57.5 -91.5t-65.5 -161q-59 -159 -86 -250.5t-27 -138.5q0 -59 46 -59h1q40 0 72.5 14
t59.5 40t54.5 74t52 105.5t57.5 145.5z" />
    <glyph glyph-name="h" unicode="h" horiz-adv-x="773" 
d="M616 1216l-100 -271l10 10q10 11 28 23t49 22.5t66 10.5q99 0 147.5 -40t48.5 -113q0 -56 -28 -133l-217 -579q-8 -22 -15.5 -56t-17.5 -60q-5 -14 -25 -21t-36 -8t-45 -1q-36 0 -36 38q0 29 25 92l225 603q25 69 25 97q0 51 -67 51h-6q-40 -2 -79 -25t-66 -54.5
t-48.5 -63.5t-31.5 -54l-10 -22l-215 -583q-22 -57 -35.5 -68t-57.5 -11h-16q-44 0 -44 48q0 13 5 32l416 1119q1 10 1 12q0 10 -6.5 18.5t-15 14.5t-15.5 18.5t-7 29.5q0 26 42.5 43.5t90.5 17.5q56 0 73 -23q8 -12 8 -31q0 -12 -3 -25.5t-9 -31t-8 -26.5z" />
    <glyph glyph-name="i" unicode="i" horiz-adv-x="402" 
d="M550 1352h4q42 0 63.5 -29t21.5 -64v-7q-3 -47 -32 -72.5t-79 -25.5h-2q-41 0 -62 27t-24 65v7q0 44 31 71t79 28zM493 879l-275 -733q-8 -22 -15.5 -56t-17.5 -60q-5 -14 -25 -21t-36 -8t-45 -1q-36 0 -36 38q0 28 25 92l126 335q126 335 146 396q6 19 6 31q0 5 -4.5 27
t-4.5 36q0 25 33 42.5t72 17.5q46 0 61 -22q10 -14 10 -32q0 -15 -10 -47t-10 -35z" />
    <glyph glyph-name="j" unicode="j" horiz-adv-x="613" 
d="M561 861q6 24 6 31q0 5 -4.5 27t-4.5 36q0 25 33.5 42.5t72.5 17.5q45 0 61 -22q9 -14 9 -32q0 -15 -9.5 -47t-10.5 -35l-310 -838q-10 -27 -16.5 -42.5t-18 -40.5t-21.5 -40.5t-26.5 -36t-33.5 -33t-41.5 -26.5t-52 -21.5t-63 -13t-75.5 -5.5h-1q-59 0 -104 17.5t-69 45
t-36 57.5t-12 60q0 22 7 42q4 11 9 23.5t11 22t17 15.5t26 6h1q21 0 35.5 -13.5t14.5 -37.5q0 -36 6 -57t22.5 -32t38 -14t59.5 -3q77 0 117.5 34.5t68.5 112.5l137 369q138 370 157 431zM771 1352h4q42 0 63.5 -29t21.5 -64v-7q-3 -47 -32 -72.5t-79 -25.5h-2
q-40 0 -61.5 27t-24.5 65v7q0 44 31.5 71t78.5 28z" />
    <glyph glyph-name="k" unicode="k" horiz-adv-x="803" 
d="M385 595q47 16 95 50t85 71t74 82.5t59 77.5t42 65q16 20 29 37t26 27t26 10h3q31 -3 52.5 -16.5t21.5 -30.5q0 -3 -2 -10q0 -10 -0.5 -16.5t-7.5 -19t-28 -41.5q-36 -52 -79.5 -109t-108.5 -127.5t-108 -96.5l124 -453v-18q0 -37 -11 -52q-18 -25 -57 -25q-48 7 -66 64
l-111 416l-114 -43l-132 -360q-21 -56 -35.5 -67.5t-59.5 -11.5h-16q-48 0 -48 33q0 10 13 47l192 519q192 518 213 579q3 14 3 27q0 8 -2 22.5t-2 24.5q0 14 5 40q7 28 39.5 46t68.5 18q42 0 60 -24q8 -12 8 -31q0 -12 -3 -25.5t-9 -31t-8 -26.5z" />
    <glyph glyph-name="l" unicode="l" horiz-adv-x="454" 
d="M86 172l178 481q179 482 199 543q8 32 8 42q0 6 -2 28t-2 24q0 26 31 43t69 17q44 0 59 -23q10 -13 10 -31q0 -15 -10 -47t-11 -35l-360 -981q-18 -49 -18 -71q0 -30 24.5 -43t80.5 -13l0.5 0.5t1.5 0.5q14 0 23 -13.5t9 -32.5q0 -24 -14.5 -42.5t-41.5 -18.5
q-11 0 -32.5 0.5t-30.5 0.5q-71 0 -71 -1q-48 0 -79.5 32t-31.5 82q0 31 11 58z" />
    <glyph glyph-name="m" unicode="m" horiz-adv-x="1179" 
d="M70 130l261 714q14 34 14 55q0 19 -12.5 35t-12.5 25q0 22 24 37t54 15q39 0 64 -16.5t54 -49.5q14 20 28.5 32.5t49 23t85.5 10.5q35 0 57.5 -3.5t39.5 -15.5t27 -24.5t27 -39.5q43 40 96 61.5t141 21.5q90 0 138 -44.5t48 -130.5q0 -74 -38 -181l-191 -511
q-8 -22 -15.5 -56t-16.5 -60q-6 -14 -25.5 -21t-36 -8t-44.5 -1q-36 0 -36 38q0 32 25 93l193 523q29 81 29 149q0 80 -44 80q-25 0 -37 -0.5t-31.5 -1.5t-27.5 -2.5t-22.5 -5t-20.5 -8.5t-16.5 -13t-16.5 -18t-14 -24t-14.5 -31t-14.5 -38l-240 -661q-21 -54 -34 -67
t-49 -13q-17 0 -28 1q-44 0 -44 40q0 14 9 40l242 662q22 60 22 90q0 15 -5 24.5t-11.5 14.5t-20.5 7.5t-23.5 3t-28.5 0.5q-41 0 -73.5 -12.5t-55 -36t-37 -49.5t-26.5 -60l-219 -593q-5 -14 -14.5 -35t-11.5 -29q-8 -20 -15.5 -32t-14.5 -19.5t-23 -10.5t-29 -3.5
t-45 -0.5q-14 0 -21.5 6.5t-8.5 13.5t-1 19.5t4 21t14 27t20 42.5z" />
    <glyph glyph-name="n" unicode="n" horiz-adv-x="800" 
d="M418 662l-215 -583q-21 -57 -34.5 -68t-58.5 -11h-15q-44 0 -44 48q0 16 5 32l282 764q15 41 15 65q0 15 -6.5 24t-13 14.5t-6.5 12.5q0 22 24 36.5t54 14.5q38 0 63 -16t55 -50l10 10q10 11 28 23t49 22.5t65 10.5q103 0 154.5 -42.5t51.5 -119.5q0 -54 -25 -124
l-218 -579q-7 -22 -14.5 -56t-17.5 -60q-5 -14 -25 -21t-36.5 -8t-44.5 -1q-36 0 -36 38q0 32 25 92l224 603q21 58 21 88q0 60 -76 60h-5q-40 -1 -79 -24t-66 -55t-48 -64t-32 -54z" />
    <glyph glyph-name="o" unicode="o" horiz-adv-x="758" 
d="M344 554q-56 -154 -80.5 -233t-24.5 -123q0 -35 17 -51.5t53 -16.5q94 0 154 83q48 64 121 258q9 24 27 73q37 102 55 162t18 100q0 72 -74 72h-4q-88 -2 -132 -47q-40 -41 -93 -177q-11 -31 -37 -100zM201 554q38 101 65 165.5t58 120.5t58.5 85.5t65.5 50.5t80 28
t101 7q105 0 152.5 -31.5t47.5 -117.5q0 -104 -74 -321q-41 -120 -71.5 -198.5t-65 -143.5t-65.5 -100t-74 -59t-89 -32t-112 -8q-101 0 -146 30.5t-45 107.5q0 60 28 158t86 258z" />
    <glyph glyph-name="p" unicode="p" horiz-adv-x="778" 
d="M331 844q13 37 13 56q0 17 -11.5 32.5t-11.5 29.5q0 24 22.5 36.5t54.5 12.5q50 0 77.5 -7t49.5 -34q71 41 141 41q38 0 64 -3t52 -11.5t41.5 -24.5t25 -43t9.5 -64q0 -116 -90 -363q-112 -305 -174 -397q-52 -77 -121 -95q-39 -10 -126 -10q-46 0 -75 8t-43 19.5
t-37 38.5l-97 -252q-8 -22 -15.5 -56t-16.5 -59q-6 -14 -26 -21.5t-36 -8t-45 -0.5q-36 0 -36 37q0 26 25 92zM354 506q-83 -224 -83 -299q0 -45 25 -61t80 -16q44 0 76 22.5t56 67.5t50 113t59 160q29 78 43.5 120t28.5 97t14 89q0 82 -72 82q-27 0 -49.5 -5.5t-41 -16
t-34.5 -27t-30.5 -39t-28.5 -51.5t-28.5 -64.5t-30 -78.5t-34.5 -93z" />
    <glyph glyph-name="q" unicode="q" horiz-adv-x="769" 
d="M851 837l-367 -997q-22 -50 -27 -64q-7 -20 -16 -32t-17.5 -19t-27 -10t-32.5 -3.5t-46 -0.5q-42 0 -30 32q8 21 22.5 43.5t27.5 53.5l89 231q-14 -10 -30 -24t-25 -20t-25.5 -13.5t-40.5 -10t-61 -3.5q-78 0 -115 30t-37 106q0 125 122 455q25 68 51 124t48.5 97
t47.5 73t44.5 53t44.5 35.5t41.5 21.5t40.5 11t37.5 4.5t36.5 0.5h5q42 0 70.5 -7.5t40.5 -19.5t16 -21.5t4 -19.5l-1 -8q11 28 34.5 52t57.5 24q77 0 77 -40q0 -12 -3 -23q-15 -46 -33.5 -74t-23.5 -37zM585 509q31 85 46 128t27.5 91t12.5 77q0 39 -20.5 57.5t-65.5 18.5
q-26 0 -44.5 -5.5t-41 -23.5t-43.5 -51t-46 -88t-55 -135q-64 -175 -91.5 -264.5t-27.5 -131.5q0 -28 12.5 -40t38.5 -12h1q39 0 76 22.5t66.5 57.5t59 87t51.5 101.5t44 110.5z" />
    <glyph glyph-name="r" unicode="r" horiz-adv-x="715" 
d="M661 1011q55 0 100 -16.5t72.5 -42.5t42 -54.5t14.5 -55.5q0 -13 -4 -26q-15 -40 -34.5 -53t-59.5 -13h-16q-37 1 -37 50q0 14 1 18q-5 63 -99 63h-1q-44 -1 -83 -23.5t-64.5 -54.5t-44.5 -64t-28 -55l-8 -22l-215 -583q-22 -57 -35.5 -68t-57.5 -11h-16q-44 0 -44 48
q0 13 5 32l282 764q23 59 23 82q0 10 -4 18.5t-4 14.5q0 52 52 52q27 0 50.5 -8.5t37 -17.5t35.5 -27q20 12 36 24t43.5 20.5t60.5 8.5z" />
    <glyph glyph-name="s" unicode="s" horiz-adv-x="750" 
d="M77 190q-2 15 -2 22q0 60 70 60q31 0 47.5 -12.5t28.5 -49.5q15 -46 38.5 -63t75.5 -17q111 0 158 129q5 13 5 29q0 33 -22 78.5t-53 93.5t-62 97t-53 102.5t-22 97.5q0 27 10 55q20 53 44 89.5t49.5 58t63.5 33t74.5 15t92.5 3.5q43 0 78 -15t55 -37t34.5 -48t20.5 -48
t9 -37l2 -15q1 0 1 -18q0 -36 -12 -53q-18 -24 -57 -24q-45 7 -65 65q-12 30 -19 52.5t-29.5 35t-65.5 12.5q-64 0 -91.5 -19.5t-43.5 -62.5q-4 -10 -4 -26q0 -31 21 -78.5t51 -98t60.5 -103t51.5 -108t21 -99.5q0 -28 -9 -52q-42 -110 -64 -142q-42 -62 -131 -80
q-59 -12 -156 -12q-35 0 -66.5 14t-53 35.5t-39.5 48t-27.5 49t-14.5 43.5z" />
    <glyph glyph-name="t" unicode="t" horiz-adv-x="571" 
d="M458 1009q62 167 70 190q4 17 6 43t13 59q8 23 34.5 38.5t54.5 15.5q37 0 54 -25q10 -12 10 -31q0 -15 -9.5 -46.5t-10.5 -36.5l-78 -206h78q35 0 51.5 -15.5t16.5 -42.5q0 -26 -12 -55q-10 -28 -46 -28q-14 0 -38.5 6t-30.5 6h-67l-273 -735q-8 -22 -12.5 -56.5
t-13.5 -59.5q-6 -14 -27.5 -21t-39 -8t-46.5 -1q-36 0 -36 38q0 31 25 92l280 750h-95q-37 0 -59.5 14.5t-22.5 57.5v7q2 34 21.5 47t53.5 13q20 0 60.5 -5.5t57.5 -5.5q5 0 8 1h23z" />
    <glyph glyph-name="u" unicode="u" horiz-adv-x="830" 
d="M745 881q10 23 17.5 43t16.5 36t19.5 27.5t26 17.5t34.5 6q78 0 78 -40q0 -13 -4 -23q-15 -45 -33 -73t-23 -38l-229 -622q-5 -19 -5 -36q0 -38 17.5 -63t55.5 -25q12 0 18.5 -10t6.5 -25q0 -22 -15 -39t-45 -17q-65 0 -104.5 26t-58.5 82q-9 -6 -31.5 -24.5t-40 -30
t-44.5 -25.5t-62 -21t-77 -7q-79 0 -116 32t-37 103q0 103 87 337l61 165q62 164 82 225q3 13 3 21t-10 29t-10 44q0 26 36.5 43t78.5 17q49 0 65 -23q9 -13 9 -30q0 -12 -3 -26t-9 -32t-8 -25l-156 -423q-37 -96 -63.5 -172t-26.5 -110q0 -45 48 -45q85 0 162.5 86
t126.5 214z" />
    <glyph glyph-name="v" unicode="v" horiz-adv-x="794" 
d="M331 0q-42 0 -41 38l-31 890q0 48 18 65.5t50 17.5q34 0 53 -13t19 -50l8 -740l422 733q18 32 47 53t50 21q40 0 55.5 -7.5t15.5 -23.5q0 -11 -5 -26q-6 -15 -9 -20.5t-5 -8.5t-9.5 -15.5l-19.5 -32.5l-491 -836q-18 -25 -30 -34.5t-27 -9.5z" />
    <glyph glyph-name="w" unicode="w" horiz-adv-x="1133" 
d="M1156 934q19 33 47.5 54t48.5 21q42 0 58 -8.5t16 -24.5q0 -8 -5 -24q-6 -15 -9 -21t-5 -9t-9.5 -15t-18.5 -33l-465 -829q-19 -25 -30.5 -34.5t-26.5 -9.5h-62q-18 0 -25.5 10t-7.5 37l-1 445l-248 -452q-20 -28 -34 -34.5t-37 -6.5h-51q-42 0 -42 38v891q0 48 18 65.5
t51 17.5q34 0 52 -12.5t19 -50.5l1 -690l236 430q21 34 56 34h67q19 0 28.5 -12.5t9.5 -28.5l3 -404z" />
    <glyph glyph-name="x" unicode="x" horiz-adv-x="796" 
d="M854 877q-23 -33 -285 -338l75 -442q1 0 1 -18q0 -36 -11 -52q-18 -24 -58 -24q-46 6 -66 64l-60 333l-268 -322q-4 -7 -10.5 -17t-21 -25.5t-37 -26t-48.5 -10.5h-2q-44 0 -44 46q0 3 6 34l396 481l-66 368q-2 8 -2 21q0 62 70 62q32 0 49.5 -12.5t26.5 -50.5l42 -244
l192 233q26 33 52.5 54t43.5 21q41 0 57 -8t16 -24q0 -11 -6 -25q-8 -25 -11.5 -32t-30.5 -46z" />
    <glyph glyph-name="y" unicode="y" horiz-adv-x="786" 
d="M877 1012q22 0 35 -18t13 -46q0 -38 -24 -71q-14 -20 -258.5 -482t-244.5 -463q-24 -48 -49.5 -84.5t-60 -69t-79.5 -50t-99 -17.5q-42 0 -77 8.5t-33 29.5q-1 4 -1 15q0 31 19.5 53t60.5 23q69 0 112 33.5t76 99.5l57 109l-95 849q-1 6 -1 17q0 66 69 66q34 0 53.5 -13
t22.5 -50l70 -660l315 606q6 11 10 29.5t8.5 31.5t14 26.5t31 20.5t55.5 7z" />
    <glyph glyph-name="z" unicode="z" horiz-adv-x="752" 
d="M891 944q-9 -25 -75 -109t-192.5 -230.5t-201 -231.5t-212.5 -243h322q34 0 50.5 -15.5t16.5 -42.5q0 -23 -13 -55q-10 -28 -45 -28q-14 0 -39.5 6t-29.5 6l-424 -1q-38 0 -38 27q0 5 3 19q11 27 74.5 109t199 240.5t197 230t221.5 255.5h-273q-37 0 -59.5 15t-22.5 58v7
q1 34 21 47t54 13q19 0 60 -5.5t57 -5.5q5 0 8 1h322q26 0 26 -32q0 -17 -7 -35z" />
    <glyph glyph-name="braceleft" unicode="{" horiz-adv-x="558" 
d="M143 242q3 42 21.5 90.5t38.5 83.5t36.5 70t16.5 54q0 17 -12 28q-54 46 -54 77q0 5 2 12q6 15 16.5 21.5t31.5 12.5t36 14q33 18 51 38t26.5 47t13 55t16.5 75t30 94q28 70 80 135.5t114 115t126.5 85.5t125.5 55q10 4 21 4q22 0 34.5 -17t12.5 -41q0 -15 -6 -32
q-9 -21 -48 -53t-94 -62q-57 -31 -136 -110.5t-92 -133.5q-7 -28 -18 -74l-16.5 -69t-17 -56t-23.5 -52t-31 -40t-44 -36q14 -26 14 -57q0 -29 -15.5 -67t-35.5 -70.5t-41.5 -79t-30.5 -88.5q-5 -20 -5 -63q0 -74 17.5 -155t45.5 -118q24 -31 34 -48.5t10 -33.5
q0 -11 -5 -23q-14 -32 -33 -48t-40 -16q-22 0 -37 17q-62 75 -100 191t-38 224q0 30 2 44z" />
    <glyph glyph-name="bar" unicode="|" horiz-adv-x="466" 
d="M696 1365l-545 -1479q-8 -22 -15.5 -56t-17.5 -59q-5 -14 -25 -21.5t-36 -8.5t-45 -1q-36 0 -36 39q0 30 26 91l261 708.5t282 769.5q4 17 5.5 32.5t4 26.5t11.5 32q11 26 39.5 43.5t56.5 17.5q30 0 46 -21q9 -14 9 -32q0 -11 -3.5 -24.5t-9.5 -31.5t-8 -26z" />
    <glyph glyph-name="braceright" unicode="}" horiz-adv-x="570" 
d="M673 993q-4 -50 -24 -106.5t-38 -101t-18 -67.5q0 -24 16 -36q54 -39 54 -70q0 -8 -2 -12q-4 -12 -12 -23t-19 -19t-24.5 -16.5t-29.5 -17.5q-26 -16 -43 -34t-29 -45.5t-20 -53.5t-24 -75.5t-33 -94.5q-31 -80 -85 -154.5t-116.5 -130t-128 -96t-124.5 -59.5
q-11 -3 -22 -3q-23 0 -35 16.5t-12 40.5q0 18 6 33q8 20 46.5 49.5t95.5 59.5q55 30 130 120.5t107 177.5q17 46 31 98.5t22 84t21 64t34 55.5t54 40q-13 37 -13 71t15.5 69.5t39.5 89.5t37 116q5 23 5 54q0 66 -18 143.5t-39 101.5q-27 31 -38.5 48.5t-11.5 33.5q0 9 5 20
q11 28 33.5 44.5t44.5 16.5q20 0 32 -14q62 -75 97 -173t35 -198q0 -16 -2 -47z" />
    <glyph glyph-name="asciitilde" unicode="~" horiz-adv-x="1060" 
d="M861 531q39 22 64 22q28 0 42 -25q15 -24 15 -47q0 -43 -70 -75q-77 -33 -153 -33q-96 0 -191 50q-84 43 -155 43q-63 0 -97 -35q-48 -49 -92 -49q-40 0 -51 47q-3 12 -3 23q0 23 13 41t30 27t35 21q70 43 172 43q74 0 127 -26q125 -64 196 -64q57 0 118 37z" />
    <glyph glyph-name="dieresis" unicode="&#xa8;" 
d="M569 1395q32 0 68 -36t36 -67q0 -39 -33.5 -73t-92.5 -34q-51 0 -73 29t-22 69q0 56 32 83.5t85 28.5zM890 1395h3q27 0 47.5 -10t31.5 -26.5t16 -33.5t5 -34q0 -2 -0.5 -4.5t-0.5 -3.5q-10 -111 -123 -111q-51 0 -76 32.5t-25 72.5q0 56 35.5 87t86.5 31z" />
    <glyph glyph-name="degree" unicode="&#xb0;" horiz-adv-x="731" 
d="M405 1224q10 133 79 189.5t211 56.5q126 0 184 -51.5t58 -158.5q0 -22 -3 -48q-6 -62 -30 -104t-66 -66t-94.5 -33.5t-123.5 -9.5q-215 0 -215 198v27zM540 1231v-10q0 -42 32 -70.5t83 -28.5q82 0 114 27t36 72q1 4 1 12q0 29 -14 52.5t-34.5 35.5t-40 18.5t-34.5 6.5
q-16 0 -37 -6t-44.5 -18.5t-41 -36.5t-20.5 -54z" />
    <glyph glyph-name="plusminus" unicode="&#xb1;" horiz-adv-x="1030" 
d="M627 913l73 204q4 17 5.5 32.5t4 27t11.5 31.5q11 26 39.5 43.5t56.5 17.5q30 0 45 -21q10 -13 10 -32q0 -15 -10 -46.5t-11 -35.5l-81 -221l243 1q67 0 67 -59q0 -24 -13 -55q-10 -27 -45 -27q-14 0 -39 5.5t-30 5.5h-231l-75 -203q-8 -22 -15.5 -56t-17.5 -60
q-5 -14 -24.5 -21t-36 -8t-44.5 -1q-37 0 -37 37q0 32 26 93l81 219h-218q-37 0 -59.5 14.5t-22.5 57.5v7q2 34 21.5 47t53.5 13q20 0 60.5 -5.5t57.5 -5.5h8zM747 208h-591q-37 0 -59.5 14.5t-22.5 57.5v7q1 34 20.5 47t54.5 13q19 0 60 -5t57 -5h7l534 1q67 0 67 -59
q0 -24 -12 -54q-10 -28 -45 -28q-15 0 -39.5 5.5t-30.5 5.5z" />
    <glyph glyph-name="acute" unicode="&#xb4;" 
d="M920 1290q-26 -31 -77 -83l-51 -52q-29 -26 -47.5 -43.5t-37 -27t-39.5 -9.5q-27 0 -27 20q0 9 6 22t12.5 24.5t7.5 14.5q9 22 19.5 42.5t22.5 38t26.5 36.5t30 37t33.5 40q64 74 97 74q41 0 56.5 -7.5t15.5 -23.5q0 -11 -5 -26q-5 -12 -7 -21t-3 -12.5t-8 -13.5t-25 -30
z" />
    <glyph glyph-name="multiply" unicode="&#xd7;" horiz-adv-x="865" 
d="M970 923q-7 -11 -122.5 -114.5t-195.5 -169.5l144 -314q1 0 1 -17q0 -37 -12 -52q-10 -15 -22.5 -20t-33.5 -5q-48 7 -66 64l-119 253l-317 -270q-34 -33 -79 -33q-24 0 -38.5 17t-14.5 40q0 6 2 16q3 12 14 33t25 34l349 291l-152 315q-9 19 -9 33q0 27 24 38.5t53 11.5
q28 0 43.5 -13t32.5 -50l119 -246l254 218q14 11 35.5 32t35.5 32t25 11q41 0 56.5 -8t15.5 -24q0 -11 -5 -26q-8 -24 -11.5 -31t-31.5 -46z" />
    <glyph glyph-name="divide" unicode="&#xf7;" horiz-adv-x="776" 
d="M624 590l-338 -1q-37 0 -59.5 14.5t-22.5 57.5v7q1 34 20.5 47t54.5 13q20 0 61 -5t57 -5h3.5h3.5l281 1q67 0 67 -58q0 -24 -12 -55q-11 -28 -45 -28q-15 0 -40 6t-31 6zM604 1074h2q28 0 48 -10.5t30.5 -27.5t15.5 -33.5t5 -33.5v-8q-9 -110 -123 -110q-51 0 -76 32
t-25 72q0 55 35.5 86t87.5 33zM392 464h3q27 0 47.5 -10.5t31 -27.5t15.5 -33.5t5 -33.5v-8q-10 -110 -124 -110q-50 0 -75.5 32t-25.5 72q0 56 35.5 87t87.5 32z" />
    <glyph glyph-name="circumflex" unicode="&#x2c6;" 
d="M850 1367l134 -197q1 0 1 -18q0 -36 -12 -52q-17 -25 -57 -25q-11 2 -19.5 5.5t-16 10.5t-12.5 12.5t-14.5 17.5t-15.5 19l-97 136l-203 -140q-13 -9 -21.5 -15.5t-16.5 -10.5t-18 -5.5t-24 -1.5q-22 0 -33.5 15t-11.5 38q0 11 2 20q2 10 13.5 31.5t24.5 35.5l229 161
l12 8q11 8 32 16.5t40 8.5q57 0 84 -70z" />
    <glyph glyph-name="caron" unicode="&#x2c7;" 
d="M606 1129l-126 195v18q0 36 12 52q18 25 56 25q17 -2 27 -11t21.5 -27t17.5 -26l100 -135l197 144q36 34 80 34q22 0 33.5 -15t11.5 -39q0 -10 -3 -20q-12 -42 -38 -66l-221 -166l-11 -8q-12 -8 -33 -16t-41 -8q-56 0 -83 69z" />
    <glyph glyph-name="breve" unicode="&#x2d8;" 
d="M532 1360q24 0 44 -17q12 -9 28 -30.5t29 -37t39.5 -29t61.5 -13.5h1q28 0 49.5 9t37.5 23.5t31 30.5t38 33.5t50 27.5q15 7 28 7q21 0 31 -17t10 -42q0 -20 -6 -37q-6 -16 -29 -40.5t-60 -52t-93 -48t-115 -21.5h-6q-47 0 -87 16t-65.5 38.5t-44 49t-26.5 47t-8 33.5
q0 29 18.5 49.5t43.5 20.5z" />
    <glyph glyph-name="Alpha" unicode="&#x391;" horiz-adv-x="1035" 
d="M461 467l-250 -389q-3 -6 -10.5 -16.5t-22 -26t-38 -26t-49.5 -10.5h-3q-47 0 -47 45q0 4 4 26l793 1240q14 23 29 32.5t36 9.5h74q34 0 34 -38v-11l-105 -1205q-1 -16 1 -30.5t1 -26.5q-3 -20 -21 -30.5t-39 -10.5q-84 0 -84 85q0 7 1 10l30 373zM857 1097l-326 -519
l271 1z" />
    <glyph glyph-name="Beta" unicode="&#x392;" horiz-adv-x="830" 
d="M502 907q14 0 35 -0.5t50 -0.5q82 0 129 41.5t76 118.5q14 37 14 69q0 87 -114 87q-71 0 -71 1h-2zM294 337q-50 -139 -50 -172q0 -22 13.5 -29t44.5 -7q9 0 31.5 0.5t36.5 0.5q32 0 55.5 5t55.5 23.5t59.5 52t60.5 94.5t65 147q40 111 40 184q0 36 -10 62.5t-25.5 41.5
t-37.5 23.5t-41.5 11t-42.5 2.5h-95zM150 0q-44 0 -70 16.5t-26 49.5q0 18 8 42l437 1185q22 59 114 59h123q100 0 156.5 -62t56.5 -149q0 -37 -12 -75q-74 -217 -197 -237q18 -8 38 -22.5t36.5 -30.5t27 -46.5t10.5 -71.5q0 -91 -55 -244q-26 -72 -50 -127.5t-49 -98.5
t-47.5 -73.5t-50.5 -51.5t-53 -33t-60 -19t-66 -9t-76 -2h-195z" />
    <glyph glyph-name="Gamma" unicode="&#x393;" horiz-adv-x="728" 
d="M619 1223l-401 -1077q-8 -22 -15.5 -56t-17.5 -60q-5 -14 -25 -21t-36 -8t-45 -1q-36 0 -36 38q0 29 25 92l435 1178q14 41 81 44h476q66 0 66 -58q0 -25 -12 -56q-10 -27 -45 -27q-15 0 -40 5.5t-29 6.5h-381z" />
    <glyph glyph-name="Delta" unicode="&#x394;" horiz-adv-x="1035" 
d="M245 130h532l84 967zM92 1q-28 0 -39 14t-11 33q0 8 3 22l793 1240q14 23 29 32.5t36 9.5h74q34 0 34 -38v-11l-105 -1205q-3 -52 -3 -57q-3 -19 -23 -30t-43 -11q-12 0 -369 0.5t-376 0.5z" />
    <glyph glyph-name="Epsilon" unicode="&#x395;" horiz-adv-x="820" 
d="M215 130q0 2 428 2q30 0 46 -17.5t16 -43.5q0 -28 -18.5 -49.5t-49.5 -21.5h-1h-538q-57 0 -57 40q0 14 7 30l458 1242q15 40 68 40h459q68 0 68 -58q0 -25 -12 -56q-11 -27 -46 -27q-15 0 -40 5.5t-30 6.5l-355 -1l-163 -444h281h1q30 0 46 -17.5t16 -42.5
q0 -27 -18.5 -49t-49.5 -22h-2h-324z" />
    <glyph glyph-name="Zeta" unicode="&#x396;" horiz-adv-x="841" 
d="M1105 1285q-9 -25 -122.5 -179.5t-226 -302.5t-296.5 -387.5t-218 -285.5h378q68 0 68 -58q0 -25 -13 -55q-10 -28 -45 -28q-15 0 -40 6t-30 6l-486 -1q-39 0 -39 27q0 9 4 19q8 21 80 122t174 237t221 293t222 291.5t177 232.5h-329q-37 0 -60 15t-23 58q0 4 1 7
q0 34 19.5 47t54.5 13q20 0 61 -5t57 -5h7h385q26 0 26 -32q0 -16 -7 -35z" />
    <glyph glyph-name="Eta" unicode="&#x397;" horiz-adv-x="887" 
d="M1108 1240l-406 -1111q-25 -58 -28 -65q-7 -19 -16 -31.5t-17.5 -19.5t-27 -10t-32 -3.5t-45.5 -0.5q-42 0 -30 33q8 20 22.5 43t26.5 54q20 49 104.5 283t84.5 235h-338l-209 -568q-22 -56 -36 -67.5t-60 -11.5h-15q-49 0 -49 31q0 7 2 15t6 20t5 14l206 552
q205 551 225 612q27 73 45 91.5t69 18.5q46 0 46 -45q0 -23 -14 -65l-174 -466h339q21 57 54.5 151t59 162.5t57.5 148.5q12 30 20.5 54.5t28 40t51.5 15.5q59 0 59 -47q0 -27 -14 -63z" />
    <glyph glyph-name="Theta" unicode="&#x398;" horiz-adv-x="916" 
d="M803 1222q-71 0 -129.5 -50.5t-116 -161t-130.5 -308.5q-66 -179 -98.5 -291t-32.5 -177q0 -53 21.5 -78.5t67.5 -25.5q53 0 101.5 27.5t89.5 74.5t83.5 124t79.5 162t81 202q56 149 82.5 240t26.5 148q0 59 -30 86.5t-96 27.5zM279 698q41 109 70 183t61 145.5
t57.5 115.5t57.5 84t62.5 61.5t70 37.5t82.5 21.5t98 5.5q62 0 103.5 -7.5t74.5 -27.5t49 -56.5t16 -91.5q0 -143 -118 -461q-126 -342 -195 -465q-81 -146 -182 -198q-86 -45 -228 -45q-109 0 -160.5 42.5t-51.5 142.5q0 152 133 513zM615 621h-47q-37 0 -60 14.5t-23 56.5
q0 1 0.5 3.5t0.5 3.5q1 61 61 61q17 0 53 -5.5t52 -5.5h8l28 1q59 0 59 -47q0 -26 -17 -66q-10 -28 -45 -28q-15 0 -39.5 6t-30.5 6z" />
    <glyph glyph-name="Iota" unicode="&#x399;" horiz-adv-x="442" 
d="M617 1214l-397 -1069q-8 -23 -15 -57t-16 -59q-6 -14 -26 -21t-36 -8t-45 -1q-36 0 -36 38q0 31 25 92l187 503q187 503 207 564q3 17 5 32.5t4.5 27t12.5 31.5q11 26 39 44t56 18q31 0 46 -22q9 -13 9 -31q0 -15 -9.5 -47t-10.5 -35z" />
    <glyph glyph-name="Kappa" unicode="&#x39a;" horiz-adv-x="829" 
d="M591 729l41 -135q41 -136 82.5 -295.5t42.5 -207.5q1 0 1 -18q0 -36 -11 -52q-18 -25 -58 -25q-47 7 -65 65l-74 262q-75 262 -95 352l-42 -9l-195 -520q-8 -22 -15.5 -56t-17.5 -60q-5 -14 -25 -21t-36 -8t-45 -1q-36 0 -36 38q0 29 25 92l412 1112q28 73 46 91.5
t68 18.5q46 0 46 -45q0 -27 -14 -65l-157 -422q99 65 230 192t202 219q19 24 32 40t32.5 37.5t36.5 32.5t29 11q60 0 60 -47q0 -24 -14 -63q-6 -15 -27 -45l-21 -30q-56 -76 -198.5 -217.5t-239.5 -220.5z" />
    <glyph glyph-name="Lambda" unicode="&#x39b;" horiz-adv-x="1035" 
d="M769 95l92 1002l-647 -1019q-2 -5 -10.5 -16.5t-23.5 -26t-39 -25.5t-50 -11h-3q-47 0 -47 45q0 4 4 26l793 1240q14 23 29 32.5t36 9.5h74q34 0 34 -38v-11l-105 -1205q-1 -16 1 -30.5t1 -26.5q-3 -20 -21 -30.5t-39 -10.5q-80 0 -80 79q0 10 1 16z" />
    <glyph glyph-name="Mu" unicode="&#x39c;" horiz-adv-x="1136" 
d="M569 1089l-350 -943q-8 -22 -15.5 -56t-16.5 -60q-5 -14 -25 -21t-36 -8t-45 -1q-36 0 -36 38q0 31 26 92l421 1145q16 43 43.5 63.5t56.5 20.5q19 0 33.5 -8t18.5 -21l101 -538l503 535q43 33 89 33q42 0 42 -33q0 -13 -4 -25l-425 -1156q-7 -22 -14.5 -56t-17.5 -60
q-5 -14 -25 -21t-36.5 -8t-44.5 -1q-36 0 -36 38q0 31 25 92l328 894l-396 -415q-17 -11 -39 -11q-35 0 -42 20z" />
    <glyph glyph-name="Nu" unicode="&#x39d;" horiz-adv-x="864" 
d="M1067 1179l-419 -1133q-19 -26 -30.5 -35.5t-26.5 -9.5h-59q-18 0 -25 10.5t-8 36.5l27 925l-307 -827q-8 -22 -15.5 -56t-16.5 -60q-5 -14 -25 -21t-36 -8t-45 -1q-36 0 -36 38q0 31 26 92l421 1145q16 43 43.5 63.5t56.5 20.5q19 0 33.5 -8t18.5 -21l-12 -961l303 853
q10 23 18 43t17 36t19.5 27.5t26 17.5t35.5 6q40 0 58.5 -9.5t18.5 -30.5q0 -8 -4 -22q-11 -35 -20 -52.5t-19 -30.5t-18 -28z" />
    <glyph glyph-name="Xi" unicode="&#x39e;" horiz-adv-x="916" 
d="M738 637l-301 -1q-37 0 -59.5 15t-22.5 58v7q1 33 21 46.5t54 13.5q20 0 60.5 -5.5t56.5 -5.5h8l243 2q67 0 67 -58q0 -26 -13 -55q-10 -28 -45 -28q-15 0 -40 5.5t-29 5.5zM1047 1223l-477 -1q-37 0 -60 14.5t-23 57.5q0 4 1 7q1 34 20.5 47t53.5 13q20 0 61 -5.5
t57 -5.5h8l407 2q67 0 67 -58q0 -25 -13 -56q-10 -27 -39 -27q-13 0 -35 5.5t-28 6.5zM598 1l-477 -1q-37 0 -59.5 14.5t-22.5 57.5v7q1 34 20.5 47t53.5 13q20 0 61 -5t57 -5h7l420 1q67 0 67 -58q0 -25 -12 -55q-10 -28 -45 -28q-15 0 -40.5 6t-29.5 6z" />
    <glyph glyph-name="Omicron" unicode="&#x39f;" horiz-adv-x="840" 
d="M778 1222q-61 0 -113.5 -50t-108.5 -161.5t-129 -308.5q-69 -186 -102 -302t-33 -181q0 -89 68 -89q38 0 73 17.5t68.5 55.5t63 84.5t63 118.5t62.5 143t66 171q106 281 106 397q0 105 -84 105zM279 698q121 328 174 431q69 134 150 181q74 42 210 42q51 0 86.5 -7.5
t64 -26t42.5 -53t14 -86.5q0 -145 -120 -471q-34 -92 -58.5 -155.5t-52 -131t-49 -112t-47 -90.5t-48 -74t-50 -55.5t-54.5 -42t-60.5 -26.5t-69 -16.5t-79.5 -4.5q-102 0 -149 38t-47 128q0 78 35 205.5t108 326.5z" />
    <glyph glyph-name="Pi" unicode="&#x3a0;" horiz-adv-x="876" 
d="M944 1221l-327 -1l-397 -1074q-8 -22 -15.5 -56t-16.5 -60q-6 -14 -26 -21t-36 -8t-44 -1q-36 0 -36 38q0 29 25 92l436 1184q7 19 21.5 28.5t42.5 9.5l484 -2q26 0 42 -14t16 -39q0 -15 -4 -27l-441 -1195q-21 -57 -34.5 -68t-57.5 -11h-16q-41 0 -41 43q0 16 5 37z" />
    <glyph glyph-name="Rho" unicode="&#x3a1;" horiz-adv-x="834" 
d="M304 369l-86 -223q-8 -22 -15.5 -56t-17.5 -60q-5 -14 -25 -21t-36 -8t-45 -1q-36 0 -36 38q0 29 25 92l424 1144q17 46 46 62t73 16h207q110 0 161 -34t51 -124q0 -115 -93 -366q-27 -72 -49.5 -129t-44.5 -104t-40 -82t-38.5 -62.5t-37 -46t-39 -31.5t-40 -20
t-44.5 -10.5t-48.5 -4.5t-56.5 -1q-111 0 -140 4.5t-55 27.5zM468 815q-46 -125 -65 -185t-19 -95q0 -39 26.5 -53.5t88.5 -14.5q70 0 99 15q56 28 115 154q34 73 79 195q85 231 85 311q0 15 -2 26.5t-8 19.5t-10.5 13.5t-16 9.5t-19 6t-24 3t-25.5 1t-30 1h-23
q-58 0 -82 -19q-32 -26 -77 -140q-11 -28 -92 -248z" />
    <glyph glyph-name="Sigma" unicode="&#x3a3;" horiz-adv-x="820" 
d="M264 130q0 2 379 2q30 0 46 -17.5t16 -43.5q0 -28 -18.5 -49.5t-49.5 -21.5h-1h-538q-23 0 -35 16t-12 40q0 23 8 45l565 638l-131 537q-2 34 25.5 55t55.5 21h459q68 0 68 -58q0 -25 -12 -56q-11 -27 -46 -27q-15 0 -40 5.5t-30 6.5l-330 -1l48 -199q47 -199 52 -227
q10 -46 10 -66q0 -24 -10.5 -41.5t-41.5 -53.5z" />
    <glyph glyph-name="Tau" unicode="&#x3a4;" horiz-adv-x="890" 
d="M1085 1223l-211 -1l-402 -1092q-4 -13 -13.5 -33.5t-13.5 -30.5q-7 -20 -14.5 -32t-15 -19.5t-23.5 -10.5t-29 -3.5t-44 -0.5q-21 0 -32 12t-11 29q0 11 7 20.5t19.5 27t22.5 41.5q14 35 75 199t170 461.5t158 431.5h-323q-36 0 -59 14.5t-23 57.5v7q2 34 21.5 47
t53.5 13q20 0 60.5 -5.5t57.5 -5.5h8l621 2q35 0 51.5 -15.5t16.5 -42.5q0 -25 -12 -56q-11 -27 -46 -27q-15 0 -40 5.5t-30 6.5z" />
    <glyph glyph-name="Upsilon" unicode="&#x3a5;" horiz-adv-x="777" 
d="M483 702l-107 565q-4 12 -4 26q0 30 22 43.5t50 13.5q30 0 46 -12.5t31 -50.5l76 -442l363 434q12 11 36 34t37 32t24 9q40 0 55.5 -8t15.5 -24q0 -9 -5 -25q-5 -12 -6.5 -21.5t-2.5 -13t-8 -13.5t-25 -30l-454 -524l-207 -549q-9 -23 -16 -57t-16 -59q-5 -14 -25.5 -21
t-36.5 -8t-45 -1q-36 0 -36 38q0 31 26 92l96 255q96 255 116 317z" />
    <glyph glyph-name="Phi" unicode="&#x3a6;" horiz-adv-x="1181" 
d="M1048 1308l-37 -101l151 1h1q147 0 147 -170q0 -124 -81 -345q-103 -279 -144 -357q-52 -98 -116 -129q-55 -26 -175 -26h-17l-141 -3l-16 -48q-4 -9 -14 -31t-14 -33q-6 -18 -10.5 -28t-12 -18t-13 -11.5t-20 -6t-25.5 -2.5h-37q-23 0 -35 9.5t-7 23.5q8 21 18 44t22 53
l13 30l-2 -6.5l-2 -6.5l13 31l-148 3q-84 0 -124 30t-40 106q0 116 100 387q25 69 42 113.5t37.5 94.5t35 80t33 63.5t33.5 52.5t34.5 38.5t38 29t42.5 18t49.5 11t57.5 3.5h181l30 82q13 34 41 54.5t60 20.5h2q18 0 34.5 -14t16.5 -32q0 -7 -2 -11zM965 1077l-282 -768
l87 2h9q98 0 145 41q45 40 95 167q15 38 63 170q45 123 65 191.5t20 110.5q0 45 -25 65t-81 20q0 1 -96 1zM819 1076l-84 -2h-9q-101 0 -157 -64q-47 -54 -109 -216q-11 -30 -35 -96q-49 -132 -71 -204.5t-22 -113.5q0 -36 18.5 -52.5t57.5 -16.5h5l124 -2z" />
    <glyph glyph-name="Chi" unicode="&#x3a7;" horiz-adv-x="971" 
d="M971 1282q26 33 52.5 54t44.5 21q41 0 56.5 -8t15.5 -24q0 -10 -6 -26q-8 -25 -11 -31.5t-31 -45.5q-185 -263 -391 -524l56 -602q1 0 1 -18q0 -36 -11 -52q-18 -25 -58 -25q-27 4 -45.5 23t-19.5 42l-48 473l-364 -461q-7 -7 -17.5 -21.5t-18 -22.5t-19.5 -17.5
t-27.5 -13.5t-36.5 -4h-5q-43 0 -43 46q0 18 5 34l505 660l-53 530q0 2 -0.5 6.5t-0.5 7.5q0 69 68 69q35 0 54.5 -12.5t21.5 -49.5l36 -387z" />
    <glyph glyph-name="Psi" unicode="&#x3a8;" horiz-adv-x="1181" 
d="M1387 1175l-4 -15q-3 -15 -37 -113.5t-94 -264.5q-36 -96 -66.5 -165t-63 -119t-62.5 -81t-68 -49t-76.5 -25t-91.5 -8l-141 -3l-76 -206q-25 -61 -26 -64q-7 -18 -11 -28t-12 -18.5t-13 -12t-20 -5.5t-26 -2h-37q-23 0 -35 9.5t-7 22.5q9 21 19 44t22 54l81 206l-147 3
q-151 3 -151 174q0 108 61 284q48 140 79.5 221t41.5 98t20 35t19 47q2 11 2 14q0 12 -11.5 25.5t-11.5 27.5q0 8 5 24q8 26 45.5 44.5t76.5 18.5q41 0 57 -22q9 -13 9 -31q0 -12 -3 -25.5t-9 -31.5t-8 -26q-41 -111 -78.5 -196t-90.5 -229q-58 -155 -58 -233q0 -87 71 -89
l124 -2l270 740l30 83q12 34 40 54.5t60 20.5h1q19 0 35.5 -14.5t16.5 -32.5q0 -3 -1 -10l-38 -102l-267 -739l86 2q40 2 66.5 6.5t52.5 17.5t44.5 33t39.5 56.5t40 83t43 116.5l150 440q13 37 21 55.5t21 39t31 28.5t43 8q40 0 58.5 -9.5t18.5 -30.5q0 -8 -4 -23
q-14 -44 -32 -68.5t-24 -42.5z" />
    <glyph glyph-name="Omega" unicode="&#x3a9;" horiz-adv-x="942" 
d="M120 0q-36 0 -55.5 18t-19.5 44q0 27 20.5 48t55.5 21h44q23 0 37 0.5t26 4t17 5t12 11t9.5 15.5t9.5 23q4 11 4 28q0 38 -18 58q-39 43 -39 129q0 139 101 414q33 88 59.5 150.5t57 122t60.5 98.5t66.5 72.5t78.5 51.5t92.5 28t112.5 10q53 0 96 -12t78 -38.5t54 -73
t19 -110.5q0 -118 -65 -290q-33 -87 -64.5 -158.5t-55.5 -119.5t-51.5 -89.5t-44 -63.5t-42.5 -45.5t-36.5 -31.5t-35.5 -26q-18 -14 -32.5 -38.5t-19.5 -42.5t-9 -29q-6 -10 -6 -19q0 -18 21.5 -26t72.5 -8h10q28 0 43.5 -18t15.5 -42q0 -29 -19 -50t-52 -21
q-173 0 -215 11q-52 14 -52 60q0 32 20 89q29 77 82.5 158t87.5 107q60 47 121.5 152.5t116.5 262.5q58 163 58 250q0 66 -32 99t-99 33q-107 0 -185 -89t-160 -311q-104 -282 -104 -379q0 -31 9 -47q4 -8 11.5 -25.5t14.5 -36t12.5 -45t5.5 -51.5q0 -39 -13 -76
q-8 -25 -14.5 -43t-15.5 -35t-15 -27.5t-18 -20.5t-19.5 -15t-25 -10t-29 -6.5t-37.5 -3t-44 -1.5h-53h-16z" />
    <glyph glyph-name="alpha" unicode="&#x3b1;" horiz-adv-x="955" 
d="M777 146q-1 -13 -1 -33v-13q0 -37 -13 -70q-16 -19 -36 -24t-46 -6q-50 0 -50 69q0 28 8 61l4 67q2 10 2 27.5t2 33.5q-32 -43 -74 -93.5t-80 -82.5q-9 -8 -25 -22t-21 -18t-17.5 -13t-17.5 -11.5t-17.5 -7.5t-21.5 -5.5t-26 -2.5t-34 -2h-42q-33 0 -56.5 5.5t-45 21
t-32.5 46.5t-11 78q0 198 89 440q31 84 64.5 150.5t62.5 110t62 74.5t58.5 47t57 25t51.5 11t48 2h14q25 0 45 -4.5t31 -11t20 -17t13 -18t8.5 -19t6.5 -15.5q8 -16 11.5 -36.5t6.5 -62.5t6 -65q10 20 30.5 53t24.5 44q33 91 38 91q2 0 1 -6l-1 -6q14 34 41.5 54.5
t58.5 20.5h2q18 0 34.5 -14.5t16.5 -31.5q0 -8 -2 -11q-4 -12 -12 -26t-33 -82q-33 -87 -189 -349q-1 -27 -1 -116t-3 -141t-10 -96zM665 530v18q0 333 -66 333q-26 0 -46 -5.5t-44.5 -23.5t-47.5 -50.5t-50 -88.5t-56 -135q-80 -219 -80 -384q0 -64 35 -64q29 0 64.5 23.5
t69.5 59.5t74.5 91.5t73.5 107t73 118.5z" />
    <glyph glyph-name="beta" unicode="&#x3b2;" horiz-adv-x="863" 
d="M643 920q46 2 90 54t66 115q11 35 11 60q0 78 -100 78q-35 0 -83 -58.5t-95 -182.5l-171 -460l-295 -793q-8 -23 -15.5 -57t-17.5 -59q-5 -14 -25 -21t-36 -8t-44 -1q-36 0 -36 37q0 21 24 93l125 335q125 335 146 396l211 568q1 2 2 6q14 35 22 56t27 61t36 65t44.5 57
t56.5 50.5t69 32t84 13.5h1q107 0 164.5 -54.5t57.5 -131.5q0 -35 -14 -68q-45 -119 -95 -185t-73 -68q1 -1 11.5 -8t15.5 -11t16 -14.5t17.5 -20t15.5 -25.5t14 -33.5t8.5 -41.5t3.5 -51q0 -108 -53 -261q-69 -201 -155.5 -290t-208.5 -89q-63 0 -138 21q-26 8 -38.5 26.5
t-12.5 41.5q0 27 15 46.5t38 19.5q10 0 18 -3q47 -19 90 -19q36 0 67.5 13t58 39t48 55.5t42 73t35.5 81t34 88.5q21 60 21 122q0 77 -31.5 131.5t-81.5 63.5q-33 11 -33 52q0 22 12 40t34 23z" />
    <glyph glyph-name="gamma" unicode="&#x3b3;" horiz-adv-x="850" 
d="M426 120q-12 -20 -21.5 -39.5t-20.5 -45.5t-15 -35q-87 -183 -87 -246q0 -25 16 -25q25 0 52.5 70.5t45.5 166.5q2 10 14.5 66.5t15.5 87.5zM858 941q25 32 51.5 53t45.5 21q40 0 55.5 -7.5t15.5 -23.5q0 -11 -5 -26q-5 -12 -7 -20.5t-3.5 -12t-8 -13.5t-24.5 -31
q-253 -317 -398 -524q0 -166 -39 -407q-15 -93 -43 -163t-58 -107.5t-66 -60.5t-60.5 -29.5t-47.5 -6.5q-17 0 -35.5 8.5t-37 26t-30.5 51t-12 77.5q0 103 65 250q102 230 224 404v7q0 130 -10 232.5t-25 134.5q-27 55 -47 82t-40 27q-34 0 -51 16t-17 41q0 27 20.5 49
t52.5 22h7q51 0 75.5 -10.5t74.5 -59.5q35 -34 58.5 -130t33.5 -231z" />
    <glyph glyph-name="delta" unicode="&#x3b4;" horiz-adv-x="769" 
d="M626 881q-32 0 -60 -9t-51 -24t-45 -41.5t-39.5 -54.5t-37.5 -71.5t-35.5 -83.5t-37.5 -98q-78 -213 -78 -288q0 -81 76 -81q33 0 60.5 7.5t46.5 18.5t36 29.5t27.5 35.5t21.5 43t17 45t15.5 47t15.5 45q39 105 57.5 158.5t39 130.5t20.5 120q0 71 -49 71zM175 499
q40 107 72 181.5t65 134.5t62.5 95.5t65.5 59t73 32.5t86 9q33 0 33 16q0 10 -14 33t-31 47t-31.5 59.5t-14.5 67.5q0 21 6 40q8 26 15.5 42.5t26 36t44.5 29.5q60 22 122 22q83 0 141 -43q58 -45 58 -90q0 -21 -16 -34.5t-45 -13.5h-4q-11 0 -61 24t-78 24q-33 0 -48 -29
q-7 -11 -7 -26q0 -19 13 -46t31.5 -59.5t37.5 -71t32 -93t13 -113.5q0 -114 -51 -249q-62 -165 -104 -277t-87 -180.5t-108.5 -97.5t-169.5 -29q-199 0 -199 194q0 117 72 305z" />
    <glyph glyph-name="epsilon" unicode="&#x3b5;" horiz-adv-x="731" 
d="M758 993q32 -7 49.5 -28.5t17.5 -46.5q0 -24 -15.5 -40.5t-43.5 -16.5q-11 0 -17 2q-90 16 -199 18q-33 0 -70 -33t-58 -90q-9 -24 -9 -48q0 -39 21 -67.5t44 -29.5h37h36q23 0 35.5 -16.5t12.5 -41.5q0 -28 -16.5 -49.5t-44.5 -21.5h-35h-57q-51 -1 -105.5 -53
t-84.5 -124q-24 -57 -24 -102q0 -75 65 -75q40 0 72.5 5t74 14.5t62.5 13.5q12 2 19 2q28 0 43 -14.5t15 -35.5q0 -27 -22 -50.5t-62 -31.5q-24 -5 -54.5 -13t-47.5 -11t-57.5 -6t-102.5 -3q-74 0 -115.5 46.5t-41.5 124.5q0 65 28 137q19 48 39.5 85.5t37.5 60t38.5 40.5
t35.5 26.5t34 19t29 16.5q-54 69 -54 142q0 37 13 73q89 240 313 240q60 0 86 -1t32.5 -2.5t17 -6t28.5 -8.5z" />
    <glyph glyph-name="zeta" unicode="&#x3b6;" horiz-adv-x="752" 
d="M369 133q38 -1 73.5 -13.5t67 -35t50.5 -60t19 -83.5q0 -47 -22 -106q-16 -41 -40.5 -71t-50.5 -47t-60.5 -26.5t-63 -12.5t-64.5 -3h-157q-19 0 -30.5 16.5t-11.5 38.5q0 25 15 43.5t42 18.5h165q56 0 83 19.5t49 80.5q4 16 4 26q0 38 -37.5 60t-79.5 26h-60
q-52 0 -90.5 31t-56 78.5t-17.5 102.5q0 53 17 99q29 79 77 150t99.5 121t111.5 97t109.5 78.5t97.5 65t72 56.5h-210q-128 0 -128 120q0 64 41 161q11 31 32 46t44 15t39.5 -13.5t16.5 -35.5q0 -13 -5 -23q-25 -69 -25 -101q0 -38 37 -38h2q112 -3 301 -3q29 0 42.5 -18.5
t13.5 -46.5q0 -42 -22 -65q-55 -58 -133 -119.5t-145 -110t-133 -100.5t-115 -110t-72 -118q-16 -43 -16 -87t16.5 -73.5t38.5 -29.5h1q34 3 38 3q3 0 9.5 -1t20.5 -2z" />
    <glyph glyph-name="eta" unicode="&#x3b7;" horiz-adv-x="773" 
d="M412 662l-215 -583q-22 -57 -35.5 -68t-57.5 -11h-16q-44 0 -44 48q0 13 5 32l274 734q10 30 10 46.5t-10 27.5t-21.5 17t-21.5 20t-10 37q0 17 11.5 28t32.5 15t35.5 5t35.5 1q14 0 28.5 -9t22 -16t25.5 -29t22 -27l15 13q16 12 40 27.5t60 28t71 12.5q99 0 147.5 -40
t48.5 -113q0 -56 -28 -133l-369 -996q-8 -23 -15.5 -56.5t-17.5 -59.5q-5 -14 -25 -21t-36.5 -8t-44.5 -1q-35 0 -35 38q0 28 24 92l377 1020q25 70 25 97q0 51 -73 51q-26 0 -50 -6.5t-43 -17t-36.5 -24.5t-30.5 -29.5t-24.5 -32t-19.5 -32.5t-14.5 -30t-10 -24.5t-5 -16.5
z" />
    <glyph glyph-name="theta" unicode="&#x3b8;" horiz-adv-x="908" 
d="M137 338h-2q-24 0 -43.5 25.5t-19.5 54.5q0 22 15 36t46 15h57q41 0 69.5 -25t41.5 -62.5t24 -81t17.5 -81t20 -62.5t34.5 -25h1h2q36 0 67 24.5t58 69.5t54.5 109.5t55.5 145t61 175.5l28 79q-278 51 -278 241q0 54 21 115q54 145 126.5 204t199.5 59q185 0 185 -186
q0 -120 -75 -319q8 0 21.5 -0.5t20.5 -0.5h1q28 0 42.5 -16.5t14.5 -39.5q0 -29 -18 -51.5t-47 -22.5q-50 0 -75 2l-18 -54q-32 -90 -53.5 -149.5t-47 -124.5t-44 -105.5t-41 -84.5t-40.5 -68.5t-41 -50.5t-44.5 -38.5t-49 -23.5t-56 -15t-64.5 -4h-2q-45 0 -76 24.5
t-44.5 62t-24.5 81t-17.5 81t-22 63t-39.5 25.5zM768 859q66 191 66 274q0 49 -22 69.5t-65 20.5q-39 0 -79.5 -46.5t-58.5 -94.5q-18 -49 -18 -86q0 -60 45.5 -92.5t131.5 -44.5z" />
    <glyph glyph-name="iota" unicode="&#x3b9;" horiz-adv-x="448" 
d="M86 172l116 312q116 313 136 374q8 37 8 42q0 6 -2 28t-2 24q0 26 31.5 43t68.5 17q43 0 60 -23q9 -13 9 -31q0 -12 -3.5 -25.5t-9.5 -31.5t-8 -26l-235 -642q-20 -52 -20 -73q0 -24 21.5 -33.5t74.5 -9.5h2q16 0 26 -15.5t10 -37.5q0 -26 -17 -45t-51 -19h-115
q-48 0 -79.5 32t-31.5 82q0 31 11 58z" />
    <glyph glyph-name="kappa" unicode="&#x3ba;" horiz-adv-x="803" 
d="M903 958q-1 -10 -1.5 -16.5t-7.5 -19t-28 -41.5q-46 -66 -166.5 -191.5t-204.5 -183.5l199 -411q1 0 1 -18q0 -37 -12 -52q-18 -25 -56 -25q-48 7 -66 64l-188 381l-38 -8l-131 -360q-22 -56 -36 -67.5t-60 -11.5h-15q-49 0 -49 33q0 10 13 47l134 360q134 359 154 421
q1 7 1 9q0 11 -8.5 18t-19 11t-19 17.5t-8.5 34.5q0 32 36 49.5t83 17.5q64 0 83 -26q14 -20 14 -50q0 -27 -10 -64l-99 -270q84 59 196.5 170.5t157.5 176.5q24 33 40 47.5t33 14.5h5q31 -3 52.5 -16.5t21.5 -30.5q0 -3 -1 -10z" />
    <glyph glyph-name="lambda" unicode="&#x3bb;" horiz-adv-x="914" 
d="M477 1055q-5 39 -30.5 104.5t-49.5 106.5q-13 18 -13 38q0 31 29 53t51 22q31 0 48 -10.5t42 -52.5q13 -22 26.5 -63.5t22 -77.5t15.5 -69l7 -33v0l78 -569q13 -98 41.5 -194t50 -152t21.5 -65q-1 -6 -1 -15v-16q0 -23 -9 -36q-18 -25 -62 -25q-26 4 -41.5 20.5
t-27.5 44.5q-1 3 -10 22t-16 36t-19 52.5t-22 73.5t-21 96.5t-19 123.5l-36 279l-350 -671q-6 -7 -20 -26.5t-22.5 -27.5t-27.5 -16.5t-45 -8.5h-4q-44 0 -44 46q0 3 6 34l470 888z" />
    <glyph glyph-name="mu" unicode="&#x3bc;" horiz-adv-x="866" 
d="M902 837l-140 -370q-32 -113 -32 -200q0 -113 56 -157q10 -8 16 -13t11.5 -15.5t5.5 -22.5q0 -25 -16.5 -42t-50.5 -17q-118 0 -130 148q-112 -148 -290 -148q-48 0 -80.5 37.5t-31.5 92.5l-142 -383q-23 -61 -25 -68q-11 -29 -18 -43.5t-22 -30t-39 -21t-61 -5.5
q-18 0 -25.5 16t-7.5 36q0 2 0.5 5.5t0.5 5.5q5 32 24.5 56t30.5 49q21 54 206.5 567t197.5 548q5 21 6.5 29.5t3.5 23t6 38.5q5 27 33.5 45t60.5 18q37 0 53 -23q10 -13 10 -33q0 -16 -7.5 -40t-13.5 -40l-113 -304q-12 -33 -26.5 -73.5t-26.5 -76.5t-20.5 -69t-10.5 -50
q0 -4 -0.5 -11t-0.5 -11q0 -36 7 -69t25.5 -59.5t46.5 -26.5q37 0 76.5 34t73.5 89t61 114t47 119q25 76 139 395q9 23 17 43t17 36t19.5 27.5t26 17.5t35.5 6q78 0 78 -40q0 -9 -5 -23q-14 -44 -32 -69t-24 -42z" />
    <glyph glyph-name="nu" unicode="&#x3bd;" horiz-adv-x="800" 
d="M338 0q-41 0 -41 38l-34 890q0 48 18 65.5t50 17.5q35 0 55.5 -13t20.5 -50l18 -758q267 326 404 751q19 33 42.5 53.5t42.5 20.5h3q33 -3 51 -12t18 -28q0 -9 -3 -17q-6 -15 -12 -32.5t-9.5 -27.5t-8.5 -17q-171 -498 -501 -851q-11 -15 -23 -21.5t-19 -7t-25 -0.5z" />
    <glyph glyph-name="xi" unicode="&#x3be;" horiz-adv-x="739" 
d="M777 1228h66q28 0 43 -16.5t15 -40.5q0 -26 -18 -47t-47 -21q-20 0 -78 -2q-134 -4 -160 -103q-5 -17 -5 -29q0 -31 17.5 -56t44 -40.5t52.5 -24.5t49 -11q24 -1 38 -20t14 -45t-15.5 -45t-44.5 -19q-31 -2 -82 -21t-111.5 -55t-117.5 -81.5t-105 -106t-71 -121.5
q-17 -46 -17 -87q0 -48 22.5 -75.5t48.5 -27.5h3h51q37 -1 73.5 -13t67.5 -35t50 -60.5t19 -83.5q0 -47 -22 -106q-16 -41 -40.5 -71t-50.5 -47t-60.5 -26.5t-63 -12.5t-64.5 -3h-157q-19 0 -30.5 16.5t-11.5 38.5q0 25 15 43.5t42 18.5h165q56 0 83 19.5t49 80.5q4 16 4 26
q0 38 -37.5 60t-79.5 26h-60q-43 0 -76.5 16t-52.5 44t-28.5 62t-9.5 73q0 61 20 116q20 53 48.5 103.5t58 89.5t66.5 77.5t67 64t65.5 52t56 39.5t45 28.5t27.5 16.5q-34 26 -62 81t-28 124q0 22 5 52q12 62 62 108q-51 46 -51 117q0 27 10 53q12 31 33.5 46t44.5 15
t39 -13.5t16 -35.5q0 -10 -4 -23q-10 -28 -10 -46q0 -38 43 -38h4h2q6 0 56 1t70 1z" />
    <glyph glyph-name="omicron" unicode="&#x3bf;" horiz-adv-x="758" 
d="M344 554q-56 -154 -80.5 -233t-24.5 -123q0 -35 17 -51.5t53 -16.5q94 0 154 83q48 64 121 258q9 24 27 73q37 102 55 162t18 100q0 72 -74 72h-4q-88 -2 -132 -47q-40 -41 -93 -177q-11 -31 -37 -100zM201 554q38 101 65 165.5t58 120.5t58.5 85.5t65.5 50.5t80 28
t101 7q105 0 152.5 -31.5t47.5 -117.5q0 -104 -74 -321q-41 -120 -71.5 -198.5t-65 -143.5t-65.5 -100t-74 -59t-89 -32t-112 -8q-101 0 -146 30.5t-45 107.5q0 60 28 158t86 258z" />
    <glyph glyph-name="pi" unicode="&#x3c0;" horiz-adv-x="870" 
d="M509 218q45 142 237 663h-209l-236 -628q-60 -156 -129 -216q-15 -12 -21.5 -19.5t-18 -11.5t-27 -5t-49.5 -1q-18 0 -28.5 13.5t-10.5 32.5q0 8 2 16q6 21 23 43t36 39t41 46.5t34 62.5l238 628h-37q-37 0 -60 14.5t-23 57.5v6q3 61 75 61q20 0 61 -5.5t57 -5.5h8l387 2
q37 0 67.5 8.5t47.5 8.5q12 0 31 -3q34 -5 34 -41q0 -34 -26 -65q-21 -24 -39.5 -31t-40.5 -7h-7h-35l-233 -648q-16 -42 -16 -70q0 -46 47 -46h1q17 1 27.5 -15t10.5 -39q0 -26 -17 -44.5t-52 -18.5h-50q-19 0 -37.5 7t-36.5 21.5t-29.5 41t-11.5 60.5q0 40 15 88z" />
    <glyph glyph-name="rho" unicode="&#x3c1;" horiz-adv-x="756" 
d="M44 -287q-5 -13 -18 -34t-16 -31q-8 -20 -15.5 -31.5t-14.5 -19t-23 -10.5t-29 -3.5t-44 -0.5q-19 0 -31.5 12t-12.5 25v8q8 19 23 35.5t27 49.5q50 102 101.5 233.5t81.5 217.5t86 254.5t75 225.5q30 79 56.5 136.5t55.5 98.5t57.5 66.5t64.5 40t73 20t87 5.5
q38 0 68.5 -9t57.5 -30t42.5 -62t15.5 -98q0 -119 -70 -310q-28 -76 -49.5 -132.5t-43.5 -106.5t-38 -84.5t-36 -63.5t-34 -47t-35.5 -32t-37 -20t-42.5 -10.5t-47.5 -5t-55.5 -0.5q-49 0 -81.5 15.5t-62.5 50.5zM329 506q-77 -234 -77 -302q0 -42 22 -58t72 -16h5
q44 1 75.5 23t56 67t50.5 113t59 160q68 184 68 287q0 101 -67 101q-28 0 -51.5 -7.5t-42.5 -19.5t-37 -36t-33 -50t-32.5 -69.5t-32 -85.5t-35.5 -107z" />
    <glyph glyph-name="sigma" unicode="&#x3c3;" horiz-adv-x="770" 
d="M344 554q-94 -254 -94 -348q0 -74 59 -76h7q90 0 150 85q46 65 119 260q7 18 26 69q43 116 43 205q0 62 -21 95.5t-56 33.5h-1q-41 -1 -74.5 -28.5t-72.5 -99t-85 -196.5zM629 1011h145q38 0 81.5 17t69.5 17h20q34 -5 34 -42q0 -34 -26 -65q-26 -29 -90 -46t-108 -17h-6
q32 -68 32 -176q0 -89 -26 -158q-34 -92 -58 -153t-51.5 -121t-48.5 -95.5t-48.5 -69.5t-53 -50.5t-60 -30t-71.5 -17.5t-86 -4q-162 0 -162 188q0 135 85 366q37 101 64.5 166t58.5 120t59 85t66 51t79.5 28t100.5 7z" />
    <glyph glyph-name="tau" unicode="&#x3c4;" horiz-adv-x="858" 
d="M312 212l250 669h-201q-38 0 -60.5 14.5t-22.5 57.5v6q2 61 75 61q20 0 61 -5.5t57 -5.5h7l337 2q39 0 82 17t68 17h21q34 -5 34 -42q0 -34 -27 -65q-48 -57 -166 -57h-8h-111l-240 -648q-12 -32 -12 -57q0 -31 17.5 -45t44.5 -14h2q16 1 27 -15.5t11 -38.5
q0 -26 -17 -44.5t-52 -18.5h-77q-40 0 -77.5 37.5t-37.5 98.5q0 36 15 76z" />
    <glyph glyph-name="upsilon" unicode="&#x3c5;" horiz-adv-x="736" 
d="M670 361q-25 -70 -67.5 -133.5t-97.5 -115t-124.5 -82t-142.5 -30.5q-79 0 -116 32t-37 103q0 103 86 337l62 165q61 164 82 225q2 13 2 21t-9.5 29t-9.5 44q0 26 36.5 43t78.5 17q48 0 65 -23q9 -13 9 -30q0 -12 -3.5 -26t-9.5 -31.5t-8 -25.5l-155 -423
q-32 -88 -45.5 -126t-26 -84t-12.5 -71q0 -46 40 -46h1q58 1 118 53t105.5 126t77.5 158q50 137 75 242.5t25 208.5v8q0 33 20 57.5t48 24.5q34 0 54 -12.5t22 -49.5q-1 -117 -15.5 -199t-46.5 -165.5t-81 -220.5z" />
    <glyph glyph-name="phi" unicode="&#x3c6;" horiz-adv-x="1135" 
d="M585 135q46 6 85.5 19.5t84 42t82.5 70t76 106.5t69 149q66 178 66 266q0 93 -71 93q-19 0 -33 -1t-28.5 -6.5t-24 -9.5t-22 -17.5t-20 -23t-20 -34.5t-20.5 -43t-23.5 -57t-26.5 -68t-31 -84zM536 1q-58 -156 -114 -288q-5 -14 -14.5 -35t-12.5 -30q-7 -19 -16 -31.5
t-17.5 -19.5t-27 -10t-32.5 -3.5t-45 -0.5q-22 0 -29 9t-1 24q7 20 22 43t27 54l113 292q-118 14 -188.5 85.5t-70.5 189.5q0 82 34 175q81 218 133.5 317.5t133.5 179.5q77 75 109 75q41 0 57 -8t16 -24q0 -11 -6 -25q-7 -19 -16 -32.5t-18 -22.5t-21 -23
q-43 -47 -57.5 -62t-39.5 -47.5t-31.5 -44t-25 -50t-29 -67.5t-35.5 -94q-53 -140 -53 -230q0 -156 154 -165l151 415q88 234 120 297q52 101 120 135q63 32 185 32q86 0 131 -51t45 -152q0 -125 -70 -315q-34 -92 -71.5 -164.5t-74.5 -123t-80 -87.5t-82 -58.5t-87.5 -34.5
t-90 -18t-95.5 -6z" />
    <glyph glyph-name="chi" unicode="&#x3c7;" horiz-adv-x="892" 
d="M863 941q25 32 51.5 53t44.5 21q41 0 56.5 -7.5t15.5 -23.5q0 -11 -5 -26q-8 -24 -11.5 -31.5t-30.5 -45.5q-150 -212 -457 -612l21 -532q2 -31 12 -72.5t10 -50.5q0 -8 -4 -12q-31 -45 -63 -45q-23 2 -40.5 15.5t-26 33t-12.5 36t-4 29.5l-24 428l-348 -458
q-4 -4 -13.5 -18.5t-14 -20t-15 -15.5t-20 -14t-24.5 -8t-32 -4h-5q-43 1 -43 47q0 16 6 34l495 663l-14 324q-2 38 -18 127.5t-27 132.5q-5 23 -5 42q0 35 16 56t34 21h9q17 0 27.5 -1.5t23.5 -7t23 -19t16 -34.5q18 -58 31.5 -144.5t14.5 -157.5l3 -163z" />
    <glyph glyph-name="psi" unicode="&#x3c8;" horiz-adv-x="1166" 
d="M1260 849l-31 -104q-32 -104 -86 -250q-43 -118 -87 -203.5t-86 -140.5t-90 -88t-94 -46t-103 -14l-122 -3l-102 -287q-26 -62 -27 -65q-6 -17 -10.5 -27t-12.5 -18.5t-13 -11.5t-19.5 -5.5t-25.5 -2.5h-37q-23 0 -35.5 9.5t-7.5 23.5q9 21 19 44t22 53q17 41 55 145
t53 142l-129 3q-64 1 -108 62t-44 170q0 120 58 272q42 113 74.5 183.5t50 105.5t30.5 72q1 11 1 14q0 12 -9 21.5t-18.5 23t-9.5 35.5q0 26 40.5 43t87.5 17q54 0 71 -22q9 -13 9 -31q0 -12 -3.5 -25.5t-9.5 -31.5t-8 -26q-44 -120 -87 -206t-77 -179q-56 -159 -56 -255
q0 -112 74 -113l105 -3l368 1006l29 82q13 34 41 55t60 21h2q18 -1 35 -15t17 -32q0 -3 -2 -10l-38 -103l-365 -1004l67 3q96 3 175 90t146 270q47 128 89 264l41 135q24 71 46.5 100.5t69.5 29.5q40 0 58.5 -9t18.5 -30q0 -8 -4 -23q-14 -43 -31.5 -67.5t-24.5 -43.5z" />
    <glyph glyph-name="omega" unicode="&#x3c9;" horiz-adv-x="1138" 
d="M1142 948v-20q0 -20 0.5 -56.5t0.5 -53.5q0 -128 -16 -234t-69 -256q-33 -84 -69.5 -144t-72 -95.5t-78.5 -55.5t-81 -26.5t-89 -6.5q-33 0 -61 11.5t-45 27.5t-29.5 32.5t-17.5 27t-5 11.5l-5.5 -11.5t-24 -27.5t-46.5 -32t-80 -27.5t-116 -11.5q-78 0 -115 52t-37 133
q0 77 29 152q61 168 133 301t182 303q26 32 52.5 53t44.5 21q41 0 56.5 -7.5t15.5 -23.5q0 -10 -5 -26q-11 -26 -21 -43t-22 -34q-51 -81 -93.5 -148t-74.5 -121t-57 -105t-42 -98q-44 -129 -44 -198q0 -81 56 -81q52 0 110.5 51t74.5 95q80 216 80 225v5q14 35 29 45.5
t49 12.5h4q27 0 44 -14.5t17 -42.5q0 -17 -8 -40q-52 -141 -52 -147l4 4q2 5 2.5 5t-4.5 -14q-13 -36 -13 -82q0 -44 15 -73.5t47 -29.5q38 0 79.5 32t77 82.5t63 102.5t48.5 103q41 116 41 281q0 44 -2.5 113.5t-2.5 84.5q0 32 20 57t48 25q33 0 53.5 -13t21.5 -50z" />
    <glyph glyph-name="afii10023" unicode="&#x401;" horiz-adv-x="820" 
d="M215 130q0 2 428 2q30 0 46 -17.5t16 -43.5q0 -28 -18.5 -49.5t-49.5 -21.5h-1h-538q-57 0 -57 40q0 14 7 30l458 1242q15 40 68 40h459q68 0 68 -58q0 -25 -12 -56q-11 -27 -46 -27q-15 0 -40 5.5t-30 6.5l-355 -1l-163 -444h281h1q30 0 46 -17.5t16 -42.5
q0 -27 -18.5 -49t-49.5 -22h-2h-324zM713 1631h1q32 0 68 -36.5t36 -66.5q0 -40 -34 -74t-93 -34q-50 0 -72 29t-22 70q0 55 32 82.5t84 29.5zM1035 1631h3q28 0 48 -10.5t30.5 -27t15.5 -33.5t5 -34v-8q-9 -110 -123 -110q-51 0 -76.5 32t-25.5 72q0 56 35.5 87t87.5 32z
" />
    <glyph glyph-name="afii10017" unicode="&#x410;" horiz-adv-x="1040" 
d="M461 467l-250 -389q-3 -6 -10.5 -16.5t-22 -26t-38 -26t-49.5 -10.5h-3q-47 0 -47 45q0 4 4 26l793 1240q14 23 29 32.5t36 9.5h79q34 0 34 -38q0 -8 -1 -11l-104 -1205q-1 -14 1.5 -31t-0.5 -26q-2 -19 -22 -30t-42 -11q-84 0 -84 85q0 7 1 10l30 373zM857 1097
l-326 -519l271 1z" />
    <glyph glyph-name="afii10018" unicode="&#x411;" horiz-adv-x="838" 
d="M314 385l-100 -256l183 1q44 1 77 15t60.5 47.5t49 77.5t49.5 115q30 78 44 124t14 78q0 38 -22.5 56.5t-74.5 18.5q-105 0 -137 -12q-41 -16 -72 -78q-20 -41 -71 -187zM607 1351l326 1q67 0 67 -58q0 -25 -13 -56q-10 -27 -45 -27q-15 0 -40 5.5t-29 6.5h-254
l-159 -430q39 0 82.5 -0.5t82.5 -0.5h99h1q66 0 96 -23.5t30 -80.5q0 -81 -77 -303q-31 -88 -55 -145.5t-52.5 -103.5t-55 -70t-66.5 -40.5t-82.5 -21t-107.5 -4.5h-274q-13 0 -22 17.5t-9 40.5q0 18 6 33l435 1182q15 41 44.5 58t71.5 20z" />
    <glyph glyph-name="afii10019" unicode="&#x412;" horiz-adv-x="830" 
d="M502 907q14 0 35 -0.5t50 -0.5q82 0 129 41.5t76 118.5q14 37 14 69q0 87 -114 87q-71 0 -71 1h-2zM294 337q-50 -139 -50 -172q0 -22 13.5 -29t44.5 -7q9 0 31.5 0.5t36.5 0.5q32 0 55.5 5t55.5 23.5t59.5 52t60.5 94.5t65 147q40 111 40 184q0 36 -10 62.5t-25.5 41.5
t-37.5 23.5t-41.5 11t-42.5 2.5h-95zM150 0q-44 0 -70 16.5t-26 49.5q0 18 8 42l437 1185q22 59 114 59h125q68 0 117 -31t71.5 -77.5t22.5 -102.5q0 -37 -12 -75q-74 -217 -197 -237q18 -8 38 -22.5t36.5 -30.5t27 -46.5t10.5 -71.5q0 -91 -55 -244q-26 -72 -50 -127.5
t-49 -98.5t-47.5 -73.5t-50.5 -51.5t-53 -33t-60 -19t-66 -9t-76 -2h-195z" />
    <glyph glyph-name="afii10020" unicode="&#x413;" horiz-adv-x="752" 
d="M619 1223l-401 -1077q-8 -22 -15.5 -56t-17.5 -60q-5 -14 -25 -21t-36 -8t-45 -1q-36 0 -36 38q0 29 25 92l435 1178q14 41 81 44h476q66 0 66 -58q0 -25 -12 -56q-10 -27 -45 -27q-15 0 -40 5.5t-29 6.5h-381z" />
    <glyph glyph-name="afii10021" unicode="&#x414;" horiz-adv-x="824" 
d="M675 224q-6 -20 -6 -37q0 -24 13.5 -40.5t29.5 -23t29.5 -17t13.5 -23.5q0 -25 -21.5 -77t-57.5 -98t-67 -46q-18 0 -27 14.5t-12.5 34.5t-8.5 40.5t-20 34.5t-41 14h-407q-29 0 -38.5 -16t-9.5 -46v-24q0 -14 -1 -23t-6.5 -17.5t-16.5 -11.5h-12q-24 0 -44 26t-31 62
t-17 68t-6 51q0 26 21 43.5t42 17.5h94l291 610q203 424 321 540q65 64 144 71q18 1 56 1h113q22 0 48 -17t26 -43q0 -9 -3 -17l-188 -506q-189 -505 -201 -545zM498 130l399 1092h-52q-13 0 -19.5 -0.5t-18.5 -4t-20 -10t-22 -19t-27 -32t-31.5 -47t-39.5 -65.5t-48 -88
t-59 -113t-70 -140l-273 -572z" />
    <glyph glyph-name="afii10022" unicode="&#x415;" horiz-adv-x="820" 
d="M215 130q0 2 428 2q30 0 46 -17.5t16 -43.5q0 -28 -18.5 -49.5t-49.5 -21.5h-1h-538q-57 0 -57 40q0 14 7 30l458 1242q15 40 68 40h459q68 0 68 -58q0 -25 -12 -56q-11 -27 -46 -27q-15 0 -40 5.5t-30 6.5l-355 -1l-163 -444h281h1q30 0 46 -17.5t16 -42.5
q0 -27 -18.5 -49t-49.5 -22h-2h-324z" />
    <glyph glyph-name="afii10024" unicode="&#x416;" horiz-adv-x="1181" 
d="M1330 1138q-24 -35 -76 -109.5t-84 -120t-69 -93.5t-57 -66q-1 0 -3.5 -161t-12.5 -292q-16 -189 -28 -217q-13 -32 -19.5 -45.5t-18.5 -22.5t-23 -10t-38 -1h-11q-40 0 -40 48q0 18 5 32q22 129 33 213q25 200 25 325q0 7 -0.5 20.5t-0.5 19.5l-126 -68l-187 -511
q-11 -28 -20.5 -44.5t-22 -24t-23.5 -9t-32 -1.5h-13q-46 0 -46 35q0 13 11 45l191 529l-36 42q-23 -17 -48.5 -43t-55 -64.5t-48.5 -63.5t-54.5 -76t-47.5 -67q-71 -99 -156 -258q-16 -29 -24 -40.5t-23 -22.5t-34 -13.5t-54 -2.5q-22 0 -22 32q0 19 11 49q10 26 48 94
t86 139q59 87 150.5 203.5t152.5 190l61 73.5l-4 11q-5 11 -15.5 110.5t-23.5 277.5q-5 82 -5 85q0 34 7 55q8 22 21.5 28.5t38.5 6.5h16q32 0 49.5 -13t26.5 -50l-6 -89q2 -72 2.5 -158t10.5 -176.5t29 -125.5l166 456q2 10 5 19t4 13t1.5 9t0.5 12q0 10 -1 25t-1 16
q0 26 30.5 43t67.5 17q41 0 58 -23q9 -12 9 -31q0 -12 -3.5 -25.5t-9.5 -31t-8 -26.5l-172 -473q135 110 397 477q4 6 18 26.5t21.5 30.5t22.5 27t27 25.5t29 15.5t35 7h4q6 0 11.5 -0.5t10.5 -1t9.5 -2t8.5 -3.5t6.5 -5.5t4 -8t1.5 -11.5q0 -13 -10 -41q-5 -21 -49 -69
t-61 -72z" />
    <glyph glyph-name="afii10025" unicode="&#x417;" horiz-adv-x="849" 
d="M296 337q-23 -58 -23 -101q0 -54 32 -81t77 -27q43 0 81 18t64.5 44t51.5 69t40 78t34 85q49 131 49 214q0 21 -3.5 39t-9.5 31t-14 24t-18 18t-21 13.5t-22.5 10t-23 8t-21.5 6.5q-24 11 -24 35q0 14 11.5 25.5t34.5 15.5q2 0 5 1q26 4 38 6.5t33 8t32 10.5t28 14
t27.5 20.5t24.5 28t25 37t23 47.5t24 60q8 16 8 37q0 39 -30 64.5t-89 25.5q-17 0 -28.5 -1t-33 -5.5t-36.5 -13t-31 -26.5t-26 -43q-20 -54 -34 -67t-52 -13h-25q-42 1 -42 43q0 15 7 38q24 62 46.5 100t57 66.5t81.5 40t116 11.5q126 0 198.5 -52.5t72.5 -134.5
q0 -31 -12 -65q-22 -62 -48 -112.5t-48.5 -80t-47.5 -51t-40.5 -30.5t-30.5 -14q56 -70 56 -176q0 -95 -44 -219q-61 -171 -107 -244q-95 -153 -264 -172q-28 -4 -58 -4q-110 0 -175.5 58t-65.5 164q0 72 32 157q9 28 27 42.5t49 16.5h5q27 0 46 -16t19 -44q0 -17 -8 -38z
" />
    <glyph glyph-name="afii10026" unicode="&#x418;" horiz-adv-x="900" 
d="M1145 1290l-420 -1144q-8 -22 -15.5 -56t-17.5 -60q-5 -14 -25 -21t-36 -8t-45 -1q-36 0 -36 38q0 27 25 92l328 866l-718 -966q-8 -11 -13 -16t-16 -9.5t-26 -4.5h-76q-22 0 -22 18q0 9 5 23l428 1158l16 91q5 26 34 44.5t61 18.5q35 0 52 -23q8 -12 8 -31
q0 -12 -3 -25.5t-9 -31t-8 -26.5l-290 -786l675 897q17 25 48 25h70q31 0 31 -35q0 -11 -5 -27z" />
    <glyph glyph-name="afii10027" unicode="&#x419;" horiz-adv-x="898" 
d="M718 1536q20 0 40 -5q17 -4 26.5 -15t12.5 -21t16 -18t37 -8h2q28 0 45.5 8.5t26 20l17 23t25.5 19.5t44 8q1 0 4.5 -0.5t4.5 -0.5q60 -2 60 -37q0 -14 -7 -32q-11 -31 -79.5 -60.5t-168.5 -29.5q-50 0 -86.5 8.5t-54 22.5t-25 28t-7.5 29q0 25 15.5 42.5t51.5 17.5z
M1145 1290l-420 -1144q-8 -22 -15.5 -56t-17.5 -60q-5 -14 -25 -21t-36 -8t-45 -1q-36 0 -36 38q0 27 25 92l328 866l-718 -966q-8 -11 -13 -16t-16 -9.5t-26 -4.5h-76q-22 0 -22 18q0 9 5 23l428 1158l16 91q5 26 34 44.5t61 18.5q35 0 52 -23q8 -12 8 -31q0 -12 -3 -25.5
t-9 -31t-8 -26.5l-290 -786l675 897q17 25 48 25h70q31 0 31 -35q0 -11 -5 -27z" />
    <glyph glyph-name="afii10028" unicode="&#x41a;" horiz-adv-x="803" 
d="M605 367q-8 71 -19 133.5t-18.5 98t-28.5 130.5l-124 -56l-197 -527q-8 -22 -15.5 -56t-17.5 -60q-5 -14 -25 -21t-36 -8t-45 -1q-36 0 -36 38q0 29 25 92l412 1112q28 73 46 91.5t68 18.5q46 0 46 -45q0 -27 -14 -65l-152 -411q131 65 244 172t196 239q18 28 26.5 40.5
t25 32.5t31.5 28.5t32 8.5q60 0 60 -47q0 -24 -15 -63q-6 -15 -22 -39l-16 -24q-51 -77 -169 -203t-197 -181l14 -69q14 -69 32 -175t25 -182q8 -79 11 -120.5t3.5 -73.5t1.5 -84q1 0 1 -18q0 -36 -11 -52q-18 -25 -58 -25q-47 7 -65 65l-4 106q-5 107 -15 200z" />
    <glyph glyph-name="afii10029" unicode="&#x41b;" horiz-adv-x="872" 
d="M346 740q110 301 253 456.5t331 155.5h130q20 0 39.5 -15.5t19.5 -39.5q0 -12 -5 -22l-416 -1129q-8 -22 -15.5 -56t-16.5 -60q-6 -14 -26 -21t-36 -8t-44 -1q-36 0 -36 38q0 29 24 92l400 1092h-52q-53 0 -115.5 -48t-119 -124t-105 -167t-79.5 -180q-32 -91 -56 -157
t-56.5 -144t-60 -132.5t-62 -109t-68 -87t-73 -53t-80.5 -20.5q-47 0 -72 12.5t-25 33.5q0 15 8.5 27.5t19.5 20.5t30 15.5t31.5 11.5t34.5 9q32 10 90.5 114.5t114 240.5t93.5 255z" />
    <glyph glyph-name="afii10030" unicode="&#x41c;" horiz-adv-x="1136" 
d="M569 1089l-350 -943q-8 -22 -15.5 -56t-16.5 -60q-5 -14 -25 -21t-36 -8t-45 -1q-36 0 -36 38q0 31 26 92l421 1145q16 43 43.5 63.5t56.5 20.5q19 0 33.5 -8t18.5 -21l101 -538l503 535q43 33 89 33q42 0 42 -33q0 -13 -4 -25l-425 -1156q-7 -22 -14.5 -56t-17.5 -60
q-5 -14 -25 -21t-36.5 -8t-44.5 -1q-36 0 -36 38q0 31 25 92l328 894l-396 -415q-17 -11 -39 -11q-35 0 -42 20z" />
    <glyph glyph-name="afii10031" unicode="&#x41d;" horiz-adv-x="887" 
d="M1108 1240l-406 -1111q-25 -58 -28 -65q-7 -19 -16 -31.5t-17.5 -19.5t-27 -10t-32 -3.5t-45.5 -0.5q-42 0 -30 33q8 20 22.5 43t26.5 54q20 49 104.5 283t84.5 235h-338l-209 -568q-22 -56 -36 -67.5t-60 -11.5h-15q-49 0 -49 31q0 7 2 15t6 20t5 14l206 552
q205 551 225 612q27 73 45 91.5t69 18.5q46 0 46 -45q0 -23 -14 -65l-174 -466h339q21 57 54.5 151t59 162.5t57.5 148.5q12 30 20.5 54.5t28 40t51.5 15.5q59 0 59 -47q0 -27 -14 -63z" />
    <glyph glyph-name="afii10032" unicode="&#x41e;" horiz-adv-x="840" 
d="M778 1222q-61 0 -113.5 -50t-108.5 -161.5t-129 -308.5q-69 -186 -102 -302t-33 -181q0 -89 68 -89q38 0 73 17.5t68.5 55.5t63 84.5t63 118.5t62.5 143t66 171q106 281 106 397q0 105 -84 105zM279 698q121 328 174 431q69 134 150 181q74 42 210 42q51 0 86.5 -7.5
t64 -26t42.5 -53t14 -86.5q0 -145 -120 -471q-34 -92 -58.5 -155.5t-52 -131t-49 -112t-47 -90.5t-48 -74t-50 -55.5t-54.5 -42t-60.5 -26.5t-69 -16.5t-79.5 -4.5q-102 0 -149 38t-47 128q0 78 35 205.5t108 326.5z" />
    <glyph glyph-name="afii10033" unicode="&#x41f;" horiz-adv-x="876" 
d="M944 1221l-327 -1l-397 -1074q-8 -22 -15.5 -56t-16.5 -60q-6 -14 -26 -21t-36 -8t-44 -1q-36 0 -36 38q0 29 25 92l436 1184q7 19 21.5 28.5t42.5 9.5l484 -2q26 0 42 -14t16 -39q0 -15 -4 -27l-441 -1195q-21 -57 -34.5 -68t-57.5 -11h-16q-41 0 -41 43q0 16 5 37z" />
    <glyph glyph-name="afii10034" unicode="&#x420;" horiz-adv-x="834" 
d="M304 369l-86 -223q-8 -22 -15.5 -56t-17.5 -60q-5 -14 -25 -21t-36 -8t-45 -1q-36 0 -36 38q0 29 25 92l424 1144q17 46 46 62t73 16h207q110 0 161 -34t51 -124q0 -115 -93 -366q-27 -72 -49.5 -129t-44.5 -104t-40 -82t-38.5 -62.5t-37 -46t-39 -31.5t-40 -20
t-44.5 -10.5t-48.5 -4.5t-56.5 -1q-111 0 -140 4.5t-55 27.5zM468 815q-46 -125 -65 -185t-19 -95q0 -39 26.5 -53.5t88.5 -14.5q70 0 99 15q56 28 115 154q34 73 79 195q85 231 85 311q0 15 -2 26.5t-8 19.5t-10.5 13.5t-16 9.5t-19 6t-24 3t-25.5 1t-30 1h-23
q-58 0 -82 -19q-32 -26 -77 -140q-11 -28 -92 -248z" />
    <glyph glyph-name="afii10035" unicode="&#x421;" horiz-adv-x="834" 
d="M882 1119q8 22 8 37q0 66 -100 66h-30q-22 0 -36.5 -2.5t-35 -13.5t-38 -31t-41.5 -56t-49 -89t-56.5 -130t-68.5 -177q-85 -229 -120.5 -344t-35.5 -174q0 -39 16.5 -57t51.5 -18h18h18q32 0 53.5 3t47.5 13t45.5 33.5t32.5 60.5q24 62 24.5 62t-3 -11t-2.5 -11t1 2
q7 15 7.5 28t2.5 21q13 34 28.5 45t49.5 13h4q27 0 46 -16t19 -44q0 -16 -8 -37l-2 -6l1 7l1 6q-3 0 -27 -68q-15 -42 -32 -72t-46.5 -62t-68 -52t-97.5 -32.5t-135 -12.5q-97 0 -142 40.5t-45 128.5q0 83 37.5 216.5t115.5 343.5q32 87 54.5 145.5t48 120.5t44 100.5t42 79
t43 63.5t44.5 45.5t49 33.5t56 20.5t65 12t75 2.5q126 0 179.5 -41t53.5 -108q0 -38 -16 -85q-16 -43 -38 -61.5t-73 -18.5q-39 0 -39 49q0 19 3 32z" />
    <glyph glyph-name="afii10036" unicode="&#x422;" horiz-adv-x="890" 
d="M1085 1223l-211 -1l-402 -1092q-4 -13 -13.5 -33.5t-13.5 -30.5q-7 -20 -14.5 -32t-15 -19.5t-23.5 -10.5t-29 -3.5t-44 -0.5q-21 0 -32 12t-11 29q0 11 7 20.5t19.5 27t22.5 41.5q14 35 75 199t170 461.5t158 431.5h-323q-36 0 -59 14.5t-23 57.5v7q2 34 21.5 47
t53.5 13q20 0 60.5 -5.5t57.5 -5.5h8l621 2q35 0 51.5 -15.5t16.5 -42.5q0 -25 -12 -56q-11 -27 -46 -27q-15 0 -40 5.5t-30 6.5z" />
    <glyph glyph-name="afii10037" unicode="&#x423;" horiz-adv-x="864" 
d="M604 323q-30 6 -60 18.5t-68 32t-56 27.5q-26 12 -49 30t-45 44.5t-34.5 65t-12.5 84.5q0 69 30 152l163 447q9 24 17 44t17 36t19.5 27.5t25.5 17.5t35 6q78 0 78 -40q0 -12 -4 -23q-15 -45 -33 -72.5t-23 -39.5l-154 -412q-28 -76 -28 -122q0 -42 21 -70t69 -67
q31 -18 49.5 -25t40.5 -13.5t46 -15.5l287 761q10 24 18 44t17 36t19.5 27.5t26 17.5t35.5 6q40 0 58.5 -9.5t18.5 -30.5q0 -8 -4 -23q-11 -34 -20 -51.5t-19 -30.5t-18 -29l-339 -910q0 -1 -1 -2q-10 -28 -15.5 -42.5t-17.5 -40.5t-21.5 -40.5t-26 -35.5t-33 -33t-41 -26
t-51.5 -21.5t-62 -12.5t-76 -5q-64 0 -119 20t-89 51t-53.5 64.5t-19.5 62.5q0 13 4 23q4 12 9 24t11 21.5t17 16t25 6.5h2q21 -1 35 -14.5t14 -36.5q0 -61 47.5 -84t142.5 -23q40 0 67.5 10t50 35.5t38.5 56.5t39 86z" />
    <glyph glyph-name="afii10038" unicode="&#x424;" horiz-adv-x="1181" 
d="M1048 1308l-37 -101l151 1h2q37 0 65 -6.5t51.5 -22.5t35.5 -46.5t12 -73.5q0 -100 -65 -273q-100 -264 -133 -328q-42 -80 -93 -103q-38 -17 -126 -17q-11 0 -35.5 0.5t-38.5 0.5l-142 -2l-75 -207q-4 -9 -14 -31t-14 -33q-6 -18 -10.5 -28t-12 -18t-13 -11.5t-20 -6
t-25.5 -2.5h-37q-23 0 -35 9.5t-7 23.5q8 21 18 44t22 53l82 207l-148 2q-37 1 -59.5 3t-47.5 9t-38.5 19.5t-22.5 35t-9 54.5q0 101 87 338q92 247 133 314q41 68 99 85q36 10 137 11h181l30 82q13 34 41 54.5t60 20.5h2q18 0 34.5 -14t16.5 -32q0 -7 -2 -11zM965 1077
l-222 -610l87 3q8 0 21 -0.5t19 -0.5q23 0 38 1t30.5 4t25.5 8t22 14t19.5 21.5t18.5 29.5t19 40t21 52t24 64.5t29 79.5q60 164 60 225q0 44 -26.5 56t-89.5 12q0 1 -96 1zM819 1076l-84 -2q-7 0 -20 0.5t-19 0.5q-79 0 -111 -25q-36 -27 -78 -131q-13 -34 -48 -127
q-43 -118 -61 -177t-18 -91t19 -43t63 -11h10l125 -3z" />
    <glyph glyph-name="afii10039" unicode="&#x425;" horiz-adv-x="971" 
d="M971 1282q26 33 52.5 54t44.5 21q41 0 56.5 -8t15.5 -24q0 -10 -6 -26q-8 -25 -11 -31.5t-31 -45.5q-185 -263 -391 -524l56 -602q1 0 1 -18q0 -36 -11 -52q-18 -25 -58 -25q-27 4 -45.5 23t-19.5 42l-48 473l-364 -461q-7 -7 -17.5 -21.5t-18 -22.5t-19.5 -17.5
t-27.5 -13.5t-36.5 -4h-5q-43 0 -43 46q0 18 5 34l505 660l-53 530q0 2 -0.5 6.5t-0.5 7.5q0 69 68 69q35 0 54.5 -12.5t21.5 -49.5l36 -387z" />
    <glyph glyph-name="afii10040" unicode="&#x426;" horiz-adv-x="888" 
d="M1089 1240l-369 -1000q0 -2 -3.5 -12.5t-5.5 -22.5t-2 -23q0 -35 25 -52q13 0 28 -4t33 -13.5t30 -31t12 -50.5q0 -31 -14 -72q-44 -117 -101 -117q-7 0 -14.5 2t-8.5 2q-17 0 -27.5 20.5t-10.5 41.5q0 10 3 14l16 38q16 38 18 55q-32 0 -52.5 10t-33 26.5t-30.5 39.5
q-27 -19 -48 -31t-56.5 -28t-80 -24t-96.5 -8q-100 0 -145 33.5t-45 109.5q0 98 86 329l132 356q132 355 152 416q27 73 45 91.5t69 18.5q46 0 46 -45q0 -23 -14 -65l-291 -787q-28 -76 -40.5 -112t-24 -79.5t-11.5 -68.5q0 -33 17 -49.5t54 -17.5q49 0 88 12.5t79.5 43.5
t77 92t70.5 152q18 49 70.5 196.5t112.5 311.5t114 302q13 30 21.5 54.5t28 40t51.5 15.5q59 0 59 -47q0 -27 -14 -63z" />
    <glyph glyph-name="afii10041" unicode="&#x427;" horiz-adv-x="865" 
d="M1067 1179l-406 -1101q-20 -53 -33.5 -66.5t-49.5 -13.5q-17 0 -28 1q-43 0 -43 40q0 17 8 40l127 342q-65 -24 -113 -35t-121 -11q-159 0 -159 157q0 87 50 226l173 466q9 24 17 44t17 36t19.5 27.5t25.5 17.5t35 6q78 0 78 -40q0 -12 -4 -23q-15 -45 -33 -72.5
t-23 -39.5l-160 -429q-36 -100 -36 -160q0 -86 76 -86q35 0 58 3.5t54.5 17t56.5 40t55 74.5t60 118q32 76 57.5 147.5t56.5 162.5t53 154q10 23 18 43t17 36t19.5 27.5t26 17.5t35.5 6q40 0 58.5 -9.5t18.5 -30.5q0 -8 -4 -22q-11 -35 -20 -52.5t-19 -30.5t-18 -28z" />
    <glyph glyph-name="afii10042" unicode="&#x428;" horiz-adv-x="1241" 
d="M1432 1244l-382 -1029q-5 -13 -5 -28q0 -38 21 -68.5t62 -30.5h2q13 0 20.5 -9t7.5 -23q0 -21 -16.5 -38.5t-45.5 -17.5q-139 0 -176 108q-19 -17 -36 -31.5t-32.5 -26.5t-33 -21.5t-37 -15.5t-44 -9.5t-54.5 -3.5q-45 0 -79 7t-50 16t-26 20t-11.5 16t-1.5 7
l-13.5 -10.5t-40.5 -22.5t-83 -22.5t-125 -10.5q-44 0 -76.5 14t-50 37.5t-25.5 49t-8 52.5q0 34 9 58q19 46 184.5 500t189.5 527q26 73 44.5 91.5t69.5 18.5q46 0 46 -45q0 -25 -15 -65l-350 -955q-1 -5 -10 -27t-14 -39.5t-5 -32.5q0 -54 81 -54q46 0 81 11t56 30.5
t32.5 37.5t19.5 40l384 1041q12 34 27.5 45t49.5 13q1 1 5 1q25 0 41.5 -15t16.5 -43q0 -16 -8 -40l-354 -963q-26 -72 -26 -103q0 -55 62 -55q38 0 81 27t77 65.5t59 76.5t35 65l324 880q12 30 20.5 54.5t28.5 40t52 15.5q59 0 59 -48q0 -24 -14 -62z" />
    <glyph glyph-name="afii10043" unicode="&#x429;" horiz-adv-x="1229" 
d="M1432 1239l-361 -974q-2 -8 -8 -26.5t-10 -34.5t-4 -29q0 -31 22 -45q12 0 27.5 -4t33.5 -13.5t30 -31t12 -50.5q0 -31 -15 -72q-43 -117 -101 -117q-7 0 -14.5 2l-7.5 2q-18 0 -28.5 20.5t-10.5 41.5q0 10 3 14l16 38q17 38 19 55q-32 0 -53 10t-33 26.5t-31 39.5
q-49 -46 -100 -68.5t-135 -22.5q-45 0 -79 7t-50 16t-26 20t-11.5 16t-1.5 7l-13.5 -10.5t-40.5 -22.5t-83 -22.5t-125 -10.5q-44 0 -76.5 14t-50 37.5t-25.5 49t-8 52.5q0 34 9 58q19 46 187 503.5t192 529.5q27 73 45 91.5t69 18.5q46 0 46 -45q0 -23 -14 -65l-356 -961
q-1 -5 -10 -27t-14 -39.5t-5 -32.5q0 -54 81 -54q46 0 81 11t55.5 30.5t32.5 37.5t20 40l389 1045q13 35 28 45.5t49 12.5q2 1 5 1q25 0 42 -15t17 -42q0 -18 -9 -41l-359 -967q-26 -72 -26 -103q0 -55 62 -55q38 0 81 27t76.5 65.5t59 76.5t35.5 65q46 124 105 288
t109.5 301t109.5 286q13 30 21 54.5t27.5 40.5t51.5 16q60 0 60 -48q0 -23 -14 -63z" />
    <glyph glyph-name="afii10044" unicode="&#x42a;" horiz-adv-x="870" 
d="M352 385l-100 -256l183 1q44 1 77 15t60.5 47.5t49 77.5t49.5 115q30 78 44 124t14 78q0 38 -22.5 56.5t-74.5 18.5q-105 0 -137 -12q-41 -16 -72 -78q-20 -41 -71 -187zM655 1219l-157 -426h22h88q62 0 137 -1q62 0 95 -31.5t33 -104.5q0 -97 -61 -271
q-31 -88 -55 -145.5t-52.5 -103.5t-55 -70t-66.5 -40.5t-82.5 -21t-107.5 -4.5h-273q-14 0 -23 17.5t-9 40.5q0 18 5 33q5 11 107.5 287t200 538.5t111.5 306.5h-232h-3q-9 0 -15.5 1.5t-16 6.5t-15 19t-5.5 35q0 65 53 65h281h30q37 0 54 -3t23 -14q7 -13 7 -31
q0 -12 -2.5 -25t-8.5 -32.5t-7 -25.5z" />
    <glyph glyph-name="afii10045" unicode="&#x42b;" horiz-adv-x="1206" 
d="M314 385l-100 -256l183 1q44 1 77 15t60.5 47.5t49 77.5t49.5 115q30 78 44 124t14 78q0 38 -22.5 56.5t-74.5 18.5q-105 0 -137 -12q-41 -16 -72 -78q-20 -41 -71 -187zM56 91l408 1107q3 17 5 32.5t5 27t12 31.5q11 26 39 43.5t56 17.5q31 0 46 -21q9 -13 9 -31
q0 -16 -9.5 -47.5t-10.5 -34.5l-156 -423h22h88q62 0 137 -1q62 0 95 -31.5t33 -104.5q0 -97 -61 -271q-31 -88 -55 -145.5t-52.5 -103.5t-55 -70t-66.5 -40.5t-82.5 -21t-107.5 -4.5h-274q-24 0 -25 91zM1383 1214l-397 -1069q-8 -23 -15 -57t-16 -59q-6 -14 -26 -21
t-36 -8t-45 -1q-36 0 -36 38q0 31 25 92l187 503q187 503 207 564q3 17 5 32.5t4.5 27t12.5 31.5q11 26 39 44t56 18q31 0 46 -22q9 -13 9 -31q0 -15 -9.5 -47t-10.5 -35z" />
    <glyph glyph-name="afii10046" unicode="&#x42c;" horiz-adv-x="832" 
d="M314 385l-100 -256l183 1q44 1 77 15t60.5 47.5t49 77.5t49.5 115q30 78 44 124t14 78q0 38 -22.5 56.5t-74.5 18.5q-105 0 -137 -12q-41 -16 -72 -78q-20 -41 -71 -187zM56 91l408 1107q3 17 5 32.5t5 27t12 31.5q11 26 39 43.5t56 17.5q31 0 46 -21q9 -13 9 -31
q0 -16 -9.5 -47.5t-10.5 -34.5l-156 -423h22h88q62 0 137 -1q62 0 95 -31.5t33 -104.5q0 -97 -61 -271q-31 -88 -55 -145.5t-52.5 -103.5t-55 -70t-66.5 -40.5t-82.5 -21t-107.5 -4.5h-274q-24 0 -25 91z" />
    <glyph glyph-name="afii10047" unicode="&#x42d;" horiz-adv-x="841" 
d="M242 187q-5 -7 -5 -14q0 -18 28.5 -30.5t85.5 -12.5q95 0 152.5 41.5t93.5 129.5q18 45 35 93.5t39 113.5t37 107h-161q-34 0 -51.5 17t-17.5 41q0 28 22 50t59 23h202q44 80 82 183.5t38 179.5q0 112 -97 114h-4q-72 0 -113.5 -11t-57 -27.5t-21.5 -43.5
q-9 -41 -31.5 -58.5t-75.5 -20.5q-2 -1 -6 -1q-42 0 -42 36q0 14 9 45q38 102 124 156t240 54q110 0 163.5 -46t53.5 -142q0 -102 -61 -269l-152 -411q-33 -91 -56.5 -149.5t-50 -113.5t-46 -86.5t-48 -59.5t-52.5 -40t-63 -21.5t-76.5 -11.5t-94.5 -2q-63 0 -110.5 16
t-73 41.5t-37.5 53t-12 54.5q0 17 6 35q10 30 31.5 50.5t50.5 22.5h6q27 0 49 -13t22 -36q0 -18 -13 -37z" />
    <glyph glyph-name="afii10048" unicode="&#x42e;" horiz-adv-x="1192" 
d="M616 1216l-171 -461l228 -1q103 272 145 357q72 145 161 197q76 44 191 44q98 0 144.5 -43t46.5 -138q0 -148 -118 -473q-34 -94 -58.5 -159t-52 -133t-48.5 -112t-46 -89t-46 -71.5t-47.5 -52.5t-52.5 -39t-58.5 -24t-67 -14.5t-77.5 -3.5q-100 0 -145 35.5t-45 116.5
q0 71 32 184t98 295h-231l-202 -552q-22 -55 -36 -66.5t-60 -11.5h-15q-50 0 -50 26q0 11 17 54l196 529q196 528 216 589q3 17 5 33t5 27t12 31q11 26 39 44t56 18q30 0 46 -22q9 -12 9 -31q0 -15 -9.5 -46.5t-10.5 -36.5zM797 689q-18 -48 -35.5 -96t-33 -91.5t-28.5 -85
t-23 -77t-15 -67.5t-5 -56q0 -86 70 -86q36 0 65 11t58 39.5t53.5 66.5t56 106t61 142.5t72.5 190.5q17 42 38 101t39.5 114.5t31 114t12.5 99.5q0 107 -83 107q-23 0 -45.5 -11t-41.5 -26.5t-40.5 -45t-37.5 -55t-36.5 -68t-33.5 -71.5t-33 -80t-30 -78.5t-30 -79.5z" />
    <glyph glyph-name="afii10049" unicode="&#x42f;" horiz-adv-x="867" 
d="M1087 1222l-416 -1144q-21 -53 -34.5 -66t-49.5 -13h-27q-27 1 -39 14.5t-12 34.5q0 14 7 31l155 402q-76 -7 -132 -7q-32 0 -48 3q-21 -32 -60.5 -98.5t-71 -115.5t-58.5 -79q-55 -64 -154.5 -135.5t-148.5 -73.5h-9q-65 0 -65 25q0 21 11.5 38.5t25 27t42 27t45.5 30.5
l76 71q76 72 95 93q33 36 157 247q-34 22 -51.5 52t-17.5 83q0 102 76 308q26 71 45 120t40 91t35.5 67t37 45t38.5 29t45.5 15t53.5 7t67 1h48q61 0 91.5 -2t45.5 -5.5t39 -9.5q13 12 26.5 14.5t49.5 2.5q61 0 61 -54q0 -29 -19 -76zM758 1222q-14 0 -35.5 0.5t-29.5 0.5
q-12 0 -20.5 -0.5t-17.5 -4t-14.5 -5t-13.5 -10.5l-12 -13.5t-12.5 -21t-12.5 -26t-14 -36t-16 -42.5t-20 -53q-16 -46 -26 -72q-71 -191 -71 -254q0 -16 3.5 -26.5t12 -17.5t15.5 -10t21.5 -7.5t22.5 -8.5q16 -7 70 -7q37 0 85 3l47 3l150 409q60 165 63 173q2 9 -9 17.5
t-34 8.5h-132z" />
    <glyph glyph-name="afii10065" unicode="&#x430;" 
d="M864 837l-230 -622q-6 -17 -6 -39q0 -34 18.5 -56.5t55.5 -23.5q10 0 15.5 -11.5t5.5 -26.5q0 -22 -14.5 -40t-41.5 -18q-64 0 -104 26t-59 82q-72 -106 -246 -108q-42 0 -70 5t-51 18.5t-34 40t-11 67.5q0 125 123 460q25 68 51 124t49.5 97t49.5 73t46.5 53t46.5 35.5
t43.5 21.5t42.5 11t38.5 4.5t37.5 0.5h4q42 0 71 -7.5t41 -19.5t16 -21.5t4 -19.5l-1 -8q10 28 34 52t58 24q78 0 78 -40q0 -9 -5 -23q-15 -46 -33.5 -74t-22.5 -37zM598 509q45 122 65 188t20 108q0 39 -20 57.5t-65 18.5q-27 0 -46.5 -5.5t-44 -23.5t-47 -50.5
t-49.5 -88.5t-56 -135q-107 -293 -107 -383q0 -35 13 -50t40 -15q39 0 76 22.5t66.5 57.5t59 87t51 101.5t44.5 110.5z" />
    <glyph glyph-name="afii10066" unicode="&#x431;" horiz-adv-x="744" 
d="M613 881q-96 0 -159 -92q-44 -64 -114 -252q-4 -13 -14 -38q-33 -90 -47.5 -131t-28 -91.5t-13.5 -79.5q0 -34 16 -50.5t52 -16.5q33 0 60.5 7.5t47 18.5t36.5 29.5t27.5 35.5t21.5 43t17 45t15 47t16 45q38 105 57 158.5t39.5 130.5t20.5 120q0 71 -50 71zM181 499
q41 109 71.5 182t62.5 134t59 95.5t61 59t69.5 33t82.5 8.5q34 0 34 32q0 26 -23.5 81t-46.5 112.5t-23 90.5q0 11 3 19q9 30 24 41t61 29l164 8q163 9 190 9h2q30 0 46 -17.5t16 -43.5q0 -28 -18.5 -49.5t-49.5 -21.5h-3q-2 0 -25.5 0.5t-42.5 0.5q-190 0 -209 -27
q-2 -3 -2 -9q0 -14 18 -58.5t39.5 -97.5t39.5 -134.5t18 -160.5q0 -121 -40 -231q-61 -166 -103 -278t-87.5 -180t-109.5 -97t-169 -29q-98 0 -143 45.5t-45 131.5q0 113 79 322z" />
    <glyph glyph-name="afii10067" unicode="&#x432;" horiz-adv-x="757" 
d="M548 1100l-33 -89q67 0 116 31.5t66 77.5q4 12 14.5 34t17 39t6.5 30q0 34 -55 34q-20 0 -29.5 -1t-22 -7t-18.5 -13.5t-17 -28t-20 -43t-25 -64.5zM334 521q-36 -98 -52.5 -145.5t-31 -101t-14.5 -83.5q0 -61 57 -61h1q62 0 106.5 28.5t74 80.5t58 124t58.5 161
q52 139 52 224q0 36 -9.5 61.5t-22.5 39t-33 21.5t-36.5 10t-37.5 2q-7 0 -19.5 -0.5t-17.5 -0.5zM160 442l253 688q9 23 17 45t17.5 43t19 40t23 36t28.5 31.5t35 26t44 19.5t54.5 12t66.5 4q82 0 119 -38.5t37 -98.5q0 -48 -20 -97q-22 -56 -47 -96t-46.5 -58t-36 -25
t-25.5 -8q91 -13 91 -158q0 -140 -91 -388q-26 -70 -43.5 -114.5t-39.5 -91.5t-39.5 -74t-41.5 -54.5t-48.5 -41t-57.5 -25t-70 -15.5t-86 -4q-92 0 -136.5 36t-44.5 119q0 100 68 287z" />
    <glyph glyph-name="afii10068" unicode="&#x433;" horiz-adv-x="749" 
d="M508 197q12 34 40 54.5t60 20.5h2q19 0 35.5 -14.5t16.5 -31.5q0 -4 -2 -11q-8 -27 -20 -53.5t-24.5 -50.5t-37 -44.5t-58 -35t-87.5 -23t-126 -8.5q-49 0 -87 13t-61 33.5t-37.5 49.5t-20 56.5t-5.5 58.5q0 59 16 102q24 65 66 118t90 87t100.5 61t102 46t91.5 36
t71.5 37.5t38.5 44.5q16 46 16 74q0 36 -26 50t-84 14q-36 0 -81 -20t-58 -55q-12 -33 -20 -47t-19.5 -22.5t-27 -8t-43.5 -2.5h-5q-38 0 -38 42q0 20 8 39q15 39 37 72.5t56.5 64.5t86 49t114.5 18q250 0 250 -160q0 -53 -29 -131q-17 -45 -52.5 -81.5t-80.5 -62t-96 -48.5
t-102.5 -46t-96 -48.5t-80.5 -63t-52 -83.5q-11 -26 -11 -55q0 -45 26.5 -73.5t66.5 -28.5q82 0 122.5 15.5t54.5 51.5z" />
    <glyph glyph-name="afii10069" unicode="&#x434;" horiz-adv-x="783" 
d="M758 1222q-2 0 -12.5 1t-20 1.5t-23.5 -0.5q-17 -2 -37.5 -3t-44 -10.5t-35.5 -25.5q-1 -2 -7 -11.5t-10 -12.5t-14 -9t-25.5 -8t-38.5 -3h-1q-46 0 -46 33q0 28 12 48q11 18 20.5 31t34 33.5t54.5 33.5t80 22.5t112 9.5q200 0 200 -175q0 -91 -61 -258l-187 -502
q-23 -64 -40.5 -107.5t-38.5 -88.5t-39.5 -73t-43 -55.5t-50 -43t-59 -28t-72 -17t-86.5 -4.5q-164 0 -164 185q0 146 105 429q46 123 87.5 200.5t88.5 121t95 59.5t114 16q31 0 56.5 -4.5t41.5 -11t28 -14.5t17.5 -14.5t9 -11l3.5 -4.5l14 36q15 37 30 88t15 81
q0 66 -62 66zM325 506q-64 -181 -64 -280q0 -96 62 -96q26 0 49 7.5t41.5 19.5t36.5 35t32 45t31 60.5t30 70.5t33 84q50 128 83 222.5t33 136.5q0 36 -22 53t-72 17q-43 0 -81 -25t-64 -64.5t-51 -89.5t-41.5 -100t-35.5 -96z" />
    <glyph glyph-name="afii10070" unicode="&#x435;" horiz-adv-x="755" 
d="M367 609l109 -3h3q38 0 69.5 8t52 22t38 32.5t27.5 39l20 41t16 38.5q7 18 7 32q0 62 -115 62q-68 0 -122 -69t-105 -203zM799 656q-16 -43 -68.5 -95t-102.5 -68q-43 -13 -169 -13l-138 3q-22 -62 -33.5 -95.5t-24 -88t-12.5 -94.5q0 -75 51 -75q46 0 78.5 5t50.5 11
t30.5 19t16.5 22t11 28q13 34 41 54.5t60 20.5h1q19 0 35.5 -14.5t16.5 -32.5q0 -3 -1 -10q-9 -23 -16 -39.5t-22 -42t-32 -44.5t-45 -40.5t-60.5 -35t-78 -22.5t-99.5 -9q-180 0 -180 184q0 121 84 347q29 78 50 130.5t45 105t43.5 85t45 62.5t50 46.5t56.5 29t67.5 17
t81.5 4.5q59 0 101.5 -14.5t64.5 -41t31.5 -56.5t9.5 -66q0 -35 -13 -87.5t-27 -89.5z" />
    <glyph glyph-name="afii10072" unicode="&#x436;" horiz-adv-x="1135" 
d="M1179 796q-67 -70 -122.5 -119.5t-75.5 -64t-20 -18.5q0 -1 4.5 -30t8.5 -88t4 -133v-47v-17q0 -25 2 -73.5t2 -67.5q0 -43 -6 -59q-9 -21 -14 -32.5t-12.5 -22t-12 -14t-15 -6.5t-19 -3.5t-27.5 -0.5h-11q-41 0 -41 48q0 18 5 32q8 40 11 70.5t4 62t3 80.5q2 52 2 65
q0 60 -20 147l-126 -69l-129 -357q-11 -28 -20.5 -44.5t-22 -24t-23.5 -9t-33 -1.5h-12q-45 0 -45 35q0 16 10 45l133 375l-35 43q-32 -19 -58 -38.5t-46.5 -38.5t-40 -41t-40 -47.5t-45.5 -56.5q-46 -58 -79.5 -112t-43.5 -85q-13 -36 -25.5 -51t-36.5 -21.5t-74 -6.5
q-20 0 -20 32q0 21 9 49q27 69 102 172q44 61 103.5 131t104.5 117.5t77 81l32 33.5v1q-1 2 -5 14t-10.5 33.5t-20 68.5t-32.5 111q-7 22 -15.5 53t-8.5 51q0 17 4 28q8 22 21.5 28.5t38.5 6.5h15q31 0 49 -12.5t27 -50.5l17 -81q11 -90 31.5 -150t57.5 -128l39 102
q38 103 58 163q10 43 10 50q0 10 -1.5 25.5t-1.5 18.5q0 26 30.5 43t67.5 17q42 0 58 -22q9 -13 9 -31q0 -12 -3 -25.5t-9 -31.5t-8 -25l-102 -283q47 38 94 76.5t87 72t78.5 70t68.5 70.5q10 10 31.5 38.5t36.5 45.5t40 32.5t50 15.5h5q5 0 10.5 -0.5t10.5 -1.5t9.5 -2
t8.5 -3t6.5 -5.5t4 -8t1.5 -11.5q0 -16 -9 -41q-3 -14 -15.5 -32t-25 -31.5t-37.5 -39t-37 -39.5z" />
    <glyph glyph-name="afii10073" unicode="&#x437;" horiz-adv-x="750" 
d="M249 273q-22 -48 -22 -83q0 -60 56 -60q45 0 78.5 9.5t57 24.5t43 43.5t32.5 57.5t30 76q28 73 28 119q0 20 -6 34.5t-13 23t-22 16t-24.5 11t-30.5 9t-30 7.5q-17 6 -17 30q0 16 10 29t28 16q92 15 142.5 49t70.5 95q6 15 6 31q0 31 -24.5 50.5t-80.5 19.5h-7
q-20 0 -31.5 -1t-28 -4t-26.5 -11.5t-15 -20.5q-20 -54 -33.5 -67t-51.5 -13q-16 0 -25 1q-42 0 -42 42q0 20 7 38q12 32 21 50.5t28.5 43.5t44 38.5t65.5 23.5t94 10q65 0 114.5 -16.5t77.5 -43t41.5 -55t13.5 -57.5q0 -14 -4 -27q-35 -120 -73 -172t-90 -59q2 -9 15 -30.5
t23 -50t10 -62.5q0 -45 -21 -102q-55 -145 -85 -194q-59 -95 -164 -124q-62 -18 -151 -18q-93 0 -137.5 49.5t-44.5 129.5q0 63 24 133q11 28 29 42t49 16h4q27 0 46.5 -15.5t19.5 -42.5q0 -19 -9 -39z" />
    <glyph glyph-name="afii10074" unicode="&#x438;" horiz-adv-x="816" 
d="M719 881q10 23 18 43t17 36t19.5 27.5t25.5 17.5t35 6q77 0 77 -40q0 -12 -3 -23q-15 -46 -33.5 -74t-23.5 -37l-229 -622q-4 -19 -4 -36q0 -37 17.5 -62.5t54.5 -25.5q12 0 19.5 -10t7.5 -25q0 -21 -16 -38.5t-45 -17.5q-65 0 -104.5 26t-58.5 82q-10 -6 -32.5 -24.5
t-39.5 -30t-44.5 -25.5t-62 -21t-76.5 -7q-79 0 -116 32t-37 103q0 103 86 337l62 165q61 164 82 225q2 13 2 21t-9.5 29t-9.5 44q0 26 36.5 43t78.5 17q48 0 65 -23q9 -13 9 -30q0 -12 -3.5 -26t-9.5 -31.5t-8 -25.5l-155 -423q-37 -96 -64 -172t-27 -110q0 -45 48 -45
q86 0 163 85.5t126 214.5z" />
    <glyph glyph-name="afii10075" unicode="&#x439;" horiz-adv-x="804" 
d="M566 1301q20 0 40 -5q17 -5 26.5 -16t13 -21t16 -18t36.5 -8h2q28 1 45.5 9t26 19.5l17 23t25.5 19.5t45 8h8q60 -3 60 -37q0 -14 -7 -32q-11 -34 -80 -69t-167 -35q-51 0 -87.5 10.5t-54 27.5t-24.5 33t-7 31q0 25 15 42.5t51 17.5zM719 881q10 23 18 43t17 36
t19.5 27.5t25.5 17.5t35 6q77 0 77 -40q0 -12 -3 -23q-15 -46 -33.5 -74t-23.5 -37l-229 -622q-4 -19 -4 -36q0 -37 17.5 -62.5t54.5 -25.5q12 0 19.5 -10t7.5 -25q0 -21 -16 -38.5t-45 -17.5q-65 0 -104.5 26t-58.5 82q-10 -6 -32.5 -24.5t-39.5 -30t-44.5 -25.5t-62 -21
t-76.5 -7q-79 0 -116 32t-37 103q0 103 86 337l62 165q61 164 82 225q2 13 2 21t-9.5 29t-9.5 44q0 26 36.5 43t78.5 17q48 0 65 -23q9 -13 9 -30q0 -12 -3.5 -26t-9.5 -31.5t-8 -25.5l-155 -423q-37 -96 -64 -172t-27 -110q0 -45 48 -45q86 0 163 85.5t126 214.5z" />
    <glyph glyph-name="afii10076" unicode="&#x43a;" horiz-adv-x="803" 
d="M909 958q-1 -10 -1 -16.5t-7.5 -19t-27.5 -41.5q-37 -52 -80.5 -109t-108.5 -127.5t-108 -96.5l125 -453v-18q0 -37 -12 -52q-18 -25 -56 -25q-48 7 -66 64l-111 416l-115 -43l-131 -360q-22 -56 -36 -67.5t-59 -11.5h-16q-49 0 -49 33q0 10 13 47l134 360
q134 359 155 421q2 13 2 21t-9.5 28.5t-9.5 43.5q0 26 36 43t79 17q49 0 65 -22q9 -14 9 -32q0 -11 -3.5 -24.5t-9.5 -31.5t-8 -26l-105 -281q46 16 94.5 50t85 70.5t73.5 82.5t59 78t42 65q16 20 29 37t26.5 27t25.5 10h4q31 -3 52.5 -16.5t21.5 -30.5q0 -6 -2 -10z" />
    <glyph glyph-name="afii10077" unicode="&#x43b;" horiz-adv-x="833" 
d="M352 649q25 77 62 139.5t78.5 103t89 68t91.5 39.5t87 12h129q20 0 40 -15.5t20 -39.5q0 -12 -4 -23l-290 -787q-8 -22 -15.5 -56t-17.5 -60q-5 -14 -25.5 -21t-37 -8t-44.5 -1q-36 0 -36 38q0 26 25 92l273 751h-52q-6 0 -22 -5.5t-45 -23t-58 -45t-61.5 -79
t-55.5 -117.5q-24 -70 -42 -119.5t-40.5 -107.5t-41 -97.5t-41.5 -83t-44 -72t-47 -55.5t-52 -42.5t-57 -24.5t-65 -9q-44 0 -70.5 27t-26.5 51q0 19 12.5 28.5t28.5 12t42 5.5t40 6q38 8 89.5 91t97.5 193t86 235z" />
    <glyph glyph-name="afii10078" unicode="&#x43c;" horiz-adv-x="1042" 
d="M438 719l-219 -573q-8 -23 -15.5 -57t-16.5 -59q-5 -14 -25 -21t-36 -8t-45 -1q-36 0 -36 38q0 31 26 92l292 796q16 43 44 63.5t57 20.5q19 0 33.5 -7.5t18.5 -21.5l97 -432l426 429q16 16 41 24.5t48 8.5q43 0 43 -33q0 -11 -6 -25l-299 -807q-8 -21 -15 -55.5
t-17 -60.5q-5 -14 -25.5 -21t-36.5 -8t-45 -1q-36 0 -36 38q0 26 26 92l217 545l-341 -324q-24 -16 -47 -16t-29 16z" />
    <glyph glyph-name="afii10079" unicode="&#x43d;" horiz-adv-x="816" 
d="M338 458l-141 -379q-22 -56 -36 -67.5t-60 -11.5h-15q-49 0 -49 31q0 7 2 15t6 20t5 14l135 361q135 360 155 421q3 13 3 21t-10 29t-10 44q0 26 36.5 43t78.5 17q49 0 65 -23q9 -13 9 -30q0 -12 -3 -26t-9 -32t-8 -25l-107 -290l255 -1l106 292q10 23 17.5 43t16.5 36
t20 27.5t26 17.5t35 6q78 0 78 -40q0 -9 -5 -23q-15 -46 -33.5 -74t-22.5 -37l-258 -707q-4 -9 -14 -31t-14 -33q-7 -20 -16 -32.5t-17.5 -19.5t-27 -10t-32 -3.5t-45.5 -0.5q-42 0 -31 33q8 19 22.5 42.5t26.5 54.5q20 49 69.5 187.5t49.5 139.5z" />
    <glyph glyph-name="afii10080" unicode="&#x43e;" horiz-adv-x="758" 
d="M344 554q-56 -154 -80.5 -233t-24.5 -123q0 -35 17 -51.5t53 -16.5q94 0 154 83q48 64 121 258q9 24 27 73q37 102 55 162t18 100q0 72 -74 72h-4q-88 -2 -132 -47q-40 -41 -93 -177q-11 -31 -37 -100zM201 554q38 101 65 165.5t58 120.5t58.5 85.5t65.5 50.5t80 28
t101 7q105 0 152.5 -31.5t47.5 -117.5q0 -104 -74 -321q-41 -120 -71.5 -198.5t-65 -143.5t-65.5 -100t-74 -59t-89 -32t-112 -8q-101 0 -146 30.5t-45 107.5q0 60 28 158t86 258z" />
    <glyph glyph-name="afii10081" unicode="&#x43f;" horiz-adv-x="800" 
d="M418 662l-215 -583q-21 -57 -34.5 -68t-58.5 -11h-15q-44 0 -44 48q0 16 5 32l282 764q15 41 15 65q0 15 -6.5 24t-13 14.5t-6.5 12.5q0 22 24 36.5t54 14.5q38 0 63 -16t55 -50l10 10q10 11 28 23t49 22.5t65 10.5q103 0 154.5 -42.5t51.5 -119.5q0 -54 -25 -124
l-218 -579q-7 -22 -14.5 -56t-17.5 -60q-5 -14 -25 -21t-36.5 -8t-44.5 -1q-36 0 -36 38q0 32 25 92l224 603q21 58 21 88q0 60 -76 60h-5q-40 -1 -79 -24t-66 -55t-48 -64t-32 -54z" />
    <glyph glyph-name="afii10082" unicode="&#x440;" horiz-adv-x="785" 
d="M338 844q13 36 13 56q0 17 -12 32.5t-12 29.5q0 24 22.5 36.5t55.5 12.5q49 0 77 -7t50 -34q70 41 141 41q38 0 64 -3t51.5 -11.5t41 -24.5t25 -43t9.5 -64q0 -116 -90 -363q-28 -76 -49.5 -132.5t-43.5 -106.5t-38 -84.5t-36 -63.5t-34 -47t-35.5 -32t-37 -20
t-42.5 -10.5t-47.5 -5t-56.5 -0.5q-46 0 -75 8t-43.5 20t-37.5 38l-97 -252q-8 -22 -15.5 -56t-16.5 -59q-6 -14 -26 -21.5t-36 -8t-44 -0.5q-36 0 -36 37q0 28 25 92zM361 506q-83 -224 -83 -299q0 -45 24.5 -61t80.5 -16q43 0 74.5 22.5t56 67.5t50.5 113t59 160
q28 75 43.5 119.5t29 98.5t13.5 88q0 82 -72 82q-24 0 -44 -4t-37.5 -12.5t-32.5 -21.5t-28.5 -30.5t-25.5 -40t-24.5 -50.5t-25.5 -61t-27.5 -71.5t-30.5 -83.5z" />
    <glyph glyph-name="afii10083" unicode="&#x441;" horiz-adv-x="745" 
d="M615 196q-17 -47 -31.5 -74.5t-39 -54t-58.5 -39.5t-85.5 -20.5t-124.5 -7.5q-91 0 -135 33.5t-44 118.5q0 122 104 402q23 59 42.5 112t40 99.5t42.5 84.5t49 68t59.5 50.5t75 31.5t94.5 11q118 0 181 -42.5t63 -110.5q0 -30 -11 -59q-22 -56 -36.5 -67.5t-59.5 -11.5
h-16q-22 0 -32 13.5t-10 32.5q0 20 7 34q10 28 10 37q0 44 -96 44q-60 0 -98 -20t-62 -61t-47 -104.5t-54 -151.5q-40 -101 -72.5 -197t-32.5 -143q0 -37 17.5 -55.5t58.5 -18.5q67 0 105 15.5t47 41.5q7 15 7.5 28t3.5 20q13 35 28 45.5t49 13.5h5q26 0 44.5 -16t18.5 -44
q0 -19 -7 -38z" />
    <glyph glyph-name="afii10084" unicode="&#x442;" horiz-adv-x="1179" 
d="M70 130l261 714q14 34 14 55q0 19 -12.5 35t-12.5 25q0 22 24 37t54 15q39 0 64 -16.5t54 -49.5q14 20 28.5 32.5t49 23t85.5 10.5q35 0 57.5 -3.5t39.5 -15.5t27 -24.5t27 -39.5q43 40 96 61.5t141 21.5q90 0 138 -44.5t48 -130.5q0 -74 -38 -181l-191 -511
q-8 -22 -15.5 -56t-16.5 -60q-6 -14 -25.5 -21t-36 -8t-44.5 -1q-36 0 -36 38q0 32 25 93l193 523q29 81 29 149q0 80 -44 80q-25 0 -37 -0.5t-31.5 -1.5t-27.5 -2.5t-22.5 -5t-20.5 -8.5t-16.5 -13t-16.5 -18t-14 -24t-14.5 -31t-14.5 -38l-240 -661q-21 -54 -34 -67
t-49 -13q-17 0 -28 1q-44 0 -44 40q0 14 9 40l242 662q22 60 22 90q0 15 -5 24.5t-11.5 14.5t-20.5 7.5t-23.5 3t-28.5 0.5q-41 0 -73.5 -12.5t-55 -36t-37 -49.5t-26.5 -60l-219 -593q-5 -14 -14.5 -35t-11.5 -29q-8 -20 -15.5 -32t-14.5 -19.5t-23 -10.5t-29 -3.5
t-45 -0.5q-14 0 -21.5 6.5t-8.5 13.5t-1 19.5t4 21t14 27t20 42.5z" />
    <glyph glyph-name="afii10085" unicode="&#x443;" horiz-adv-x="813" 
d="M190 -287q77 0 121.5 35.5t71.5 112.5l74 196q-16 -12 -28.5 -21.5t-25.5 -16t-31.5 -11t-45.5 -6.5t-68 -2q-79 0 -116.5 30.5t-37.5 100.5q0 93 65 267l76 202q75 201 95 262q2 9 2 12q0 11 -6 18.5t-14 12.5t-15 17t-9 31v3q0 25 42.5 42.5t90.5 17.5q56 0 72 -23
q9 -13 9 -30q0 -12 -3 -26t-9 -32t-8 -25l-181 -490q-23 -62 -33 -91.5t-19.5 -64t-9.5 -54.5q0 -26 13 -38t41 -12q100 0 162 60.5t109 185.5l187 505q9 23 17 43t17 36t20 27.5t26 17.5t35 6q78 0 78 -40q0 -9 -5 -23q-15 -46 -33.5 -74t-22.5 -37l-371 -996
q-13 -33 -22.5 -55t-26 -51.5t-34 -49t-45 -40.5t-59 -33.5t-75.5 -21t-96 -8.5h-1q-58 0 -103 17.5t-69.5 45t-36 57.5t-11.5 60q0 22 7 41q4 9 7 19t7.5 19t10.5 15.5t15.5 10.5t21.5 4h1q21 0 35.5 -13.5t14.5 -38.5q0 -36 6 -57t23 -32t38 -14t60 -3z" />
    <glyph glyph-name="afii10086" unicode="&#x444;" horiz-adv-x="1077" 
d="M913 1114l-47 -133q21 5 44.5 13.5t47 12.5t69.5 4q29 0 50.5 -5.5t40.5 -18.5t29 -40t10 -66q0 -107 -76 -315q-110 -297 -156 -386q-61 -116 -133 -153q-55 -27 -144 -27q-48 0 -68.5 3t-35 8.5t-32.5 7.5l-109 -306q-4 -10 -13.5 -31.5t-13.5 -33.5q-7 -19 -16 -31.5
t-17.5 -19.5t-27 -10t-32 -3.5t-45.5 -0.5q-22 0 -29.5 9t-1.5 24q8 20 22.5 43t27.5 54q18 45 56 154.5t53 148.5q-12 -1 -26.5 -5.5t-42 -7.5t-79.5 -3q-66 0 -96.5 34t-30.5 101q0 120 111 421q42 113 72 184t61.5 128t63 86t67.5 43t84 14q54 0 82.5 -3.5t35.5 -7.5
t20 -10.5t33 -10.5l41 118q12 33 40 53.5t60 20.5h2q18 0 34.5 -14t16.5 -32q0 -7 -2 -11zM824 866l-264 -717q10 -3 24 -8t26.5 -8t31.5 -3q84 0 143 86q45 66 121 271q6 15 28 75q69 188 69 257q0 22 -5.5 35t-19.5 18.5t-25.5 7t-34.5 1.5h-1q-27 0 -41 -2.5t-26.5 -6.5
t-25.5 -6zM678 863q-11 2 -20 7t-21 8t-37 3q-32 0 -53 -4t-42.5 -18.5t-37 -34.5t-36 -61t-39 -88t-47.5 -125q-34 -93 -60 -161.5t-41.5 -121.5t-15.5 -82q0 -28 13.5 -41.5t43.5 -13.5q25 0 44.5 2.5t43 6.5t40.5 6z" />
    <glyph glyph-name="afii10087" unicode="&#x445;" horiz-adv-x="770" 
d="M841 877q-30 -43 -285 -338l76 -442v-18q0 -36 -11 -52q-18 -24 -57 -24q-48 7 -66 64l-60 333l-271 -322q-2 -6 -9 -16.5t-20.5 -26t-36 -26t-48.5 -10.5h-3q-43 0 -43 46q0 18 5 34l397 481l-66 368q-3 12 -3 21q0 62 71 62q31 0 49 -12.5t27 -50.5l41 -244l192 233
q26 32 52.5 53.5t44.5 21.5q72 0 72 -32q0 -6 -5 -25q-9 -26 -12 -32t-31 -46z" />
    <glyph glyph-name="afii10088" unicode="&#x446;" horiz-adv-x="804" 
d="M610 15q-32 0 -53 10t-33 26.5t-30 39.5q-17 -14 -42.5 -30t-51 -29.5t-68 -22.5t-94.5 -9q-79 0 -116 32t-37 103q0 103 86 337l62 165q61 164 82 225q2 13 2 21t-9.5 29t-9.5 44q0 26 36.5 43t78.5 17q48 0 65 -23q9 -13 9 -30q0 -12 -3.5 -26t-9.5 -31.5t-8 -25.5
l-155 -423q-37 -96 -64 -172t-27 -110q0 -45 48 -45q49 0 84 12t70.5 44.5t67.5 91.5t67 152l162 451q10 23 18 43t17 36t19.5 27.5t25.5 17.5t35 6q77 0 77 -40q0 -12 -3 -23q-15 -46 -33.5 -74t-23.5 -37l-207 -562q-7 -21 -15 -49.5t-8 -46.5q0 -33 25 -49q13 0 28 -4
t33 -13.5t30 -31t12 -50.5q0 -31 -15 -72q-43 -117 -100 -117q-7 0 -14.5 2t-8.5 2q-17 0 -28 21t-11 41q0 10 3 14l17 38q16 38 18 55z" />
    <glyph glyph-name="afii10089" unicode="&#x447;" horiz-adv-x="769" 
d="M315 862q1 9 1 12q0 10 -6.5 18.5t-14.5 14.5t-15 19t-7 30q0 25 42.5 42.5t90.5 17.5q55 0 72 -23q9 -13 9 -30q0 -12 -3.5 -26t-9.5 -31.5t-8 -25.5l-90 -247q-8 -20 -14.5 -38.5t-11.5 -34t-8 -29.5t-3 -25q0 -23 15 -35t49 -12h4q61 1 87 4.5t42.5 9t39.5 8.5
l142 400q10 23 18 43t17 36t19.5 27.5t25.5 17.5t35 6q78 0 78 -40q0 -9 -5 -23q-14 -45 -32.5 -73t-22.5 -38l-260 -707q-25 -60 -26 -64q-7 -20 -16.5 -32.5t-18 -19.5t-27 -10t-32.5 -3.5t-45 -0.5q-22 0 -29 9t-1 24q7 19 21.5 42.5t27.5 54.5q11 28 80 220
q-11 -3 -26 -8t-23.5 -7.5t-23 -4.5t-32.5 -2q-20 0 -32 1q-35 2 -66 12.5t-58 30t-43 54t-16 80.5q0 61 29 135l30 80q30 80 51 141z" />
    <glyph glyph-name="afii10090" unicode="&#x448;" horiz-adv-x="1204" 
d="M747 949q12 35 27.5 45.5t48.5 13.5h6q24 0 41 -15t17 -42q0 -18 -8 -40l-229 -623q-28 -69 -28 -103q0 -55 63 -55q38 0 79.5 23t74 56t56.5 67.5t34 60.5l197 544q10 24 18 44t17 36t19.5 27.5t25.5 17.5t35 6q40 0 59 -9.5t19 -30.5q0 -12 -5 -23q-14 -46 -32.5 -74
t-22.5 -37l-235 -623q-3 -10 -3 -28q0 -38 20.5 -68.5t61.5 -30.5h1q14 0 21.5 -9t7.5 -23q0 -21 -16.5 -38.5t-45.5 -17.5q-140 0 -176 108q-47 -60 -97.5 -84t-139.5 -24q-46 0 -79.5 7t-49.5 16t-26 20t-11.5 16t-1.5 7l-2 -2t-6 -5t-11 -7t-15.5 -9t-21 -10t-27 -9.5
t-34 -9t-41 -7.5t-48.5 -5t-57 -2q-44 0 -76.5 14t-50 37.5t-25.5 49t-8 52.5q0 32 11 58q18 46 115 312.5t122 338.5q1 9 1 12q0 10 -6.5 18.5t-14.5 14.5t-15 19t-7 30q0 25 42.5 42.5t90.5 17.5q55 0 72 -23q9 -13 9 -30q0 -12 -3.5 -26t-9.5 -31.5t-8 -25.5l-219 -597
q-7 -15 -19 -46.5t-12 -52.5q0 -54 81 -54q46 0 81 11t56 30.5t32.5 37.5t20.5 40z" />
    <glyph glyph-name="afii10091" unicode="&#x449;" horiz-adv-x="1204" 
d="M1255 838l-204 -560q-2 -7 -9.5 -29t-12 -40.5t-4.5 -33.5q0 -31 20 -45q13 0 28 -4t33.5 -13.5t30.5 -31t12 -50.5q0 -31 -15 -72q-44 -117 -101 -117q-7 0 -14.5 2t-8.5 2q-17 0 -27.5 20.5t-10.5 41.5q0 10 3 14l16 38q17 38 18 55q-31 0 -52 10t-33.5 26.5
t-30.5 39.5q-44 -57 -92 -74t-143 -17q-46 0 -79.5 7t-49.5 16t-26 20t-11.5 16t-1.5 7l-2 -2t-6 -5t-11 -7t-15.5 -9t-21 -10t-27 -9.5t-34 -9t-41 -7.5t-48.5 -5t-57 -2q-44 0 -76.5 14t-50 37.5t-25.5 49t-8 52.5q0 32 11 58q18 46 115 312.5t122 338.5q1 7 1 11
q0 10 -8.5 19t-19 14.5t-19.5 18.5t-9 31q0 25 45.5 42.5t97.5 17.5q58 0 75 -23q9 -13 9 -30q0 -12 -3.5 -26t-9.5 -31.5t-8 -25.5l-219 -597q-7 -15 -19 -46.5t-12 -52.5q0 -54 81 -54q46 0 81 11t56 30.5t32.5 37.5t20.5 40l260 700q12 35 27.5 45.5t48.5 13.5h6
q24 0 41 -15t17 -42q0 -18 -8 -40l-229 -623q-28 -69 -28 -103q0 -55 63 -55q38 0 78.5 23t72 56t55 67t33.5 61l202 544q10 24 18 44t17 36t19.5 27.5t25.5 17.5t35 6q40 0 59 -9.5t19 -30.5q0 -12 -5 -23q-14 -45 -33.5 -72t-25.5 -39z" />
    <glyph glyph-name="afii10092" unicode="&#x44a;" horiz-adv-x="785" 
d="M387 881h-156q-8 0 -14.5 1t-17.5 6.5t-17.5 20t-6.5 37.5q0 65 54 65h206h29q37 0 53.5 -3t23.5 -15q8 -14 8 -30q0 -12 -3 -25.5t-8.5 -32t-7.5 -25.5l-115 -307q42 21 134 21h21q94 -2 134.5 -38.5t40.5 -103.5q0 -75 -65 -250q-15 -42 -36.5 -74t-43 -53t-51.5 -36
t-53 -22.5t-57 -11.5t-53.5 -4.5t-52.5 -0.5h-10q-80 0 -140 40t-60 105q0 23 9 51zM313 291q-24 -65 -24 -100q0 -33 20.5 -47t63.5 -14q23 0 42 1.5t34 4.5t26.5 7t20.5 9t15.5 12t11.5 14.5t9 17t8 20t8 21.5q11 23 28 73t17 82q0 72 -82 72h-4q-26 -1 -43.5 -2
t-34.5 -5.5t-26.5 -7.5t-20.5 -14.5t-16.5 -19t-15 -28.5t-15 -35.5t-17.5 -47.5q-3 -9 -5 -13z" />
    <glyph glyph-name="afii10093" unicode="&#x44b;" horiz-adv-x="1088" 
d="M1181 878l-275 -733q-8 -22 -15.5 -56t-16.5 -59q-6 -14 -26 -21.5t-36 -8.5t-44 -1q-36 0 -36 39q0 27 24 92l127 334q126 335 146 396q5 24 5 31q0 5 -4.5 27t-4.5 37q0 25 33.5 42.5t72.5 17.5q45 0 61 -23q9 -14 9 -31q0 -16 -9.5 -48.5t-10.5 -34.5zM335 862
q2 9 2 12q0 10 -7 18.5t-15 14.5t-14.5 19t-6.5 30q0 25 42 42.5t91 17.5q54 0 71 -23q10 -13 10 -30q0 -12 -3.5 -26t-9.5 -31.5t-8 -25.5l-114 -307q42 21 133 21h21q94 -2 134.5 -38.5t40.5 -103.5q0 -46 -16.5 -104.5t-47.5 -145.5q-11 -30 -22.5 -54.5t-24.5 -43.5
t-25 -33.5t-28.5 -25.5t-29.5 -18.5t-34 -12.5t-35.5 -8t-40 -4t-42.5 -1.5t-48 -0.5h-16q-102 0 -158 35.5t-56 98.5q0 30 11 62q5 14 64 171.5t113.5 304.5t68.5 190zM270 291q-28 -75 -28 -105q0 -31 23.5 -43.5t77.5 -12.5q52 0 81.5 7t43 20.5t21.5 33.5t16 46
q11 23 28 73t17 82q0 72 -82 72h-4q-27 -1 -44.5 -2t-34 -5.5t-26 -7.5t-20.5 -14.5t-16.5 -19t-15.5 -28.5t-15 -35.5t-17 -47.5q-4 -9 -5 -13z" />
    <glyph glyph-name="afii10094" unicode="&#x44c;" horiz-adv-x="740" 
d="M334 862q1 4 1 12q0 10 -7 18.5t-15 14.5t-14.5 19t-6.5 30q0 25 42.5 42.5t90.5 17.5q56 0 72 -23q9 -13 9 -30q0 -12 -3 -26t-9 -32t-8 -25l-115 -307q42 21 134 21h21q94 -2 134 -38.5t40 -103.5q0 -77 -64 -250q-15 -42 -36.5 -74t-43 -53t-51.5 -36t-53 -22.5
t-57 -11.5t-53.5 -4.5t-52.5 -0.5h-11q-80 0 -140 40t-60 105q0 26 10 51q5 14 64 171.5t113.5 304.5t68.5 190zM269 291q-24 -65 -24 -100q0 -33 20.5 -47t63.5 -14q23 0 42 1.5t34 4.5t26.5 7t20.5 9t15.5 12t11.5 14.5t9 17t8 20t8 21.5q11 23 28 73t17 82q0 72 -82 72
h-4q-26 -1 -43.5 -2t-34.5 -5.5t-26.5 -7.5t-20.5 -14.5t-16.5 -19t-15 -28.5t-15 -35.5t-17.5 -47.5q-3 -9 -5 -13z" />
    <glyph glyph-name="afii10095" unicode="&#x44d;" horiz-adv-x="752" 
d="M216 187q-11 -18 -11 -27q0 -30 82 -30q33 0 59.5 4.5t45.5 11t35.5 19.5t26.5 24t21 32t17 36.5t17 43.5q21 59 35.5 102.5t21.5 63.5h-161q-35 0 -53.5 17t-18.5 40q0 26 21 45.5t57 20.5h202q8 21 16.5 42.5t17 46.5t15.5 47.5t11 45.5t4 42q0 65 -57 67h-8
q-42 0 -72 -4.5t-47 -10.5t-29 -18.5t-16 -21.5t-11 -27q-15 -42 -37.5 -60.5t-73.5 -18.5q-49 0 -49 30q0 10 5 25t9 25q19 51 45.5 87.5t67 65.5t100 43.5t138.5 14.5q98 0 142 -28t44 -103q0 -108 -107 -396q-34 -91 -56.5 -149.5t-49 -114t-45 -86t-45.5 -59
t-49.5 -40.5t-58.5 -21.5t-70.5 -11.5t-87.5 -2q-57 0 -98 13t-61.5 35t-29.5 45.5t-9 50.5q0 29 10 56q26 70 82 73h6q27 0 48.5 -13t21.5 -36q0 -18 -13 -37z" />
    <glyph glyph-name="afii10096" unicode="&#x44e;" horiz-adv-x="1149" 
d="M338 467l-142 -388q-22 -55 -36 -66.5t-60 -11.5h-15q-50 0 -50 26q0 11 17 54l134 361q135 361 155 422q5 20 5 32q0 4 -4.5 26t-4.5 36q0 26 33 43t72 17q46 0 62 -23q9 -12 9 -31q0 -27 -20 -83l-108 -290l221 -1q27 69 45 114.5t40 92t39.5 74.5t41 55t46.5 41t54 25
t65.5 15t79.5 4q46 0 74 -2t57.5 -9t45.5 -20.5t26 -37t10 -58.5q0 -103 -91 -350q-110 -297 -151 -377q-51 -99 -112 -130q-51 -26 -174 -27h-38q-97 0 -140.5 36t-43.5 110q0 98 82 321h-224zM730 524q-40 -100 -72.5 -192t-32.5 -135q0 -33 18 -50t59 -17q23 0 44.5 8
t39.5 19t36.5 33t32.5 40t30.5 50t27 53.5t26 60t23.5 59.5t24 62q1 5 2 7q25 66 38 104t25.5 87t12.5 81q0 87 -83 87h-2q-51 -1 -86 -23.5t-59 -67t-48.5 -111t-55.5 -155.5z" />
    <glyph glyph-name="afii10097" unicode="&#x44f;" horiz-adv-x="824" 
d="M658 881q-29 0 -47.5 -0.5t-36.5 -4.5t-28 -6.5t-21 -13.5t-16.5 -17.5t-14.5 -26t-14 -33t-16 -43.5q-9 -24 -14 -38q-28 -77 -28 -113q0 -14 3.5 -24t13.5 -17.5t16.5 -11t24.5 -10t26 -10.5q41 -18 68 -18q35 0 59.5 38.5t65.5 149.5q50 134 71 199h-112zM72 123
l60 43q60 43 79 64q103 112 146 184q-74 48 -74 152q0 72 36 170q16 42 27.5 72t25.5 57.5t25 46t26.5 35t28 26t33.5 17.5t38.5 11.5t47 6t55 3t66.5 0.5h158q36 0 56.5 -19t20.5 -51q0 -28 -14 -60l-271 -751q-4 -9 -14 -31t-14 -33q-7 -20 -16 -32.5t-17.5 -19.5t-27 -10
t-32 -3.5t-45.5 -0.5q-42 0 -31 33q8 19 22.5 42.5t26.5 54.5q19 45 44.5 114t34.5 93q-25 6 -57 11.5t-44 8.5q-18 -28 -36.5 -55t-36 -49t-35.5 -44.5t-35 -41.5t-35 -41q-50 -56 -134 -102.5t-136 -48.5h-9q-65 0 -65 25q0 22 11 39t24.5 26.5t41.5 27t45 30.5z" />
    <glyph glyph-name="afii10071" unicode="&#x451;" horiz-adv-x="749" 
d="M569 1395q32 0 68 -36t36 -67q0 -39 -33.5 -73t-92.5 -34q-51 0 -73 29t-22 69q0 56 32 84t85 28zM890 1395h3q27 0 47.5 -10t31.5 -26.5t16 -33.5t5 -34v-8q-10 -111 -124 -111q-51 0 -76 32.5t-25 72.5q0 56 35.5 87t86.5 31zM367 609l109 -3h3q38 0 69.5 8t52 22
t38 32.5t27.5 39l20 41t16 38.5q7 18 7 32q0 62 -115 62q-68 0 -122 -69t-105 -203zM799 656q-16 -43 -68.5 -95t-102.5 -68q-43 -13 -169 -13l-138 3q-22 -62 -33.5 -95.5t-24 -88t-12.5 -94.5q0 -75 51 -75q46 0 78.5 5t50.5 11t30.5 19t16.5 22t11 28q13 34 41 54.5
t60 20.5h1q19 0 35.5 -14.5t16.5 -32.5q0 -3 -1 -10q-9 -23 -16 -39.5t-22 -42t-32 -44.5t-45 -40.5t-60.5 -35t-78 -22.5t-99.5 -9q-180 0 -180 184q0 121 84 347q29 78 50 130.5t45 105t43.5 85t45 62.5t50 46.5t56.5 29t67.5 17t81.5 4.5q59 0 101.5 -14.5t64.5 -41
t31.5 -56.5t9.5 -66q0 -35 -13 -87.5t-27 -89.5z" />
    <glyph glyph-name="emdash" unicode="&#x2014;" horiz-adv-x="1161" 
d="M940 349h-743q-37 0 -59.5 14.5t-22.5 57.5v7q2 60 75 60q20 0 61 -5t57 -5h7l685 2q67 0 67 -60q0 -24 -12 -54q-10 -28 -46 -28q-14 0 -38.5 5.5t-30.5 5.5z" />
    <glyph glyph-name="quotedblleft" unicode="&#x201c;" horiz-adv-x="702" 
d="M928 1150q16 -29 20 -45.5t4 -42.5v-16q0 -54 -33 -83t-83 -29h-4q-47 2 -77 38t-32 73q-1 4 -1 14q0 38 12.5 90t35.5 98q35 67 75.5 95.5t71.5 28.5q1 0 3.5 -0.5t3.5 -0.5q14 -2 23.5 -11.5t9.5 -21.5q0 -16 -19 -28q-11 -6 -17 -31t-6 -55q0 -50 13 -73zM598 1150
q16 -29 20 -45.5t4 -42.5v-16q0 -54 -33 -83t-83 -29h-4q-48 2 -77 38t-32 73q-1 3 -1 8q0 36 16.5 89.5t41.5 104.5q51 99 123 99q9 0 21 -2q14 -1 24 -10.5t10 -21.5q0 -17 -20 -28q-23 -13 -23 -71q0 -39 13 -63z" />
    <glyph glyph-name="quotedblright" unicode="&#x201d;" horiz-adv-x="716" 
d="M746 1001q-16 30 -20 46t-4 42v15q0 55 33 84t83 29h4q47 -1 77 -38t32 -73q0 -2 0.5 -6.5t0.5 -6.5q0 -39 -12.5 -91t-36.5 -99q-34 -66 -74.5 -94t-71.5 -28h-7q-14 2 -23.5 11.5t-9.5 21.5q0 17 19 28q11 6 17 30.5t6 55.5q0 50 -13 73zM416 1001q-16 29 -20 45t-4 43
v15q0 55 33 84t83 29h4q47 -1 77 -38t32 -73v-9q0 -35 -16 -89t-42 -105q-30 -58 -53.5 -78t-45.5 -20q-7 0 -19 2q-14 2 -23 11t-9 21q0 17 18 28q12 8 12 33q0 23 -8 52t-19 49z" />
    <glyph glyph-name="quotedblbase" unicode="&#x201e;" horiz-adv-x="778" 
d="M397 -29q-16 29 -20 44.5t-4 42.5v16q0 55 32.5 84t82.5 29h5q47 -1 76.5 -37.5t32.5 -73.5v-13q0 -40 -12.5 -91.5t-35.5 -97.5q-35 -67 -75 -95t-72 -28h-7q-14 2 -23 11.5t-9 21.5q0 17 18 27q23 13 23 87q0 51 -12 73zM88 -39q-16 29 -20 45t-4 42v16q0 55 33 83.5
t83 28.5h4q48 -1 77.5 -37.5t32.5 -72.5v-9q0 -35 -16.5 -89t-42.5 -105q-51 -98 -122 -98q-9 0 -21 1q-14 2 -23.5 11.5t-9.5 21.5q0 17 19 28q22 12 22 71q0 41 -12 63z" />
    <glyph glyph-name="afii61289" unicode="&#x2113;" horiz-adv-x="750" 
d="M841 893q-33 -84 -132.5 -205t-161.5 -164l-262 -172q-6 -20 -6 -45q0 -61 33 -119t70 -58q94 0 127 53q22 34 41.5 44t48.5 10h15q18 -1 35 -15t17 -31q0 -6 -2 -11q-27 -62 -63.5 -99.5t-104 -59t-169.5 -21.5q-40 0 -76.5 25t-59.5 62t-36.5 77t-13.5 72v10l-41 -34
q-45 -32 -64 -41.5t-34 -9.5h-12q-25 1 -36.5 16t-11.5 37q0 43 25 70l205 136q8 35 48 145q17 45 41.5 114t40.5 115.5t40 109t42.5 105t44.5 93t50 84.5t55.5 68t63.5 53.5t71 32t82 12.5q77 0 115.5 -47t38.5 -134q0 -112 -64 -278zM361 553l100 69q84 59 155 159
t115 210q35 90 35 153q0 78 -56 78q-27 0 -57.5 -29.5t-61.5 -84t-58.5 -111t-57.5 -132.5t-48.5 -125.5t-40.5 -113t-25 -73.5z" />
    <glyph glyph-name="afii61352" unicode="&#x2116;" horiz-adv-x="1536" 
d="M1043 1179l-421 -1133q-18 -25 -30 -35t-27 -10h-58q-19 0 -26 10.5t-8 36.5l53 925l-307 -827q-8 -22 -15.5 -56t-16.5 -60q-5 -14 -25 -21t-36 -8t-45 -1q-36 0 -36 38q0 31 26 92l421 1145q16 43 43.5 63.5t56.5 20.5q19 0 33.5 -8t18.5 -21l-38 -961l305 853
q9 23 17 43t17 36t19.5 27.5t25.5 17.5t35 6q40 0 59 -9.5t19 -30.5q0 -8 -5 -22q-14 -47 -32.5 -74.5t-22.5 -36.5zM1120 1077q19 55 34 91.5t34 70t38.5 53t46.5 34.5t59.5 20.5t76.5 5.5q185 0 185 -173q0 -52 -14 -115q-21 -89 -44 -144.5t-58 -91t-80.5 -49
t-114.5 -13.5h-5q-80 1 -130.5 50.5t-50.5 137.5q0 56 23 123zM1264 1074q-23 -64 -23 -106q0 -72 71 -72h2q29 1 49.5 9.5t33.5 24t22.5 37t16 48.5t14.5 59q17 65 17 90q0 30 -18.5 44t-64.5 14q-41 0 -59.5 -13.5t-29.5 -46t-31 -88.5z" />
    <glyph glyph-name="minus" unicode="&#x2212;" horiz-adv-x="1054" 
d="M433 718l533 2q68 0 68 -58q0 -25 -12 -56q-11 -27 -45 -27q-15 0 -40 6t-31 6l-590 -1q-38 0 -60.5 14.5t-22.5 57.5q0 4 1 7q0 34 19.5 47t54.5 13q20 0 61 -5.5t57 -5.5h7z" />
    <glyph glyph-name="angle" unicode="&#x2220;" horiz-adv-x="1251" 
d="M929 988q23 17 48.5 17t43.5 -17t18 -41q0 -33 -34 -63l-650 -754h672q33 0 51 -16.5t18 -40.5q0 -28 -21 -50.5t-53 -22.5h-857q-32 0 -54 11t-22 27q0 20 37 40z" />
    <glyph glyph-name="approxequal" unicode="&#x2248;" horiz-adv-x="1060" 
d="M874 526q37 21 64 21t41 -23q16 -27 16 -47q0 -41 -70 -73q-82 -36 -163 -36q-92 0 -182 46q-56 29 -117 29q-80 0 -135 -40q-59 -42 -94 -42q-38 0 -48 46q-3 13 -3 23q0 17 8.5 30.5t16.5 19.5t27.5 16.5t24.5 13.5q42 26 98.5 44t109.5 18q54 0 92 -19
q124 -64 196 -64q55 0 118 37zM971 828q36 21 64 21t42 -24q15 -27 15 -47q0 -41 -70 -73q-98 -42 -179 -42q-83 0 -158 40q-72 37 -151 37q-77 0 -115 -29q-59 -46 -97 -46q-35 0 -45 45q-3 12 -3 22q0 23 12.5 40t30 26t35.5 21q34 21 86 34t106 13q70 0 121 -24
q110 -57 179 -57q55 0 127 43z" />
    <glyph glyph-name="notequal" unicode="&#x2260;" horiz-adv-x="1054" 
d="M647 761q63 83 63 85q25 33 51.5 54t45.5 21q40 0 55.5 -8t15.5 -24q0 -9 -5 -25q-8 -25 -11.5 -31.5t-31.5 -46.5l-18 -24h174q35 0 51.5 -16t16.5 -43q0 -24 -12 -54q-10 -28 -46 -28q-14 0 -38.5 5.5t-31.5 5.5h-208l-82 -112l258 1q67 0 67 -58q0 -26 -13 -56
q-10 -27 -45 -27q-15 0 -40 5.5t-29 5.5l-292 -1l-94 -129q-4 -5 -16.5 -22t-18.5 -23t-18.5 -16.5t-28.5 -14t-37 -3.5h-5q-43 1 -43 45q0 17 5 36q9 22 83 127h-127q-37 0 -59.5 15t-22.5 58v7q2 34 21.5 47t53.5 13q20 0 60.5 -5.5t57.5 -5.5h8l104 1l84 112l-213 -1
q-37 0 -60 15t-23 57q0 5 1 7q0 34 20 47t54 13q20 0 61 -4.5t57 -4.5h7h194z" />
    <glyph glyph-name="lessequal" unicode="&#x2264;" horiz-adv-x="833" 
d="M303 710l556 291q8 5 16 5q23 0 43 -21t20 -45q0 -31 -35 -50l-452 -241l297 -326q14 -15 14 -32q0 -25 -25.5 -44.5t-54.5 -19.5q-23 0 -37 15l-359 393q-20 21 -20 35q0 20 37 40zM366 406l297 -325q15 -16 15 -37q0 -26 -21 -47t-48 -21t-49 24l-360 392q-8 8 -8 25
q0 23 15.5 42.5t42.5 19.5q50 0 116 -73z" />
    <glyph glyph-name="greaterequal" unicode="&#x2265;" horiz-adv-x="870" 
d="M783 584l-538 -279q-6 -4 -13 -4q-19 0 -32 23t-13 51q0 38 25 51l431 229l-282 308q-12 15 -12 34q0 26 22.5 47t49.5 21q25 0 44 -20l335 -380q15 -18 15 -36q0 -28 -32 -45zM582 376q33 18 61 18q31 0 49.5 -17.5t18.5 -41.5q0 -34 -35 -52l-537 -279q-10 -6 -20 -6
q-21 0 -36 20t-15 45q0 42 38 61z" />
    <glyph glyph-name="uni2300" unicode="&#x2300;" horiz-adv-x="930" 
d="M715 752l-275 -400q35 -15 72 -15q108 0 169.5 73.5t71.5 199.5q1 5 1 17q0 69 -39 125zM152 600q3 69 32 136.5t77 121.5t120 87.5t154 33.5q80 0 152 -34q39 57 39 59q26 33 52 54t44 21q41 0 57 -8t16 -24q0 -11 -6 -25q-8 -24 -11.5 -31.5t-30.5 -46.5l-55 -79
q48 -54 74 -122t26 -134v-9q-5 -179 -112 -285.5t-273 -108.5h-4q-76 0 -142 29l-60 -86q-4 -4 -16.5 -22t-18.5 -24t-19 -16.5t-29 -14t-37 -3.5h-4q-43 1 -43 46q0 19 5 35q9 23 108 170q-47 54 -71 124t-24 138v18zM288 600q0 -2 -0.5 -8t-0.5 -8q0 -77 44 -142l276 391
q-41 13 -83 13h-1q-55 0 -106 -28.5t-87.5 -86t-41.5 -131.5z" />
    <glyph glyph-name="uni262D" unicode="&#x262d;" horiz-adv-x="1236" 
d="M364 668l216 169q15 13 34 28t35 15q24 0 53 -37q15 -20 15 -44q0 -28 -22 -48l-68 -50l194 -233q12 22 31.5 49t28 46.5t17.5 58.5q11 45 11 89q0 78 -29.5 160t-71.5 145.5t-93 121.5t-88.5 92t-64.5 52q-52 35 -52 72q0 15 11 24.5t29 9.5q16 0 36 -8q41 -15 98 -56.5
t120 -107t116.5 -141.5t88.5 -171.5t35 -186.5q0 -45 -10 -95q-18 -83 -40 -128.5t-83 -131.5l141 -168l4 -15q3 -14 3 -27q0 -17 -7 -29q-7 -15 -19 -22.5t-33 -10.5q-48 0 -74 53l-111 128q-41 -30 -112 -52.5t-132 -22.5q-63 0 -150 26.5t-148 64.5l-30 -80
q-8 -14 -15 -43t-16 -51q-4 -14 -24 -21t-36.5 -8t-44.5 -1q-35 0 -35 33q0 17 8.5 41.5t12.5 33.5l74 188q7 18 25 32t40 14h61q15 0 27.5 -7.5t18.5 -14.5l5 -7l18 -11q18 -11 47.5 -24.5t77 -24.5t96.5 -11q36 0 77.5 14t70.5 33l-209 249l-57 -42q-46 -36 -68 -36
q-18 0 -33 18q-22 25 -22 56q0 33 22 51z" />
    <glyph glyph-name="female" unicode="&#x2640;" horiz-adv-x="1167" 
d="M731 5v-235l138 1q35 0 51.5 -16t16.5 -42q0 -24 -13 -55q-10 -28 -45 -28q-15 0 -40 5.5t-30 5.5h-78v-131q-3 -36 -22.5 -56t-45.5 -20t-45 20.5t-18 55.5v130h-129q-37 0 -59.5 15t-22.5 58v7q1 33 20.5 46.5t54.5 13.5q19 0 60 -5.5t57 -5.5h8h11v233
q-99 7 -176.5 49.5t-125.5 110.5t-73 153t-25 181v29q4 108 41 198.5t98 153.5t144 98t177 35h2q128 0 225 -36t155.5 -100.5t87 -149t28.5 -188.5v-29q-3 -77 -19.5 -145t-50 -129.5t-81.5 -107.5t-118.5 -77.5t-157.5 -42.5zM651 124q2 0 6 -0.5t6 -0.5q85 0 153 31
t111.5 84t67.5 121t27 145v28q0 349 -354 349h-2q-95 0 -169.5 -48.5t-116 -130t-44.5 -180.5q-1 -7 -1 -23q0 -77 18 -142t54 -117.5t98.5 -83t145.5 -32.5z" />
    <glyph glyph-name="male" unicode="&#x2642;" horiz-adv-x="1285" 
d="M651 124q2 0 7 -0.5t7 -0.5q84 0 152.5 31t112 84t67 121t25.5 145v10q0 56 -10.5 106.5t-36 99t-64.5 83.5t-102 56.5t-143 21.5q-94 0 -169.5 -51t-116.5 -134.5t-44 -182.5q0 -3 -0.5 -9t-0.5 -10q0 -102 34.5 -183.5t107.5 -132.5t174 -54zM642 0q-102 0 -186.5 39
t-139.5 106.5t-85.5 156.5t-30.5 189v26q6 143 67.5 255.5t165 175t229.5 62.5h1q168 0 288 -75l312 352l-209 -74q-7 -2 -10 -2q-19 0 -33 19t-14 45q0 56 63 77l447 152q30 0 43.5 -13.5t16.5 -43.5l-114 -436q-8 -33 -26 -48t-40 -15q-23 0 -42 16t-19 37q0 7 1 10
l54 211l-331 -372q108 -130 108 -324v-19q-2 -85 -21.5 -158.5t-60 -138.5t-99 -111t-144 -72.5t-191.5 -26.5z" />
    <glyph glyph-name="three.var" horiz-adv-x="800" 
d="M487 813q54 67 89 107t56 61t78.5 83t140.5 158l-274 -6q-36 0 -59 15t-23 58v7q2 33 21.5 46.5t53.5 13.5q20 0 60.5 -5.5t57.5 -5.5q5 0 7 1l322 6q27 0 27 -32q0 -16 -7 -35q-10 -26 -31.5 -58.5t-61 -80.5t-101.5 -118.5t-153 -173.5q41 -19 71.5 -86.5t30.5 -152.5
q0 -76 -27 -148q-21 -57 -36 -94.5t-33.5 -82t-33 -72t-33.5 -59.5t-36.5 -51t-40 -39.5t-45.5 -31.5t-52 -20.5t-61 -13t-71 -3.5q-221 0 -221 160q0 59 28 134q11 28 29 42t49 16l1.5 0.5t2.5 0.5q26 0 46.5 -16.5t20.5 -42.5q0 -19 -10 -39q-17 -32 -17 -58
q0 -67 109 -67q31 0 59.5 13t52.5 39t43 53.5t38 68t31.5 71t27.5 73.5q27 73 27 134q0 72 -30 117t-63 54q-8 2 -31 4.5t-34.5 7t-11.5 15.5t17 33z" />
    <glyph glyph-name="x.var" horiz-adv-x="981" 
d="M766 173q25 58 90 58q22 0 36.5 -16.5t14.5 -39.5q0 -22 -15 -42q-27 -35 -38.5 -49t-32 -34t-34 -26t-38 -13.5t-52 -9t-69.5 -1.5q-36 0 -60 4.5t-40 17t-24 23.5t-21 33q-21 -15 -45.5 -29t-48.5 -25t-61.5 -17.5t-85.5 -6.5q-40 0 -71.5 12.5t-50 32t-30.5 45.5
t-16 49t-4 47q0 9 1 13q1 29 16.5 48.5t45.5 19.5h1q24 0 49 -15.5t27 -41.5q1 -45 13.5 -62.5t55.5 -17.5h2q31 1 58.5 17t47.5 39t39.5 57.5t31 61.5t24.5 63l79 228q50 133 50 205q0 83 -64 83q-3 0 -5 -1q-28 0 -43.5 -1.5t-23.5 -7t-18 -22.5q-28 -50 -47 -64.5
t-59 -14.5h-5q-42 0 -42 42q0 15 7 38q14 38 31.5 65t45.5 49.5t69.5 34t96.5 12.5h7q39 0 67.5 -8t47 -24t29.5 -33t23 -44q9 8 30.5 29.5t33.5 31t32.5 22.5t43.5 18.5t51 5.5h3q150 -1 181 -168q1 -8 1 -13q0 -30 -22 -48t-51 -18h-1q-22 0 -31 16t-11.5 38t-5.5 26
q-15 22 -30.5 29.5t-41.5 7.5q-2 0 -7 -0.5t-7 -0.5q-30 0 -90 -89.5t-102 -201.5l-81 -236q-18 -51 -18 -118q0 -106 61 -106q52 0 72 11t28 32z" />
    <glyph glyph-name="t.var" horiz-adv-x="636" 
d="M324 254q-15 -43 -15 -68q0 -35 27 -47t88 -12q4 0 12.5 0.5t13.5 0.5h3q34 0 51 -14t17 -36q0 -28 -25 -53t-60 -25q-187 0 -187 -1q-37 -1 -73.5 36.5t-36.5 88.5q0 23 9 47l263 709h-95q-37 0 -59.5 14.5t-22.5 57.5v7q2 34 21.5 47t53.5 13q20 0 60.5 -5.5t57.5 -5.5
q5 0 8 1h23q62 167 70 190q4 17 6 43t13 59q8 23 34.5 38.5t54.5 15.5q37 0 54 -25q10 -12 10 -31q0 -15 -9.5 -46.5t-10.5 -36.5l-78 -206h78q67 0 67 -58q0 -26 -13 -55q-10 -28 -45 -28q-14 0 -39 6t-30 6h-66z" />
    <glyph glyph-name="seven.var" horiz-adv-x="767" 
d="M1005 1352q17 0 25 -15t8 -36q0 -23 -8 -37q-24 -38 -100 -153.5t-129.5 -199t-101.5 -161.5h106q67 0 67 -58q0 -25 -13 -55q-10 -28 -45 -28q-14 0 -39 6t-30 6h-123q-188 -333 -199 -511v-16q0 -7 0.5 -14.5t0.5 -9.5q0 -10 -11 -40q-7 -21 -30 -25.5t-79 -4.5
q-39 0 -39 46q0 12 2.5 27t6.5 33.5t5 26.5q35 181 199 487h-39q-37 0 -59.5 14.5t-22.5 57.5v7q1 34 21 47t54 13q19 0 60 -5.5t57 -5.5q121 211 296 474h-288q-7 -12 -22.5 -52.5t-34.5 -57.5q-26 -21 -70 -21h-4q-15 0 -26.5 13t-4.5 32l54 160q8 23 29.5 39.5t47.5 16.5
h479z" />
    </font>
</defs>
</svg>
